<svg width="44" height="44" viewBox="0 0 44 44" fill="none" xmlns="http://www.w3.org/2000/svg">
<rect width="44" height="44" rx="22" fill="white"/>
<path d="M21.9985 32.1393C32.9331 32.1393 41.8002 27.6002 41.8002 22.0017C41.8002 16.4 32.9331 11.8608 21.9985 11.8608C11.0673 11.8608 2.2002 16.4 2.2002 22.0017C2.2002 27.6002 11.0673 32.1393 21.9985 32.1393ZM25.7275 27.1646C25.3975 27.9302 24.8283 29.5637 23.5231 30.2171C23.1271 30.4134 22.6371 30.5042 22.2031 30.5223H22.0002C18.3471 30.5223 14.9448 30.0108 12.0969 29.1462L11.988 29.105C11.724 29.0175 11.592 28.8954 11.592 28.7453C11.592 28.6149 11.6629 28.5143 11.7553 28.4235L11.9352 28.2635C12.5952 27.7157 14.5719 26.2835 18.3009 24.8529C19.6093 24.3563 21.2478 23.7326 22.9621 23.3679C23.9653 23.16 27.696 22.5875 25.7275 27.1646ZM35.7282 16.9445C35.7991 16.8224 35.8932 16.7184 36.0631 16.7102C36.1555 16.7003 36.2809 16.7217 36.4723 16.8422C38.7972 18.2727 40.1766 20.063 40.1766 21.9984C40.1766 25.4931 35.682 28.4994 29.2536 29.8112C28.8444 29.8937 28.5672 29.8904 28.4764 29.7864C28.4104 29.7237 28.3939 29.6115 28.4764 29.4729C28.5247 29.3871 28.5823 29.3069 28.648 29.2337C32.146 25.1087 34.8124 19.0218 35.5698 17.2662C35.6275 17.1441 35.682 17.0237 35.7282 16.9445ZM18.3322 16.8141C18.6622 16.0502 19.2315 14.415 20.535 13.7682C20.931 13.5702 21.421 13.4745 21.855 13.463C21.9556 13.4597 22.0266 13.463 22.053 13.463C25.711 13.463 29.1084 13.9679 31.9596 14.8374C31.981 14.8473 32.047 14.8704 32.0685 14.8787C32.3325 14.9678 32.4645 15.0882 32.4645 15.2384C32.4645 15.3687 32.3952 15.4644 32.3028 15.5568C32.2444 15.612 32.1838 15.6648 32.1213 15.7152C31.4662 16.268 29.4846 17.6969 25.7556 19.1274C24.4438 19.629 22.8087 20.2478 21.0993 20.6108C20.0928 20.8253 16.3638 21.3912 18.3322 16.8141ZM14.7402 14.1857C15.1527 14.1065 15.4249 14.1065 15.5256 14.2104C15.5833 14.2764 15.5998 14.3853 15.5223 14.5239C15.473 14.6075 15.4155 14.686 15.3507 14.7582C11.8527 18.8882 9.18465 24.9701 8.424 26.7306C8.37627 26.8403 8.32341 26.9477 8.2656 27.0524C8.1996 27.1728 8.10225 27.2768 7.9356 27.2867C7.8432 27.2949 7.71285 27.2685 7.52145 27.153C5.19825 25.7225 3.8172 23.9339 3.8172 21.9984C3.8172 18.5037 8.3118 15.4974 14.7402 14.1857Z" fill="black"/>
</svg>
