<svg width="44" height="44" viewBox="0 0 44 44" fill="none" xmlns="http://www.w3.org/2000/svg">
<rect width="44" height="44" rx="22" fill="white"/>
<g clip-path="url(#clip0_631_14)">
<path d="M22.0002 12.1001C11.0648 12.1001 2.2002 16.5328 2.2002 22.0001C2.2002 27.4674 11.0648 31.9001 22.0002 31.9001C32.9356 31.9001 41.8002 27.4674 41.8002 22.0001C41.8002 16.5328 32.9356 12.1001 22.0002 12.1001ZM22.0002 30.6535C12.3617 30.6535 4.51927 26.7711 4.51927 22.0001C4.51927 17.2291 12.3609 13.3483 21.9994 13.3483C31.6378 13.3483 39.4795 17.2291 39.4795 22.0001C39.4803 26.7711 31.6387 30.6535 22.0002 30.6535Z" fill="#D50000"/>
<path fill-rule="evenodd" clip-rule="evenodd" d="M20.0724 17.6468H20.3991C20.5129 17.6468 20.5748 17.7326 20.5748 17.8415V26.7407C20.5748 26.8587 20.6705 26.9495 20.7926 26.9495H23.2255C23.3484 26.9495 23.4441 26.8587 23.4441 26.7407V17.2598C23.4441 17.1452 23.346 17.0503 23.2255 17.0503H20.0724C20.041 17.0503 20.041 17.0792 20.041 17.1014V17.5964C20.041 17.6179 20.041 17.6468 20.0724 17.6468Z" fill="#D50000"/>
<path fill-rule="evenodd" clip-rule="evenodd" d="M25.4978 26.9503H27.8516C27.9654 26.9503 28.0867 26.862 28.1337 26.7449L30.1418 20.6011C30.1418 20.5994 30.1649 20.5153 30.2399 20.5153C30.3117 20.5153 30.3365 20.6011 30.3365 20.6011L32.366 26.7449C32.4138 26.8645 32.5326 26.9503 32.6489 26.9503H35.0018C35.0843 26.9503 35.1314 26.9107 35.1569 26.8777C35.2023 26.8175 35.2073 26.7416 35.1924 26.6954L31.9172 17.1889C31.866 17.066 31.7381 17.0503 31.6325 17.0503H27.8285C27.8012 17.0503 27.7748 17.075 27.7748 17.1014V17.5964C27.7748 17.622 27.8012 17.6476 27.8285 17.6476H28.1519C28.2715 17.6476 28.3523 17.7161 28.3523 17.8184C28.3523 17.8514 28.3449 17.8868 28.3284 17.9306L25.3073 26.6962C25.2899 26.7581 25.3031 26.8257 25.3436 26.8777C25.3807 26.9247 25.436 26.9503 25.4978 26.9503Z" fill="#D50000"/>
<path fill-rule="evenodd" clip-rule="evenodd" d="M9.11165 17.6468C9.22468 17.6468 9.31378 17.7326 9.31378 17.8415V26.7407C9.31378 26.8595 9.407 26.9503 9.52745 26.9503H11.8936C12.0115 26.9503 12.0998 26.8571 12.0998 26.7416V22.9985C12.0998 22.9169 12.1452 22.8698 12.2137 22.8698C12.2937 22.8698 12.3316 22.9226 12.3613 22.9647C12.3646 22.9697 12.3671 22.9738 12.3712 22.9779L15.1548 26.7218C15.2431 26.8529 15.4039 26.9503 15.5285 26.9503H18.3005C18.3657 26.9503 18.4375 26.9049 18.4713 26.8422C18.5076 26.7746 18.4985 26.6978 18.4457 26.6252C18.4375 26.6129 14.97 21.8551 14.9345 21.8064C14.9238 21.7916 14.9197 21.7825 14.9131 21.7718C14.9056 21.7586 14.8982 21.7429 14.8957 21.7289C14.8933 21.719 14.89 21.7099 14.89 21.6967C14.89 21.6563 14.9106 21.6158 14.932 21.5721L14.9345 21.5663L17.8459 17.3506C17.8831 17.292 17.8831 17.2145 17.8459 17.1501C17.8105 17.0882 17.7469 17.0503 17.6776 17.0503H15.0459C14.9213 17.0503 14.7588 17.1476 14.6689 17.2772L12.3704 20.4163C12.2995 20.5194 12.2293 20.5244 12.2161 20.5244H12.2137C12.1493 20.5244 12.0998 20.4831 12.0998 20.4196V17.259C12.0998 17.1443 12.0041 17.0503 11.8861 17.0503H8.85343C8.82538 17.0503 8.7998 17.075 8.7998 17.1014V17.5964C8.7998 17.6228 8.82538 17.6476 8.85343 17.6476H9.11165V17.6468Z" fill="#D50000"/>
</g>
<defs>
<clipPath id="clip0_631_14">
<rect width="39.6" height="39.6" fill="white" transform="translate(2.2002 2.2002)"/>
</clipPath>
</defs>
</svg>
