<?xml version="1.0" encoding="iso-8859-1"?><!-- Generator: Adobe Illustrator 21.1.0, SVG Export Plug-In . SVG Version: 6.00 Build 0)  --><svg xmlns="http://www.w3.org/2000/svg" xmlns:xlink="http://www.w3.org/1999/xlink" viewBox="0 0 48 48" width="38px" height="38px"><path style="fill:#D50000;" d="M24,12C10.745,12,0,17.373,0,24c0,6.627,10.745,12,24,12s24-5.373,24-12C48,17.373,37.255,12,24,12z   M24,34.489C12.317,34.489,2.811,29.783,2.811,24c0-5.783,9.505-10.487,21.188-10.487c11.683,0,21.188,4.704,21.188,10.487  C45.188,29.783,35.683,34.489,24,34.489z"/><path style="fill-rule:evenodd;clip-rule:evenodd;fill:#D50000;" d="M21.663,18.723h0.396c0.138,0,0.213,0.104,0.213,0.236v10.787  c0,0.143,0.116,0.253,0.264,0.253h2.949c0.149,0,0.265-0.11,0.265-0.253V18.254c0-0.139-0.119-0.254-0.265-0.254h-3.822  c-0.038,0-0.038,0.035-0.038,0.062v0.6C21.625,18.688,21.625,18.723,21.663,18.723z"/><path style="fill-rule:evenodd;clip-rule:evenodd;fill:#D50000;" d="M28.24,30h2.853c0.138,0,0.285-0.107,0.342-0.249l2.434-7.447  c0-0.002,0.028-0.104,0.119-0.104c0.087,0,0.116,0.103,0.117,0.104l2.46,7.447C36.623,29.896,36.767,30,36.908,30h2.852  c0.1,0,0.157-0.048,0.188-0.088c0.055-0.073,0.061-0.165,0.043-0.221l-3.97-11.523C35.959,18.019,35.804,18,35.676,18h-4.611  C31.032,18,31,18.03,31,18.062v0.6c0,0.031,0.032,0.062,0.065,0.062h0.392c0.145,0,0.243,0.083,0.243,0.207  c0,0.04-0.009,0.083-0.029,0.136l-3.662,10.625c-0.021,0.075-0.005,0.157,0.044,0.22C28.098,29.969,28.165,30,28.24,30z"/><path style="fill-rule:evenodd;clip-rule:evenodd;fill:#D50000;" d="M8.378,18.723c0.137,0,0.245,0.104,0.245,0.236v10.787  C8.623,29.89,8.736,30,8.882,30h2.868c0.143,0,0.25-0.113,0.25-0.253v-4.537c0-0.099,0.055-0.156,0.138-0.156  c0.097,0,0.143,0.064,0.179,0.115c0.004,0.006,0.007,0.011,0.012,0.016l3.374,4.538C15.81,29.882,16.005,30,16.156,30h3.36  c0.079,0,0.166-0.055,0.207-0.131c0.044-0.082,0.033-0.175-0.031-0.263c-0.01-0.015-4.213-5.782-4.256-5.841  c-0.013-0.018-0.018-0.029-0.026-0.042c-0.009-0.016-0.018-0.035-0.021-0.052c-0.003-0.012-0.007-0.023-0.007-0.039  c0-0.049,0.025-0.098,0.051-0.151l0.003-0.007l3.529-5.11c0.045-0.071,0.045-0.165,0-0.243C18.922,18.046,18.845,18,18.761,18h-3.19  c-0.151,0-0.348,0.118-0.457,0.275l-2.786,3.805c-0.086,0.125-0.171,0.131-0.187,0.131h-0.003c-0.078,0-0.138-0.05-0.138-0.127  v-3.831C12,18.114,11.884,18,11.741,18H8.065C8.031,18,8,18.03,8,18.062v0.6c0,0.032,0.031,0.062,0.065,0.062H8.378z"/></svg>