<?xml version="1.0" encoding="UTF-8"?>
<svg id="Layer_1" data-name="Layer 1" xmlns="http://www.w3.org/2000/svg" xmlns:xlink="http://www.w3.org/1999/xlink" viewBox="0 0 1079.99 260.23">
  <defs>
    <style>
      .cls-1 {
        fill: #fff;
      }

      .cls-2 {
        clip-path: url(#clippath-2);
      }

      .cls-3 {
        clip-path: url(#clippath-6);
      }

      .cls-4 {
        stroke: #1d1d1b;
        stroke-miterlimit: 10;
        stroke-width: .56px;
      }

      .cls-4, .cls-5 {
        fill: none;
      }

      .cls-6 {
        opacity: .7;
      }

      .cls-7 {
        opacity: .4;
      }

      .cls-8 {
        clip-path: url(#clippath-7);
      }

      .cls-9 {
        clip-path: url(#clippath-1);
      }

      .cls-10 {
        clip-path: url(#clippath-4);
      }

      .cls-11 {
        opacity: .6;
      }

      .cls-12 {
        clip-path: url(#clippath);
      }

      .cls-13 {
        clip-path: url(#clippath-3);
      }

      .cls-14 {
        clip-path: url(#clippath-5);
      }
    </style>
    <clipPath id="clippath">
      <path class="cls-5" d="M132.97,12.31c-.07,.07-.13,.15-.2,.22-.46,.51-.9,1.03-1.32,1.57-.11,.13-.21,.26-.31,.39-1.37,1.76-2.6,3.67-3.7,5.75l-.3,.58-.2,.37-3.6,6.81-4.35,8.25-10.01,18.97-2.96,5.61-40.34,76.48-5.84,10.92h0v.02h0s0,.02-.02,.03h0s-.02,.05-.03,.06h0s-.02,.03-.02,.04h0l-.02,.02s-.02,.03-.02,.05-.02,.04-.03,.06c0,.02-.02,.03-.03,.05,0,.02,0,.03-.02,.05l-.06,.1-.07,.14h0s-.02,.03-.02,.04c-.02,.04-.03,.07-.06,.11-.02,.05-.04,.09-.07,.13h0l-.07,.13-.02,.03-8.96,16.77L0,260.23H70.94l17.4-32.76c.11,.04,.19,.06,.19,.06l6.38-12.11,5.75-10.91,5.99-11.37,35.56-67.52c7.98-15.15,29.68-15.15,37.66,0l6.34,12.04,5.57,10.58,12.45,23.63,36.61,69.51c6.1,11.59,18.12,18.85,31.23,18.85h48.94l-61.93-117.58-11.13-21.13-10.78-20.48v-.02l-3.71-7.03-.15-.28v-.02l-.25-.45-.04-.08-.23-.45-.98-1.86-.15-.28-1.57-2.97-.07-.13-.08-.15-.2-.38-6.48-12.3-.28-.53-.3-.57-.15-.28-.02-.04-.15-.28-.18-.36-.15-.28h0l-.16-.3-.87-1.64-.16-.3h0l-.14-.29-.45-.86-.15-.28-.12-.22-.15-.28-.99-1.88-.15-.28-20.41-38.76-.07-.13-1.1-2.1-.08-.14-2.42-4.59c-.03-.06-.06-.11-.09-.16-.02-.04-.04-.08-.07-.13-.44-.82-.89-1.61-1.39-2.37-.02-.04-.05-.08-.08-.12-1.58-2.51-3.4-4.74-5.4-6.71-.04-.04-.08-.08-.12-.12-.58-.58-1.18-1.12-1.8-1.64-.04-.05-.08-.08-.12-.11-6.99-5.93-15.75-8.89-24.51-8.89-10.32,0-20.63,4.11-28.05,12.33"/>
    </clipPath>
    <clipPath id="clippath-1">
      <rect class="cls-5" x="183.24" y="93.45" width="58.03" height="58.44"/>
    </clipPath>
    <clipPath id="clippath-2">
      <rect class="cls-5" x="90.55" y="98.74" width="37.14" height="55"/>
    </clipPath>
    <clipPath id="clippath-3">
      <rect class="cls-5" x="105.95" y="50.61" width="62.61" height="62.63"/>
    </clipPath>
    <clipPath id="clippath-4">
      <rect class="cls-5" x="56.05" y="146.63" width="50.86" height="60.59"/>
    </clipPath>
    <clipPath id="clippath-5">
      <rect class="cls-5" x="156.12" y="19.64" width="60.77" height="71.68"/>
    </clipPath>
    <clipPath id="clippath-6">
      <rect class="cls-5" x="45.34" y="148.24" width="61.3" height="67.39"/>
    </clipPath>
    <clipPath id="clippath-7">
      <rect class="cls-5" x="186.2" y="101.02" width="72.87" height="71.11"/>
    </clipPath>
  </defs>
  <g id="Layer_1-2" data-name="Layer 1">
    <g>
      <g>
        <g class="cls-12">
          <rect class="cls-1" x="-13.69" y="-17.38" width="348.42" height="294.95" transform="translate(-13.71 19.04) rotate(-6.51)"/>
        </g>
        <g class="cls-11">
          <g class="cls-9">
            <g>
              <path class="cls-1" d="M211.1,151.61c-15.21,0-27.58-12.37-27.58-27.58,0-6.59,2.36-12.97,6.65-17.96,4.24-4.94,10.1-8.23,16.49-9.26h.04l3.84,3.68-.1,.06c-.83,.53-1.33,1.43-1.33,2.4,0,1.57,1.28,2.85,2.85,2.85,1.01,0,1.95-.55,2.46-1.43l.06-.1,5.95,5.71c1.67,1.11,3.12,2.5,4.31,4.14l3.99,3.83c.24,.37,.55,.67,.93,.89l8.81,8.46v.04c-1.67,13.83-13.43,24.26-27.38,24.26m-4.46-54.61c-6.33,1.04-12.13,4.3-16.33,9.19-4.26,4.96-6.61,11.29-6.61,17.84,0,15.11,12.29,27.4,27.4,27.4,13.84,0,25.52-10.34,27.19-24.05l-8.73-8.38c-.38-.22-.71-.54-.97-.93l-3.98-3.82c-1.19-1.63-2.63-3.01-4.29-4.12l-5.8-5.57c-.56,.88-1.52,1.43-2.56,1.43-1.67,0-3.03-1.36-3.03-3.03,0-1,.49-1.92,1.32-2.49l-3.61-3.47h0Zm8.95,51.14c-1.37,0-2.62-.94-2.95-2.34-.19-.79-.05-1.6,.37-2.29,.43-.69,1.09-1.17,1.88-1.36,.79-.19,1.6-.05,2.29,.37,.69,.42,1.17,1.09,1.36,1.88,.39,1.63-.63,3.26-2.25,3.65-.23,.05-.47,.08-.7,.08m0-5.89c-.22,0-.44,.03-.66,.08-.74,.18-1.37,.63-1.77,1.28-.4,.65-.52,1.41-.35,2.16,.36,1.53,1.9,2.48,3.43,2.12s2.48-1.9,2.12-3.43c-.18-.74-.63-1.37-1.28-1.77-.46-.28-.97-.43-1.49-.43m-12.17,4.8c-.35,0-.7-.06-1.04-.18-.76-.28-1.37-.84-1.71-1.57-.34-.73-.38-1.56-.1-2.32,.57-1.57,2.32-2.38,3.89-1.81,1.57,.57,2.38,2.32,1.81,3.89-.28,.76-.83,1.37-1.57,1.71-.41,.19-.84,.28-1.28,.28m0-5.89c-.41,0-.82,.09-1.2,.27-.69,.32-1.21,.89-1.48,1.61-.26,.72-.23,1.49,.09,2.18,.32,.69,.89,1.21,1.61,1.48,.72,.26,1.49,.23,2.18-.09,.69-.32,1.22-.89,1.48-1.61,.54-1.48-.22-3.12-1.7-3.66-.32-.12-.65-.17-.98-.17m22.93,1.19c-.75,0-1.5-.27-2.08-.83-.59-.56-.93-1.31-.95-2.12s.27-1.58,.83-2.17c.56-.59,1.31-.93,2.12-.95,.81-.03,1.58,.27,2.17,.83s.93,1.31,.95,2.12-.27,1.58-.83,2.17c-.6,.63-1.4,.95-2.21,.95m0-5.88h-.08c-.76,.02-1.47,.34-1.99,.89s-.8,1.28-.78,2.04c.02,.76,.34,1.47,.89,1.99,1.14,1.08,2.95,1.03,4.03-.12,.52-.55,.8-1.28,.78-2.04-.02-.76-.34-1.47-.89-1.99-.53-.5-1.23-.78-1.96-.78m-15.25,3.1c-4.66,0-9.03-2.06-12-5.66-2.29-2.77-3.55-6.29-3.55-9.89,0-.53,.03-1.07,.08-1.59,.05-.51,.13-1.03,.24-1.54,.05-.25,.11-.51,.17-.75,.75-2.94,2.35-5.57,4.6-7.62,1.67-1.52,3.69-2.67,5.83-3.34,1.49-.46,3.05-.7,4.62-.7s3.13,.23,4.62,.7c.25,.08,.49,.16,.72,.24,.47,.17,.94,.37,1.39,.59,1.35,.65,2.6,1.49,3.71,2.51,2.26,2.05,3.85,4.69,4.6,7.62,.06,.25,.12,.5,.17,.75,.1,.51,.18,1.03,.24,1.54,.05,.53,.08,1.06,.08,1.59,0,3.6-1.26,7.12-3.55,9.89-2.97,3.6-7.34,5.66-11.99,5.66m0-30.91c-1.56,0-3.1,.23-4.57,.69-2.12,.66-4.11,1.8-5.76,3.3-2.23,2.03-3.8,4.63-4.55,7.53-.06,.24-.12,.49-.17,.74-.1,.5-.18,1.02-.23,1.53-.05,.52-.08,1.04-.08,1.57,0,3.56,1.25,7.03,3.51,9.77,2.93,3.55,7.26,5.59,11.86,5.59s8.92-2.04,11.86-5.59c2.26-2.74,3.51-6.21,3.51-9.77,0-.52-.03-1.05-.08-1.57-.05-.51-.13-1.03-.23-1.53-.05-.25-.11-.5-.17-.74-.75-2.9-2.32-5.51-4.55-7.53-1.1-1-2.33-1.83-3.67-2.48-.45-.22-.91-.41-1.38-.58-.23-.08-.47-.16-.71-.24-1.47-.46-3.01-.69-4.57-.69m-17.24,30.79c-.15,0-.3-.01-.45-.03-.8-.12-1.51-.54-1.99-1.19-1-1.34-.72-3.25,.62-4.24,1.34-1,3.25-.72,4.24,.62,.48,.65,.68,1.45,.57,2.25-.12,.8-.54,1.51-1.19,1.99-.53,.39-1.16,.6-1.8,.6m0-5.88c-.59,0-1.19,.18-1.7,.56-1.26,.94-1.53,2.73-.59,3.99,.45,.61,1.12,1.01,1.87,1.12s1.51-.08,2.12-.53,1.01-1.12,1.12-1.87-.08-1.51-.53-2.12c-.56-.75-1.42-1.15-2.29-1.15m38.33-1.96c-.18,0-.36-.02-.53-.05-.8-.14-1.49-.58-1.96-1.25-.46-.66-.64-1.47-.5-2.27,.14-.8,.58-1.49,1.25-1.96,.66-.46,1.47-.64,2.27-.5,1.65,.29,2.75,1.87,2.46,3.51-.14,.8-.58,1.49-1.25,1.96-.52,.36-1.12,.55-1.73,.55m0-5.89c-.58,0-1.14,.18-1.63,.52-.62,.44-1.04,1.09-1.17,1.84s.04,1.51,.47,2.13c.44,.62,1.09,1.04,1.84,1.17s1.51-.03,2.13-.47c.62-.44,1.04-1.09,1.17-1.84s-.04-1.51-.47-2.13c-.44-.62-1.09-1.04-1.84-1.17-.17-.03-.34-.04-.5-.04m-42.13,2.12c-.74,0-1.45-.27-2.01-.77-.6-.54-.96-1.28-1.01-2.09-.1-1.67,1.18-3.11,2.85-3.2,1.68-.09,3.11,1.18,3.2,2.85,.1,1.67-1.18,3.11-2.85,3.2h-.18m0-5.89h-.17c-1.57,.09-2.77,1.44-2.68,3.01,.09,1.57,1.43,2.77,3.01,2.68,1.57-.09,2.77-1.44,2.68-3.01-.09-1.51-1.35-2.69-2.85-2.69m47.01,1.59l-25.88-25.88,3.93-3.93,10.94,1.77,.02,.02,13.16,13.16v.03l1.77,10.91-3.93,3.93h-.01Zm-25.63-25.89l25.63,25.63,3.74-3.74-1.74-10.79-13.1-13.1-10.79-1.74-3.74,3.74h0Zm-18.21,18.38c-.53,0-1.05-.14-1.51-.41-.7-.41-1.2-1.06-1.41-1.84s-.1-1.6,.3-2.3c.41-.7,1.06-1.2,1.84-1.41,.78-.21,1.6-.1,2.3,.31s1.2,1.06,1.41,1.84,.1,1.6-.3,2.3c-.41,.7-1.06,1.2-1.84,1.41-.26,.07-.53,.1-.79,.1m0-5.89c-.25,0-.5,.03-.74,.1-.74,.2-1.35,.67-1.73,1.33-.38,.66-.48,1.43-.29,2.16,.2,.74,.67,1.35,1.33,1.73s1.43,.48,2.16,.29c.74-.2,1.35-.67,1.73-1.33,.79-1.36,.32-3.11-1.04-3.9-.44-.26-.93-.39-1.42-.39m7.91-1.57c-1.04,0-2.06-.54-2.62-1.5-.85-1.44-.36-3.3,1.08-4.15,.7-.41,1.52-.52,2.3-.32,.78,.21,1.44,.7,1.85,1.4s.52,1.52,.32,2.3c-.2,.78-.7,1.44-1.4,1.85-.48,.28-1.01,.41-1.53,.41m0-5.89c-.5,0-.99,.13-1.44,.39-.66,.39-1.13,1-1.32,1.74s-.09,1.5,.3,2.16c.79,1.36,2.54,1.82,3.9,1.02,.66-.38,1.13-1,1.32-1.74s.09-1.51-.3-2.16c-.38-.66-1-1.13-1.74-1.32-.24-.06-.48-.09-.73-.09"/>
              <path class="cls-4" d="M211.1,151.61c-15.21,0-27.58-12.37-27.58-27.58,0-6.59,2.36-12.97,6.65-17.96,4.24-4.94,10.1-8.23,16.49-9.26h.04l3.84,3.68-.1,.06c-.83,.53-1.33,1.43-1.33,2.4,0,1.57,1.28,2.85,2.85,2.85,1.01,0,1.95-.55,2.46-1.43l.06-.1,5.95,5.71c1.67,1.11,3.12,2.5,4.31,4.14l3.99,3.83c.24,.37,.55,.67,.93,.89l8.81,8.46v.04c-1.67,13.83-13.43,24.26-27.38,24.26h.01Zm-4.46-54.6c-6.33,1.04-12.13,4.3-16.33,9.19-4.26,4.96-6.61,11.29-6.61,17.84,0,15.11,12.29,27.4,27.4,27.4,13.84,0,25.52-10.34,27.19-24.05l-8.73-8.38c-.38-.22-.71-.54-.97-.93l-3.98-3.82c-1.19-1.63-2.63-3.01-4.29-4.12l-5.8-5.57c-.56,.88-1.52,1.43-2.56,1.43-1.67,0-3.03-1.36-3.03-3.03,0-1,.49-1.92,1.32-2.49l-3.61-3.47h0Zm8.95,51.14c-1.37,0-2.62-.94-2.95-2.34-.19-.79-.05-1.6,.37-2.29,.43-.69,1.09-1.17,1.88-1.36,.79-.19,1.6-.05,2.29,.37,.69,.42,1.17,1.09,1.36,1.88,.39,1.63-.63,3.26-2.25,3.65-.23,.05-.47,.08-.7,.08h0Zm0-5.88c-.22,0-.44,.03-.66,.08-.74,.18-1.37,.63-1.77,1.28-.4,.65-.52,1.41-.35,2.16,.36,1.53,1.9,2.48,3.43,2.12s2.48-1.9,2.12-3.43c-.18-.74-.63-1.37-1.28-1.77-.46-.28-.97-.43-1.49-.43h0Zm-12.17,4.79c-.35,0-.7-.06-1.04-.18-.76-.28-1.37-.84-1.71-1.57-.34-.73-.38-1.56-.1-2.32,.57-1.57,2.32-2.38,3.89-1.81,1.57,.57,2.38,2.32,1.81,3.89-.28,.76-.83,1.37-1.57,1.71-.41,.19-.84,.28-1.28,.28h0Zm0-5.89c-.41,0-.82,.09-1.2,.27-.69,.32-1.21,.89-1.48,1.61-.26,.72-.23,1.49,.09,2.18,.32,.69,.89,1.21,1.61,1.48,.72,.26,1.49,.23,2.18-.09,.69-.32,1.22-.89,1.48-1.61,.54-1.48-.22-3.12-1.7-3.66-.32-.12-.65-.17-.98-.17h0Zm22.93,1.18c-.75,0-1.5-.27-2.08-.83-.59-.56-.93-1.31-.95-2.12s.27-1.58,.83-2.17c.56-.59,1.31-.93,2.12-.95,.81-.03,1.58,.27,2.17,.83s.93,1.31,.95,2.12-.27,1.58-.83,2.17c-.6,.63-1.4,.95-2.21,.95h0Zm0-5.88h-.08c-.76,.02-1.47,.34-1.99,.89s-.8,1.28-.78,2.04c.02,.76,.34,1.47,.89,1.99,1.14,1.08,2.95,1.03,4.03-.12,.52-.55,.8-1.28,.78-2.04-.02-.76-.34-1.47-.89-1.99-.53-.5-1.23-.78-1.96-.78h0Zm-15.25,3.11c-4.66,0-9.03-2.06-12-5.66-2.29-2.77-3.55-6.29-3.55-9.89,0-.53,.03-1.07,.08-1.59,.05-.51,.13-1.03,.24-1.54,.05-.25,.11-.51,.17-.75,.75-2.94,2.35-5.57,4.6-7.62,1.67-1.52,3.69-2.67,5.83-3.34,1.49-.46,3.05-.7,4.62-.7s3.13,.23,4.62,.7c.25,.08,.49,.16,.72,.24,.47,.17,.94,.37,1.39,.59,1.35,.65,2.6,1.49,3.71,2.51,2.26,2.05,3.85,4.69,4.6,7.62,.06,.25,.12,.5,.17,.75,.1,.51,.18,1.03,.24,1.54,.05,.53,.08,1.06,.08,1.59,0,3.6-1.26,7.12-3.55,9.89-2.97,3.6-7.34,5.66-11.99,5.66h.02Zm0-30.91c-1.56,0-3.1,.23-4.57,.69-2.12,.66-4.11,1.8-5.76,3.3-2.23,2.03-3.8,4.63-4.55,7.53-.06,.24-.12,.49-.17,.74-.1,.5-.18,1.02-.23,1.53-.05,.52-.08,1.04-.08,1.57,0,3.56,1.25,7.03,3.51,9.77,2.93,3.55,7.26,5.59,11.86,5.59s8.92-2.04,11.86-5.59c2.26-2.74,3.51-6.21,3.51-9.77,0-.52-.03-1.05-.08-1.57-.05-.51-.13-1.03-.23-1.53-.05-.25-.11-.5-.17-.74-.75-2.9-2.32-5.51-4.55-7.53-1.1-1-2.33-1.83-3.67-2.48-.45-.22-.91-.41-1.38-.58-.23-.08-.47-.16-.71-.24-1.47-.46-3.01-.69-4.57-.69h-.02Zm-17.24,30.79c-.15,0-.3-.01-.45-.03-.8-.12-1.51-.54-1.99-1.19-1-1.34-.72-3.25,.62-4.24,1.34-1,3.25-.72,4.24,.62,.48,.65,.68,1.45,.57,2.25-.12,.8-.54,1.51-1.19,1.99-.53,.39-1.16,.6-1.8,.6h0Zm0-5.88c-.59,0-1.19,.18-1.7,.56-1.26,.94-1.53,2.73-.59,3.99,.45,.61,1.12,1.01,1.87,1.12s1.51-.08,2.12-.53,1.01-1.12,1.12-1.87-.08-1.51-.53-2.12c-.56-.75-1.42-1.15-2.29-1.15h0Zm38.33-1.96c-.18,0-.36-.02-.53-.05-.8-.14-1.49-.58-1.96-1.25-.46-.66-.64-1.47-.5-2.27,.14-.8,.58-1.49,1.25-1.96,.66-.46,1.47-.64,2.27-.5,1.65,.29,2.75,1.87,2.46,3.51-.14,.8-.58,1.49-1.25,1.96-.52,.36-1.12,.55-1.73,.55h-.01Zm0-5.88c-.58,0-1.14,.18-1.63,.52-.62,.44-1.04,1.09-1.17,1.84s.04,1.51,.47,2.13c.44,.62,1.09,1.04,1.84,1.17s1.51-.03,2.13-.47c.62-.44,1.04-1.09,1.17-1.84s-.04-1.51-.47-2.13c-.44-.62-1.09-1.04-1.84-1.17-.17-.03-.34-.04-.5-.04h0Zm-42.13,2.11c-.74,0-1.45-.27-2.01-.77-.6-.54-.96-1.28-1.01-2.09-.1-1.67,1.18-3.11,2.85-3.2,1.68-.09,3.11,1.18,3.2,2.85,.1,1.67-1.18,3.11-2.85,3.2h-.18Zm0-5.88h-.17c-1.57,.09-2.77,1.44-2.68,3.01,.09,1.57,1.43,2.77,3.01,2.68,1.57-.09,2.77-1.44,2.68-3.01-.09-1.51-1.35-2.69-2.85-2.69h.01Zm47.01,1.6l-25.88-25.88,3.93-3.93,10.94,1.77,.02,.02,13.16,13.16v.03l1.77,10.91-3.93,3.93h-.01Zm-25.63-25.89l25.63,25.63,3.74-3.74-1.74-10.79-13.1-13.1-10.79-1.74-3.74,3.74h0Zm-18.21,18.38c-.53,0-1.05-.14-1.51-.41-.7-.41-1.2-1.06-1.41-1.84s-.1-1.6,.3-2.3c.41-.7,1.06-1.2,1.84-1.41,.78-.21,1.6-.1,2.3,.31s1.2,1.06,1.41,1.84,.1,1.6-.3,2.3c-.41,.7-1.06,1.2-1.84,1.41-.26,.07-.53,.1-.79,.1h0Zm0-5.89c-.25,0-.5,.03-.74,.1-.74,.2-1.35,.67-1.73,1.33-.38,.66-.48,1.43-.29,2.16,.2,.74,.67,1.35,1.33,1.73s1.43,.48,2.16,.29c.74-.2,1.35-.67,1.73-1.33,.79-1.36,.32-3.11-1.04-3.9-.44-.26-.93-.39-1.42-.39h0Zm7.91-1.56c-1.04,0-2.06-.54-2.62-1.5-.85-1.44-.36-3.3,1.08-4.15,.7-.41,1.52-.52,2.3-.32,.78,.21,1.44,.7,1.85,1.4s.52,1.52,.32,2.3c-.2,.78-.7,1.44-1.4,1.85-.48,.28-1.01,.41-1.53,.41h0Zm0-5.88c-.5,0-.99,.13-1.44,.39-.66,.39-1.13,1-1.32,1.74s-.09,1.5,.3,2.16c.79,1.36,2.54,1.82,3.9,1.02,.66-.38,1.13-1,1.32-1.74s.09-1.51-.3-2.16c-.38-.66-1-1.13-1.74-1.32-.24-.06-.48-.09-.73-.09h.01Z"/>
            </g>
          </g>
        </g>
        <g class="cls-6">
          <g class="cls-2">
            <g>
              <path class="cls-1" d="M118.72,151.61c-.43,0-.84-.23-1.07-.62-.33-.59-.12-1.33,.47-1.66l3.08-1.72c.34-.19,.76-.2,1.12-.04,.1,.05,.2,.11,.29,.19l.03,.03c.11,.11,.18,.19,.23,.29,.05,.09,.09,.2,.12,.33v.06c.03,.12,.04,.24,.02,.35-.04,.39-.27,.74-.61,.93l-3.08,1.73c-.19,.11-.39,.16-.6,.16m3.07-3.98c-.18,0-.35,.04-.5,.13l-3.08,1.72c-.5,.28-.68,.92-.4,1.42,.14,.24,.36,.42,.63,.49s.55,.04,.79-.09l3.08-1.72c.29-.16,.48-.46,.52-.8,.01-.09,0-.19-.01-.29v-.03c-.04-.13-.07-.22-.11-.3s-.1-.15-.19-.23l-.04-.03c-.08-.07-.16-.12-.24-.16-.14-.07-.3-.1-.45-.1"/>
              <path class="cls-4" d="M118.72,151.61c-.43,0-.84-.23-1.07-.62-.33-.59-.12-1.33,.47-1.66l3.08-1.72c.34-.19,.76-.2,1.12-.04,.1,.05,.2,.11,.29,.19l.03,.03c.11,.11,.18,.19,.23,.29,.05,.09,.09,.2,.12,.33v.06c.03,.12,.04,.24,.02,.35-.04,.39-.27,.74-.61,.93l-3.08,1.73c-.19,.11-.39,.16-.6,.16v-.03Zm3.07-3.98c-.18,0-.35,.04-.5,.13l-3.08,1.72c-.5,.28-.68,.92-.4,1.42,.14,.24,.36,.42,.63,.49s.55,.04,.79-.09l3.08-1.72c.29-.16,.48-.46,.52-.8,.01-.09,0-.19-.01-.29v-.03c-.04-.13-.07-.22-.11-.3s-.1-.15-.19-.23l-.04-.03c-.08-.07-.16-.12-.24-.16-.14-.07-.3-.1-.45-.1h0Z"/>
              <path class="cls-1" d="M121.04,153.36l-.91-1.62,2.62-1.47c.34-.19,.62-.48,.81-.83,.01-.02,.02-.05,.03-.07l.02-.04c.03-.07,.06-.15,.09-.22,.01-.04,.03-.08,.04-.12,.02-.09,.04-.18,.05-.28v-.04s0-.02,.01-.03v-.35s0-.05-.01-.07v-.04c-.02-.09-.04-.17-.06-.26-.01-.05-.02-.08-.03-.1-.05-.13-.09-.24-.15-.34l-.63-1.13,3.48-1.95,.47,.84c.38,.68,.57,1.45,.54,2.22-.05,1.46-.88,2.82-2.16,3.53l-4.2,2.36h-.01Zm-.66-1.54l.73,1.3,4.05-2.27c1.22-.69,2.01-1.98,2.07-3.38,.03-.74-.15-1.48-.51-2.13l-.38-.69-3.17,1.78,.54,.97c.06,.11,.11,.23,.16,.37,.01,.03,.02,.06,.03,.09,.03,.11,.05,.21,.07,.31v.03s.01,.05,.02,.08c.01,.13,.01,.26,0,.38v.08c-.01,.1-.03,.2-.06,.3-.01,.04-.03,.09-.04,.13-.03,.08-.06,.16-.09,.24l-.02,.04s-.03,.06-.04,.08c-.2,.38-.51,.7-.88,.91l-2.46,1.38h-.02Z"/>
              <path class="cls-4" d="M121.04,153.36l-.91-1.62,2.62-1.47c.34-.19,.62-.48,.81-.83,.01-.02,.02-.05,.03-.07l.02-.04c.03-.07,.06-.15,.09-.22,.01-.04,.03-.08,.04-.12,.02-.09,.04-.18,.05-.28v-.04s0-.02,.01-.03v-.35s0-.05-.01-.07v-.04c-.02-.09-.04-.17-.06-.26-.01-.05-.02-.08-.03-.1-.05-.13-.09-.24-.15-.34l-.63-1.13,3.48-1.95,.47,.84c.38,.68,.57,1.45,.54,2.22-.05,1.46-.88,2.82-2.16,3.53l-4.2,2.36h-.01Zm-.66-1.54l.73,1.3,4.05-2.27c1.22-.69,2.01-1.98,2.07-3.38,.03-.74-.15-1.48-.51-2.13l-.38-.69-3.17,1.78,.54,.97c.06,.11,.11,.23,.16,.37,.01,.03,.02,.06,.03,.09,.03,.11,.05,.21,.07,.31v.03s.01,.05,.02,.08c.01,.13,.01,.26,0,.38v.08c-.01,.1-.03,.2-.06,.3-.01,.04-.03,.09-.04,.13-.03,.08-.06,.16-.09,.24l-.02,.04s-.03,.06-.04,.08c-.2,.38-.51,.7-.88,.91l-2.46,1.38h-.02Z"/>
              <path class="cls-1" d="M115.78,149.97l-.27-.47,.1-.04c.08-.03,.16-.06,.22-.1,.25-.14,.44-.34,.54-.57,.1-.22,.1-.43,0-.6s-.28-.28-.51-.31c-.24-.03-.52,.03-.76,.17-.07,.04-.13,.08-.2,.14l-.08,.07-.44-.79,.1-.04c.08-.03,.16-.06,.22-.1,.25-.14,.44-.34,.54-.57,.1-.22,.1-.43,0-.6s-.28-.28-.51-.31c-.24-.03-.52,.03-.76,.17-.07,.04-.13,.08-.2,.14l-.08,.07-.44-.79,.1-.04c.08-.03,.16-.06,.22-.1,.5-.28,.75-.8,.54-1.17-.1-.17-.28-.28-.51-.31-.25-.03-.52,.03-.76,.17-.07,.04-.13,.08-.2,.14l-.08,.07-.44-.79,.1-.04c.08-.03,.16-.06,.22-.1,.5-.28,.75-.8,.54-1.16-.2-.36-.78-.43-1.28-.14-.06,.04-.13,.08-.2,.14l-.08,.07-.46-.82,10.44-5.86,4.83,8.62-10.44,5.86h0Zm0-.39l.07,.13,10.13-5.68-4.65-8.3-10.13,5.68,.27,.48s.09-.06,.14-.09c.59-.33,1.27-.23,1.52,.21,.25,.45-.02,1.08-.61,1.41-.05,.03-.1,.05-.15,.07l.24,.42s.09-.06,.14-.09c.28-.16,.59-.22,.88-.19,.29,.04,.52,.18,.65,.4,.25,.45-.02,1.08-.61,1.41-.05,.03-.1,.05-.15,.07l.24,.42s.09-.06,.14-.09c.28-.16,.6-.22,.88-.19,.29,.04,.52,.18,.65,.4,.12,.22,.13,.49,0,.76-.12,.26-.34,.49-.62,.65-.05,.03-.1,.05-.15,.07l.24,.42s.09-.06,.14-.09c.28-.16,.59-.22,.88-.19,.29,.04,.52,.18,.65,.4,.12,.22,.13,.49,0,.76-.12,.26-.34,.49-.62,.65-.05,.03-.1,.05-.15,.07m1.59-1.43s-.08,0-.12-.02c-.12-.03-.21-.11-.27-.21-.12-.22-.04-.49,.17-.61l7.34-4.12c.1-.06,.22-.07,.34-.04,.12,.03,.21,.11,.27,.21,.12,.22,.04,.49-.17,.61l-7.34,4.12c-.07,.04-.14,.06-.22,.06m7.34-4.83s-.09,.01-.13,.03l-7.34,4.12c-.13,.07-.18,.24-.1,.36,.04,.06,.09,.11,.16,.13,.07,.02,.14,.01,.2-.02l7.34-4.12c.13-.07,.17-.24,.1-.36-.03-.06-.09-.11-.16-.13-.02,0-.05-.01-.07-.01m-8.49,2.78s-.08,0-.12-.02c-.12-.03-.21-.11-.27-.21-.12-.22-.04-.49,.17-.61l7.34-4.12c.22-.12,.49-.04,.61,.17,.06,.1,.07,.22,.04,.34-.03,.12-.11,.21-.21,.27l-7.34,4.12c-.07,.04-.14,.06-.22,.06m7.34-4.83s-.09,.01-.13,.03l-7.34,4.12c-.06,.03-.11,.09-.13,.16-.02,.07-.01,.14,.02,.2s.09,.11,.16,.13c.07,.02,.14,.01,.2-.02l7.34-4.12c.06-.03,.11-.09,.13-.16,.02-.07,.01-.14-.02-.2-.05-.09-.14-.14-.23-.14m-8.49,2.78s-.08,0-.12-.02c-.12-.03-.21-.11-.27-.21-.12-.22-.04-.49,.17-.61l7.34-4.12c.22-.12,.49-.04,.61,.17,.06,.1,.07,.22,.04,.34s-.11,.21-.21,.27l-7.34,4.12c-.07,.04-.14,.06-.22,.06m7.34-4.83s-.09,.01-.13,.03l-7.34,4.12c-.13,.07-.18,.24-.1,.36,.04,.06,.09,.11,.16,.13,.07,.02,.14,.01,.2-.02l7.34-4.12c.06-.03,.11-.09,.13-.16,.02-.07,.01-.14-.02-.2-.05-.09-.14-.14-.23-.14m-8.49,2.78c-.16,0-.31-.08-.39-.23-.06-.1-.07-.22-.04-.34,.03-.12,.11-.21,.21-.27l7.34-4.12c.1-.06,.22-.07,.34-.04,.12,.03,.21,.11,.27,.21,.12,.22,.04,.49-.17,.61l-7.34,4.12c-.07,.04-.14,.06-.22,.06m-.23-.32c.07,.13,.24,.17,.36,.1l7.34-4.12c.13-.07,.17-.24,.1-.36-.03-.06-.09-.11-.16-.13-.07-.02-.14-.01-.2,.02l-7.34,4.12c-.06,.03-.11,.09-.13,.16-.02,.07-.01,.14,.02,.2"/>
              <path class="cls-4" d="M115.78,149.97l-.27-.47,.1-.04c.08-.03,.16-.06,.22-.1,.25-.14,.44-.34,.54-.57,.1-.22,.1-.43,0-.6s-.28-.28-.51-.31c-.24-.03-.52,.03-.76,.17-.07,.04-.13,.08-.2,.14l-.08,.07-.44-.79,.1-.04c.08-.03,.16-.06,.22-.1,.25-.14,.44-.34,.54-.57,.1-.22,.1-.43,0-.6s-.28-.28-.51-.31c-.24-.03-.52,.03-.76,.17-.07,.04-.13,.08-.2,.14l-.08,.07-.44-.79,.1-.04c.08-.03,.16-.06,.22-.1,.5-.28,.75-.8,.54-1.17-.1-.17-.28-.28-.51-.31-.25-.03-.52,.03-.76,.17-.07,.04-.13,.08-.2,.14l-.08,.07-.44-.79,.1-.04c.08-.03,.16-.06,.22-.1,.5-.28,.75-.8,.54-1.16-.2-.36-.78-.43-1.28-.14-.06,.04-.13,.08-.2,.14l-.08,.07-.46-.82,10.44-5.86,4.83,8.62-10.44,5.86h0Zm0-.39l.07,.13,10.13-5.68-4.65-8.3-10.13,5.68,.27,.48s.09-.06,.14-.09c.59-.33,1.27-.23,1.52,.21,.25,.45-.02,1.08-.61,1.41-.05,.03-.1,.05-.15,.07l.24,.42s.09-.06,.14-.09c.28-.16,.59-.22,.88-.19,.29,.04,.52,.18,.65,.4,.25,.45-.02,1.08-.61,1.41-.05,.03-.1,.05-.15,.07l.24,.42s.09-.06,.14-.09c.28-.16,.6-.22,.88-.19,.29,.04,.52,.18,.65,.4,.12,.22,.13,.49,0,.76-.12,.26-.34,.49-.62,.65-.05,.03-.1,.05-.15,.07l.24,.42s.09-.06,.14-.09c.28-.16,.59-.22,.88-.19,.29,.04,.52,.18,.65,.4,.12,.22,.13,.49,0,.76-.12,.26-.34,.49-.62,.65-.05,.03-.1,.05-.15,.07l-.02,.03Zm1.59-1.43s-.08,0-.12-.02c-.12-.03-.21-.11-.27-.21-.12-.22-.04-.49,.17-.61l7.34-4.12c.1-.06,.22-.07,.34-.04,.12,.03,.21,.11,.27,.21,.12,.22,.04,.49-.17,.61l-7.34,4.12c-.07,.04-.14,.06-.22,.06h0Zm7.34-4.83s-.09,.01-.13,.03l-7.34,4.12c-.13,.07-.18,.24-.1,.36,.04,.06,.09,.11,.16,.13,.07,.02,.14,.01,.2-.02l7.34-4.12c.13-.07,.17-.24,.1-.36-.03-.06-.09-.11-.16-.13-.02,0-.05-.01-.07-.01Zm-8.49,2.78s-.08,0-.12-.02c-.12-.03-.21-.11-.27-.21-.12-.22-.04-.49,.17-.61l7.34-4.12c.22-.12,.49-.04,.61,.17,.06,.1,.07,.22,.04,.34-.03,.12-.11,.21-.21,.27l-7.34,4.12c-.07,.04-.14,.06-.22,.06Zm7.34-4.83s-.09,.01-.13,.03l-7.34,4.12c-.06,.03-.11,.09-.13,.16-.02,.07-.01,.14,.02,.2s.09,.11,.16,.13c.07,.02,.14,.01,.2-.02l7.34-4.12c.06-.03,.11-.09,.13-.16,.02-.07,.01-.14-.02-.2-.05-.09-.14-.14-.23-.14Zm-8.49,2.78s-.08,0-.12-.02c-.12-.03-.21-.11-.27-.21-.12-.22-.04-.49,.17-.61l7.34-4.12c.22-.12,.49-.04,.61,.17,.06,.1,.07,.22,.04,.34s-.11,.21-.21,.27l-7.34,4.12c-.07,.04-.14,.06-.22,.06Zm7.34-4.83s-.09,.01-.13,.03l-7.34,4.12c-.13,.07-.18,.24-.1,.36,.04,.06,.09,.11,.16,.13,.07,.02,.14,.01,.2-.02l7.34-4.12c.06-.03,.11-.09,.13-.16,.02-.07,.01-.14-.02-.2-.05-.09-.14-.14-.23-.14h-.01Zm-8.49,2.78c-.16,0-.31-.08-.39-.23-.06-.1-.07-.22-.04-.34,.03-.12,.11-.21,.21-.27l7.34-4.12c.1-.06,.22-.07,.34-.04,.12,.03,.21,.11,.27,.21,.12,.22,.04,.49-.17,.61l-7.34,4.12c-.07,.04-.14,.06-.22,.06Zm-.23-.32c.07,.13,.24,.17,.36,.1l7.34-4.12c.13-.07,.17-.24,.1-.36-.03-.06-.09-.11-.16-.13-.07-.02-.14-.01-.2,.02l-7.34,4.12c-.06,.03-.11,.09-.13,.16-.02,.07-.01,.14,.02,.2h.01Z"/>
              <path class="cls-1" d="M96.23,110.27l-2.92-5.22-1.66,.32-.72-1.29,5.27-2.96,.04,.08-.04-.08,3.6-2.02,.76,1.36-1.2,1.14,2.95,5.26-6.07,3.4h0Zm-2.83-5.41l2.9,5.17,5.76-3.23-2.93-5.23,1.2-1.14-.6-1.08-8.55,4.79,.57,1.01,1.66-.32v.03Z"/>
              <path class="cls-4" d="M96.23,110.27l-2.92-5.22-1.66,.32-.72-1.29,5.27-2.96,.04,.08-.04-.08,3.6-2.02,.76,1.36-1.2,1.14,2.95,5.26-6.07,3.4h0Zm-2.83-5.41l2.9,5.17,5.76-3.23-2.93-5.23,1.2-1.14-.6-1.08-8.55,4.79,.57,1.01,1.66-.32v.03Z"/>
              <path class="cls-1" d="M109.33,140.82l-1.56-2.79c-.62-1.11-.79-2.43-.47-3.66l-3,1.68-.04-.08-3.33-5.94,1.92-1.07-7.5-17.63,8.53-4.78,.05,.07,11.09,15.53,1.91-1.07,3.38,6.02-3,1.68c1.21,.37,2.25,1.2,2.87,2.31l1.56,2.78-.08,.04-12.32,6.91h-.01Zm-1.73-6.82l-.07,.22c-.38,1.24-.24,2.6,.4,3.73l1.47,2.63,12.08-6.77-1.47-2.63c-.63-1.13-1.72-1.96-2.97-2.28l-.22-.06,3.23-1.81-3.2-5.71-1.9,1.06-.05-.07-11.09-15.53-3.38,1.9-.04-.08,.04,.08-4.87,2.73,7.5,17.64-1.9,1.06,3.2,5.71,3.23-1.81h.01Zm-4.3-1.64l-.96-1.71,.08-.04,14.38-8.06,.96,1.71-.08,.04-14.38,8.06Zm-.71-1.64l.78,1.39,14.14-7.93-.78-1.39-14.14,7.93Z"/>
              <path class="cls-4" d="M109.33,140.82l-1.56-2.79c-.62-1.11-.79-2.43-.47-3.66l-3,1.68-.04-.08-3.33-5.94,1.92-1.07-7.5-17.63,8.53-4.78,.05,.07,11.09,15.53,1.91-1.07,3.38,6.02-3,1.68c1.21,.37,2.25,1.2,2.87,2.31l1.56,2.78-.08,.04-12.32,6.91h-.01Zm-1.73-6.82l-.07,.22c-.38,1.24-.24,2.6,.4,3.73l1.47,2.63,12.08-6.77-1.47-2.63c-.63-1.13-1.72-1.96-2.97-2.28l-.22-.06,3.23-1.81-3.2-5.71-1.9,1.06-.05-.07-11.09-15.53-3.38,1.9-.04-.08,.04,.08-4.87,2.73,7.5,17.64-1.9,1.06,3.2,5.71,3.23-1.81h.01Zm-4.3-1.64l-.96-1.71,.08-.04,14.38-8.06,.96,1.71-.08,.04-14.38,8.06Zm-.71-1.64l.78,1.39,14.14-7.93-.78-1.39-14.14,7.93Z"/>
            </g>
          </g>
        </g>
        <g class="cls-6">
          <g class="cls-13">
            <g>
              <path class="cls-1" d="M109.69,86.06l-3.39-1,.03-.09,6.44-21.6,3.39,1-.03,.09-6.44,21.6Zm-3.17-1.12l3.04,.9,6.36-21.34-3.04-.9-6.36,21.34Zm2.51-.26l-1.44-.42,1.17-3.97,1.44,.43-1.17,3.96h0Zm-1.21-.55l1.09,.32,1.07-3.62-1.09-.32-1.07,3.62Z"/>
              <path class="cls-4" d="M109.69,86.06l-3.39-1,.03-.09,6.44-21.6,3.39,1-.03,.09-6.44,21.6Zm-3.17-1.12l3.04,.9,6.36-21.34-3.04-.9-6.36,21.34Zm2.51-.26l-1.44-.42,1.17-3.97,1.44,.43-1.17,3.96h0Zm-1.21-.55l1.09,.32,1.07-3.62-1.09-.32-1.07,3.62Z"/>
              <path class="cls-1" d="M122.4,89.59l-.11-.04c-2.59-.96-11.4-3.08-11.49-3.1l-.09-.02,6.37-21.2,.09,.03c1.63,.54,11.53,3.34,11.63,3.37l.13,.04-.09,.11c-4.81,5.91-6.42,20.56-6.43,20.7v.12h-.01Zm-11.47-3.3c.94,.23,8.73,2.12,11.31,3.04,.16-1.39,1.82-14.84,6.37-20.58-1.16-.33-9.67-2.74-11.42-3.3l-6.26,20.83h0Zm10.11,1.38l-.11-.03-8.38-2.33,.03-.09s1-2.71,1.21-3.69l.02-.09,7.95,2.15-.02,.08s-.69,3.15-.7,3.89v.12h0Zm-8.26-2.49l8.08,2.25c.06-.83,.57-3.23,.68-3.72l-7.6-2.05c-.23,.95-.99,3.06-1.17,3.53m6.29-5.67c-.85,0-1.67-.45-2.09-1.25-.61-1.15-.18-2.59,.98-3.2,1.15-.61,2.59-.18,3.2,.97s.18,2.59-.98,3.2c-.35,.19-.73,.28-1.11,.28m-1.03-4.3c-1.06,.57-1.47,1.89-.9,2.96,.57,1.06,1.9,1.47,2.96,.9s1.47-1.89,.9-2.96c-.57-1.06-1.89-1.47-2.96-.9"/>
              <path class="cls-4" d="M122.4,89.59l-.11-.04c-2.59-.96-11.4-3.08-11.49-3.1l-.09-.02,6.37-21.2,.09,.03c1.63,.54,11.53,3.34,11.63,3.37l.13,.04-.09,.11c-4.81,5.91-6.42,20.56-6.43,20.7v.12h-.01Zm-11.47-3.3c.94,.23,8.73,2.12,11.31,3.04,.16-1.39,1.82-14.84,6.37-20.58-1.16-.33-9.67-2.74-11.42-3.3l-6.26,20.83h0Zm10.11,1.38l-.11-.03-8.38-2.33,.03-.09s1-2.71,1.21-3.69l.02-.09,7.95,2.15-.02,.08s-.69,3.15-.7,3.89v.12h0Zm-8.26-2.49l8.08,2.25c.06-.83,.57-3.23,.68-3.72l-7.6-2.05c-.23,.95-.99,3.06-1.17,3.53h0Zm6.29-5.68c-.85,0-1.67-.45-2.09-1.25-.61-1.15-.18-2.59,.98-3.2,1.15-.61,2.59-.18,3.2,.97s.18,2.59-.98,3.2c-.35,.19-.73,.28-1.11,.28Zm-1.03-4.3c-1.06,.57-1.47,1.89-.9,2.96,.57,1.06,1.9,1.47,2.96,.9s1.47-1.89,.9-2.96c-.57-1.06-1.89-1.47-2.96-.9Z"/>
              <path class="cls-1" d="M155.44,97.34l-5.45-1.89-2.78-5.72-22.04-7.91,1.44-5.07,.09,.02,22.69,5.56,6.23-3.59h.04l5.76,1.77-.87,2.56h-.07s-1.34-.08-2.85,.38c-1.39,.43-3.22,1.42-4.08,3.7-.69,1.83-.41,3.63,.81,5.34,.92,1.28,2.05,2.03,2.06,2.03l.06,.04-1.03,2.78h0Zm-5.32-2.03l5.21,1.8,.92-2.48c-.25-.17-1.23-.9-2.04-2.04-.87-1.21-1.71-3.15-.83-5.51,.88-2.35,2.77-3.37,4.2-3.81,1.34-.41,2.54-.41,2.84-.4l.77-2.25-5.55-1.69-6.23,3.59h-.04l-22.64-5.55-1.34,4.74,21.95,7.88,.02,.03,2.76,5.68h0Z"/>
              <path class="cls-4" d="M155.44,97.34l-5.45-1.89-2.78-5.72-22.04-7.91,1.44-5.07,.09,.02,22.69,5.56,6.23-3.59h.04l5.76,1.77-.87,2.56h-.07s-1.34-.08-2.85,.38c-1.39,.43-3.22,1.42-4.08,3.7-.69,1.83-.41,3.63,.81,5.34,.92,1.28,2.05,2.03,2.06,2.03l.06,.04-1.03,2.78h0Zm-5.32-2.03l5.21,1.8,.92-2.48c-.25-.17-1.23-.9-2.04-2.04-.87-1.21-1.71-3.15-.83-5.51,.88-2.35,2.77-3.37,4.2-3.81,1.34-.41,2.54-.41,2.84-.4l.77-2.25-5.55-1.69-6.23,3.59h-.04l-22.64-5.55-1.34,4.74,21.95,7.88,.02,.03,2.76,5.68h0Z"/>
              <path class="cls-1" d="M163.17,99.51l-.06-.02-5.63-1.49,.79-2.45h.07s1.4,.03,2.94-.52c1.42-.51,3.26-1.62,4-4.05,1.42-4.65-3.06-6.81-3.11-6.83l-.07-.03,.85-2.48,5.33,1.35v.07s0,1.83-.52,3.34c.16,.48,1.9,6.18-3.42,9.95-.04,.29-.31,2.04-1.14,3.12l-.04,.05h0Zm-5.45-1.64l5.38,1.42c.83-1.12,1.07-3,1.07-3.02v-.04l.04-.02c5.46-3.84,3.4-9.73,3.38-9.79v-.06c.48-1.32,.52-2.89,.52-3.24l-5.03-1.27-.75,2.17c.59,.31,4.49,2.54,3.13,7.01-.76,2.51-2.66,3.65-4.12,4.17-1.38,.49-2.63,.53-2.94,.53l-.69,2.14h0Z"/>
              <path class="cls-4" d="M163.17,99.51l-.06-.02-5.63-1.49,.79-2.45h.07s1.4,.03,2.94-.52c1.42-.51,3.26-1.62,4-4.05,1.42-4.65-3.06-6.81-3.11-6.83l-.07-.03,.85-2.48,5.33,1.35v.07s0,1.83-.52,3.34c.16,.48,1.9,6.18-3.42,9.95-.04,.29-.31,2.04-1.14,3.12l-.04,.05h0Zm-5.45-1.64l5.38,1.42c.83-1.12,1.07-3,1.07-3.02v-.04l.04-.02c5.46-3.84,3.4-9.73,3.38-9.79v-.06c.48-1.32,.52-2.89,.52-3.24l-5.03-1.27-.75,2.17c.59,.31,4.49,2.54,3.13,7.01-.76,2.51-2.66,3.65-4.12,4.17-1.38,.49-2.63,.53-2.94,.53l-.69,2.14h0Z"/>
              <path class="cls-1" d="M156.6,61.06l-21.61-6.72,1.06-3.37,21.61,6.72-1.06,3.37Zm-21.38-6.84l21.27,6.62,.95-3.03-21.27-6.62-.95,3.03Zm20.6,5.53l-3.95-1.24,.45-1.43,3.95,1.24-.45,1.43Zm-3.72-1.36l3.6,1.13,.34-1.09-3.6-1.13-.34,1.09Z"/>
              <path class="cls-4" d="M156.6,61.06l-21.61-6.72,1.06-3.37,21.61,6.72-1.06,3.37Zm-21.38-6.84l21.27,6.62,.95-3.03-21.27-6.62-.95,3.03Zm20.6,5.53l-3.95-1.24,.45-1.43,3.95,1.24-.45,1.43Zm-3.72-1.36l3.6,1.13,.34-1.09-3.6-1.13-.34,1.09Z"/>
              <path class="cls-1" d="M152.45,73.57l-.1-.05c-.13-.07-13.19-6.9-20.77-6.2h-.14l.04-.12c.03-.1,3.23-9.88,3.69-11.54l.03-.09,.09,.03,21.06,6.5-.03,.09c-.03,.09-3.19,8.58-3.83,11.26l-.03,.11h0Zm-19.74-6.47c7.35,0,18.43,5.61,19.62,6.22,.66-2.66,3.44-10.18,3.78-11.08l-20.79-6.42c-.51,1.77-3.25,10.17-3.63,11.32,.33-.03,.67-.04,1.02-.04m18.89,4.29l-.1-.06c-.61-.4-3.59-1.57-3.62-1.59l-.08-.03,.03-.08,2.62-7.72,.09,.03c.93,.37,3.71,1.04,3.74,1.05l.1,.02-2.78,8.37h0Zm-3.57-1.78c.47,.19,2.75,1.09,3.47,1.51l2.64-7.96c-.49-.12-2.66-.66-3.58-1l-2.53,7.45h0Zm-4.07-3.35c-.23,0-.46-.03-.69-.1-.61-.18-1.1-.59-1.4-1.15-.3-.56-.36-1.2-.18-1.8,.18-.61,.59-1.1,1.15-1.4,1.15-.61,2.59-.18,3.2,.97s.18,2.59-.98,3.2c-.35,.19-.73,.28-1.11,.28m0-4.55c-.35,0-.7,.08-1.02,.26-.52,.27-.89,.73-1.06,1.29s-.11,1.15,.16,1.67c.27,.52,.73,.89,1.29,1.06,.56,.17,1.15,.11,1.67-.16,1.06-.57,1.47-1.89,.9-2.96-.39-.74-1.15-1.16-1.93-1.16"/>
              <path class="cls-4" d="M152.45,73.57l-.1-.05c-.13-.07-13.19-6.9-20.77-6.2h-.14l.04-.12c.03-.1,3.23-9.88,3.69-11.54l.03-.09,.09,.03,21.06,6.5-.03,.09c-.03,.09-3.19,8.58-3.83,11.26l-.03,.11h0Zm-19.74-6.47c7.35,0,18.43,5.61,19.62,6.22,.66-2.66,3.44-10.18,3.78-11.08l-20.79-6.42c-.51,1.77-3.25,10.17-3.63,11.32,.33-.03,.67-.04,1.02-.04h0Zm18.89,4.29l-.1-.06c-.61-.4-3.59-1.57-3.62-1.59l-.08-.03,.03-.08,2.62-7.72,.09,.03c.93,.37,3.71,1.04,3.74,1.05l.1,.02-2.78,8.37h0Zm-3.57-1.78c.47,.19,2.75,1.09,3.47,1.51l2.64-7.96c-.49-.12-2.66-.66-3.58-1l-2.53,7.45h0Zm-4.07-3.35c-.23,0-.46-.03-.69-.1-.61-.18-1.1-.59-1.4-1.15-.3-.56-.36-1.2-.18-1.8,.18-.61,.59-1.1,1.15-1.4,1.15-.61,2.59-.18,3.2,.97s.18,2.59-.98,3.2c-.35,.19-.73,.28-1.11,.28h0Zm0-4.55c-.35,0-.7,.08-1.02,.26-.52,.27-.89,.73-1.06,1.29s-.11,1.15,.16,1.67c.27,.52,.73,.89,1.29,1.06,.56,.17,1.15,.11,1.67-.16,1.06-.57,1.47-1.89,.9-2.96-.39-.74-1.15-1.16-1.93-1.16h0Z"/>
              <path class="cls-1" d="M142.67,78.66l-5.9-1.44,.03-.09,2.64-7.2,.08,.03,4.93,1.61-.02,.08-1.77,7.02h.01Zm-5.66-1.58l5.53,1.35,1.7-6.77-4.69-1.53-2.54,6.94h0Z"/>
              <path class="cls-4" d="M142.67,78.66l-5.9-1.44,.03-.09,2.64-7.2,.08,.03,4.93,1.61-.02,.08-1.77,7.02h.01Zm-5.66-1.58l5.53,1.35,1.7-6.77-4.69-1.53-2.54,6.94h0Z"/>
              <path class="cls-1" d="M140.47,105.32l-2.88-.69v-.07s0-1.37-.54-2.85c-.74-1.97-2.08-3.19-3.98-3.65-2.38-.57-4.22,.41-5.35,1.32-1.23,1-1.9,2.14-1.91,2.15l-.03,.06-2.61-.7,1.77-5.8,6.46-3.17,1.87-5.1,6.75,2.42-1.26,5.01,3.2,5.49-1.47,5.57h-.02Zm-2.7-.82l2.57,.62,1.41-5.33-3.2-5.49v-.04l1.24-4.88-6.43-2.31-1.83,5-6.45,3.17-1.69,5.55,2.3,.62c.16-.25,.82-1.25,1.92-2.14,1.16-.94,3.06-1.94,5.51-1.36,2.45,.58,3.59,2.37,4.11,3.76,.49,1.31,.55,2.53,.55,2.83"/>
              <path class="cls-4" d="M140.47,105.32l-2.88-.69v-.07s0-1.37-.54-2.85c-.74-1.97-2.08-3.19-3.98-3.65-2.38-.57-4.22,.41-5.35,1.32-1.23,1-1.9,2.14-1.91,2.15l-.03,.06-2.61-.7,1.77-5.8,6.46-3.17,1.87-5.1,6.75,2.42-1.26,5.01,3.2,5.49-1.47,5.57h-.02Zm-2.7-.82l2.57,.62,1.41-5.33-3.2-5.49v-.04l1.24-4.88-6.43-2.31-1.83,5-6.45,3.17-1.69,5.55,2.3,.62c.16-.25,.82-1.25,1.92-2.14,1.16-.94,3.06-1.94,5.51-1.36,2.45,.58,3.59,2.37,4.11,3.76,.49,1.31,.55,2.53,.55,2.83h-.01Z"/>
              <path class="cls-1" d="M137.68,112.96c-1.3,0-2.75-.68-3-.8-6.1,2.32-9.86-2.3-10.17-2.7-1.55-.39-3.05-1.42-3.06-1.43l-.06-.04,1.85-5.18,2.53,.68v.08s-.72,4.97,3.93,6.39c2.43,.74,4.38-.17,5.59-1.07,1.32-.97,2.07-2.14,2.07-2.15l.04-.06,2.48,.71-1.92,5.56h-.06c-.07,0-.15,.01-.22,.01m-2.99-1l.04,.02s1.72,.86,3.1,.79l1.82-5.26-2.17-.62c-.17,.25-.9,1.27-2.08,2.14-1.24,.92-3.25,1.86-5.76,1.1-4.47-1.36-4.15-5.85-4.07-6.51l-2.22-.59-1.75,4.89c.29,.19,1.62,1.03,2.98,1.37h.03l.02,.03s3.79,5.04,10.01,2.65h.05Z"/>
              <path class="cls-4" d="M137.68,112.96c-1.3,0-2.75-.68-3-.8-6.1,2.32-9.86-2.3-10.17-2.7-1.55-.39-3.05-1.42-3.06-1.43l-.06-.04,1.85-5.18,2.53,.68v.08s-.72,4.97,3.93,6.39c2.43,.74,4.38-.17,5.59-1.07,1.32-.97,2.07-2.14,2.07-2.15l.04-.06,2.48,.71-1.92,5.56h-.06c-.07,0-.15,.01-.22,.01h0Zm-2.99-1l.04,.02s1.72,.86,3.1,.79l1.82-5.26-2.17-.62c-.17,.25-.9,1.27-2.08,2.14-1.24,.92-3.25,1.86-5.76,1.1-4.47-1.36-4.15-5.85-4.07-6.51l-2.22-.59-1.75,4.89c.29,.19,1.62,1.03,2.98,1.37h.03l.02,.03s3.79,5.04,10.01,2.65h.05Z"/>
            </g>
          </g>
        </g>
        <g class="cls-6">
          <g class="cls-10">
            <g>
              <path class="cls-1" d="M82.81,186.23c-.25,0-.51-.05-.75-.14-.52-.2-.93-.59-1.16-1.1-.23-.51-.24-1.08-.04-1.6,.2-.52,.59-.93,1.1-1.16,1.05-.47,2.29,0,2.76,1.06,.47,1.05,0,2.29-1.06,2.76-.27,.12-.56,.18-.85,.18m0-4c-.26,0-.52,.05-.77,.16-.47,.21-.82,.58-1.01,1.06-.18,.48-.17,1,.04,1.46,.43,.96,1.56,1.4,2.52,.97,.47-.21,.82-.58,1.01-1.06,.18-.48,.17-1-.04-1.46-.32-.71-1.02-1.13-1.75-1.13"/>
              <path class="cls-4" d="M82.81,186.23c-.25,0-.51-.05-.75-.14-.52-.2-.93-.59-1.16-1.1-.23-.51-.24-1.08-.04-1.6,.2-.52,.59-.93,1.1-1.16,1.05-.47,2.29,0,2.76,1.06,.47,1.05,0,2.29-1.06,2.76-.27,.12-.56,.18-.85,.18h0Zm0-4c-.26,0-.52,.05-.77,.16-.47,.21-.82,.58-1.01,1.06-.18,.48-.17,1,.04,1.46,.43,.96,1.56,1.4,2.52,.97,.47-.21,.82-.58,1.01-1.06,.18-.48,.17-1-.04-1.46-.32-.71-1.02-1.13-1.75-1.13h0Z"/>
              <path class="cls-1" d="M82.81,197.02c-1.56,0-3.12-.29-4.62-.86-3.21-1.23-5.75-3.64-7.14-6.78-2.89-6.49,.04-14.11,6.53-16.99,3.14-1.4,6.64-1.49,9.85-.25,3.21,1.23,5.75,3.64,7.15,6.78s1.49,6.64,.26,9.85c-1.23,3.21-3.64,5.75-6.78,7.15-1.67,.74-3.45,1.12-5.23,1.12m-.02-25.57c-1.72,0-3.47,.35-5.14,1.1-6.39,2.85-9.28,10.36-6.44,16.76,1.38,3.1,3.88,5.47,7.05,6.69,3.16,1.22,6.61,1.13,9.71-.25s5.47-3.88,6.69-7.04,1.13-6.61-.25-9.71c-2.1-4.72-6.75-7.53-11.61-7.53m.02,23.9c-1.36,0-2.72-.25-4.02-.75-2.79-1.07-5-3.17-6.22-5.91-1.22-2.73-1.3-5.78-.22-8.57s3.17-5,5.91-6.22,5.78-1.3,8.57-.22c2.79,1.07,5,3.17,6.22,5.91s1.3,5.78,.22,8.57c-1.07,2.79-3.17,5-5.91,6.22-1.46,.65-3,.97-4.55,.97m0-22.24c-1.52,0-3.04,.32-4.48,.96-2.69,1.2-4.75,3.37-5.81,6.12s-.98,5.74,.22,8.43c1.2,2.69,3.37,4.75,6.12,5.81s5.75,.98,8.43-.22c5.55-2.47,8.06-9,5.59-14.55-1.2-2.69-3.37-4.75-6.12-5.81-1.28-.49-2.62-.74-3.96-.74"/>
              <path class="cls-4" d="M82.81,197.02c-1.56,0-3.12-.29-4.62-.86-3.21-1.23-5.75-3.64-7.14-6.78-2.89-6.49,.04-14.11,6.53-16.99,3.14-1.4,6.64-1.49,9.85-.25,3.21,1.23,5.75,3.64,7.15,6.78s1.49,6.64,.26,9.85c-1.23,3.21-3.64,5.75-6.78,7.15-1.67,.74-3.45,1.12-5.23,1.12l-.02-.02Zm-.02-25.57c-1.72,0-3.47,.35-5.14,1.1-6.39,2.85-9.28,10.36-6.44,16.76,1.38,3.1,3.88,5.47,7.05,6.69,3.16,1.22,6.61,1.13,9.71-.25s5.47-3.88,6.69-7.04,1.13-6.61-.25-9.71c-2.1-4.72-6.75-7.53-11.61-7.53v-.02Zm0,23.9c-1.36,0-2.72-.25-4.02-.75-2.79-1.07-5-3.17-6.22-5.91-1.22-2.73-1.3-5.78-.22-8.57s3.17-5,5.91-6.22,5.78-1.3,8.57-.22c2.79,1.07,5,3.17,6.22,5.91s1.3,5.78,.22,8.57c-1.07,2.79-3.17,5-5.91,6.22-1.46,.65-3,.97-4.55,.97Zm0-22.24c-1.52,0-3.04,.32-4.48,.96-2.69,1.2-4.75,3.37-5.81,6.12s-.98,5.74,.22,8.43c1.2,2.69,3.37,4.75,6.12,5.81s5.75,.98,8.43-.22c5.55-2.47,8.06-9,5.59-14.55-1.2-2.69-3.37-4.75-6.12-5.81-1.28-.49-2.62-.74-3.96-.74h0Z"/>
              <path class="cls-1" d="M82.81,193.35c-1.11,0-2.23-.21-3.3-.62-2.3-.88-4.11-2.6-5.11-4.85-2.06-4.64,.03-10.09,4.67-12.15s10.09,.03,12.15,4.67c2.06,4.64-.03,10.09-4.67,12.15-1.2,.53-2.47,.8-3.74,.8m-.02-18.23c-1.22,0-2.47,.25-3.65,.78-4.55,2.02-6.6,7.37-4.58,11.91,.98,2.2,2.76,3.89,5.01,4.76,2.25,.86,4.7,.8,6.91-.18,2.2-.98,3.89-2.76,4.76-5.01,.86-2.25,.8-4.7-.18-6.9-1.49-3.36-4.8-5.36-8.26-5.36m-.92,16.54l-2.75-.79,1.13-3.95c-.38-.35-.68-.77-.89-1.24-.04-.09-.07-.18-.11-.27l-3.6,1.19-.5-2.82,4.04-.72c.14-.47,.38-.93,.7-1.31l-2.88-2.47,2.15-1.89,2.7,3.09c.41-.11,.83-.14,1.24-.11l.39-3.77,2.78,.69-.99,3.98c.26,.23,.49,.49,.68,.78l3.21-2.02,1.16,2.62-3.75,1.67c-.03,.69-.25,1.35-.64,1.93l3.1,2.18-1.97,2.08-2.99-2.82c-.55,.2-1.13,.27-1.71,.2l-.51,3.75v.02Zm-2.52-.91l2.38,.68,.51-3.73h.09c.59,.1,1.2,.03,1.77-.19l.05-.02,2.94,2.77,1.7-1.8-3.07-2.17,.05-.07c.41-.58,.63-1.25,.66-1.96v-.06l3.69-1.64-1.01-2.26-3.19,2-.05-.08c-.2-.32-.45-.61-.74-.85l-.04-.04,.98-3.92-2.4-.6-.39,3.74h-.09c-.44-.06-.89-.02-1.32,.1l-.05,.02-.04-.04-2.62-2.99-1.86,1.63,2.85,2.45-.06,.07c-.34,.4-.6,.87-.74,1.37l-.02,.05-3.97,.71,.44,2.43,3.57-1.18,.03,.09c.04,.11,.08,.23,.13,.34,.21,.47,.51,.88,.89,1.22l.04,.04-1.11,3.88h0Z"/>
              <path class="cls-4" d="M82.81,193.35c-1.11,0-2.23-.21-3.3-.62-2.3-.88-4.11-2.6-5.11-4.85-2.06-4.64,.03-10.09,4.67-12.15s10.09,.03,12.15,4.67c2.06,4.64-.03,10.09-4.67,12.15-1.2,.53-2.47,.8-3.74,.8Zm-.02-18.23c-1.22,0-2.47,.25-3.65,.78-4.55,2.02-6.6,7.37-4.58,11.91,.98,2.2,2.76,3.89,5.01,4.76,2.25,.86,4.7,.8,6.91-.18,2.2-.98,3.89-2.76,4.76-5.01,.86-2.25,.8-4.7-.18-6.9-1.49-3.36-4.8-5.36-8.26-5.36h0Zm-.92,16.54l-2.75-.79,1.13-3.95c-.38-.35-.68-.77-.89-1.24-.04-.09-.07-.18-.11-.27l-3.6,1.19-.5-2.82,4.04-.72c.14-.47,.38-.93,.7-1.31l-2.88-2.47,2.15-1.89,2.7,3.09c.41-.11,.83-.14,1.24-.11l.39-3.77,2.78,.69-.99,3.98c.26,.23,.49,.49,.68,.78l3.21-2.02,1.16,2.62-3.75,1.67c-.03,.69-.25,1.35-.64,1.93l3.1,2.18-1.97,2.08-2.99-2.82c-.55,.2-1.13,.27-1.71,.2l-.51,3.75v.02Zm-2.52-.91l2.38,.68,.51-3.73h.09c.59,.1,1.2,.03,1.77-.19l.05-.02,2.94,2.77,1.7-1.8-3.07-2.17,.05-.07c.41-.58,.63-1.25,.66-1.96v-.06l3.69-1.64-1.01-2.26-3.19,2-.05-.08c-.2-.32-.45-.61-.74-.85l-.04-.04,.98-3.92-2.4-.6-.39,3.74h-.09c-.44-.06-.89-.02-1.32,.1l-.05,.02-.04-.04-2.62-2.99-1.86,1.63,2.85,2.45-.06,.07c-.34,.4-.6,.87-.74,1.37l-.02,.05-3.97,.71,.44,2.43,3.57-1.18,.03,.09c.04,.11,.08,.23,.13,.34,.21,.47,.51,.88,.89,1.22l.04,.04-1.11,3.88h0Z"/>
              <path class="cls-1" d="M96.31,168.23l-.03-.06-8.13-18.27,.1-.03,9.26-2.89,.03,.07,8.95,20.12h-.12l-10.06,1.06h0Zm-7.91-18.22l8.02,18.03,9.81-1.02-8.82-19.82-9.01,2.82h0Zm5.61,5.66l-1.99-4.47,3.61-1.08,2.34,5.26-3.96,.29Zm-1.74-4.35l1.85,4.16,3.58-.26-2.17-4.88-3.26,.98h0Z"/>
              <path class="cls-4" d="M96.31,168.23l-.03-.06-8.13-18.27,.1-.03,9.26-2.89,.03,.07,8.95,20.12h-.12l-10.06,1.06h0Zm-7.91-18.22l8.02,18.03,9.81-1.02-8.82-19.82-9.01,2.82h0Zm5.61,5.66l-1.99-4.47,3.61-1.08,2.34,5.26-3.96,.29Zm-1.74-4.35l1.85,4.16,3.58-.26-2.17-4.88-3.26,.98h0Z"/>
              <path class="cls-1" d="M79.89,206.95c-3.43,0-6.87-.73-9.93-2.17-5.5-2.59-9.55-7.27-11.71-13.54-2.32-6.72-2.55-12.93-.66-18.45,1.5-4.38,4.34-8.36,8.43-11.82,6.92-5.85,20.55-9.89,20.68-9.93l.08-.02,.03,.07,7.15,16.07h-.14c-.12,0-12.02,.27-19.89,5.76-3.56,2.48-5.57,6.56-5.5,11.18,.08,4.86,2.51,9.44,6.36,11.95,3.6,2.34,8.06,2.91,12.23,1.56,4.23-1.37,7.67-4.57,9.2-8.55,3.16-8.22-3-16.21-7.33-18.38l-.35-.18h.39c.08,0,7.81,.21,11.54,9.68,1.71,4.33,1.49,9.32-.62,14.05-2.34,5.24-6.64,9.36-11.81,11.28-2.59,.97-5.37,1.44-8.16,1.44m6.79-55.71c-1.11,.33-13.92,4.28-20.54,9.88-4.07,3.44-6.88,7.39-8.37,11.74-1.88,5.48-1.66,11.65,.66,18.33,2.15,6.22,6.17,10.86,11.62,13.43,5.5,2.59,12.2,2.86,17.94,.72,5.12-1.91,9.39-5.99,11.71-11.19,2.09-4.68,2.31-9.62,.62-13.91-1.06-2.7-3.15-6.33-7.08-8.33-1.7-.86-3.17-1.12-3.87-1.2,4.35,2.46,10.14,10.32,7.04,18.4-1.55,4.04-5.03,7.27-9.31,8.66-4.23,1.37-8.75,.8-12.39-1.58-3.9-2.54-6.37-7.17-6.44-12.1-.07-4.68,1.96-8.81,5.57-11.33,7.46-5.2,18.51-5.73,19.85-5.78l-7.01-15.75h0Zm-26.5,39.35l-.23-.44c-.04-.08-4.28-8.17-.64-17.38,3.34-8.46,12.02-15.12,25.82-19.8l.08-.03,2.02,4.55-.12,.02c-.08,.01-7.74,1.34-14.85,6.01-4.18,2.74-7.35,6.07-9.44,9.91-2.61,4.8-3.52,10.4-2.7,16.66l.06,.49h0Zm24.92-37.4c-13.7,4.66-22.32,11.28-25.63,19.67-3.09,7.83-.45,14.83,.4,16.72-.7-6.07,.24-11.53,2.79-16.21,2.1-3.87,5.3-7.22,9.5-9.98,6.67-4.37,13.82-5.83,14.81-6.01l-1.86-4.19h-.01Z"/>
              <path class="cls-4" d="M79.89,206.95c-3.43,0-6.87-.73-9.93-2.17-5.5-2.59-9.55-7.27-11.71-13.54-2.32-6.72-2.55-12.93-.66-18.45,1.5-4.38,4.34-8.36,8.43-11.82,6.92-5.85,20.55-9.89,20.68-9.93l.08-.02,.03,.07,7.15,16.07h-.14c-.12,0-12.02,.27-19.89,5.76-3.56,2.48-5.57,6.56-5.5,11.18,.08,4.86,2.51,9.44,6.36,11.95,3.6,2.34,8.06,2.91,12.23,1.56,4.23-1.37,7.67-4.57,9.2-8.55,3.16-8.22-3-16.21-7.33-18.38l-.35-.18h.39c.08,0,7.81,.21,11.54,9.68,1.71,4.33,1.49,9.32-.62,14.05-2.34,5.24-6.64,9.36-11.81,11.28-2.59,.97-5.37,1.44-8.16,1.44h0Zm6.79-55.71c-1.11,.33-13.92,4.28-20.54,9.88-4.07,3.44-6.88,7.39-8.37,11.74-1.88,5.48-1.66,11.65,.66,18.33,2.15,6.22,6.17,10.86,11.62,13.43,5.5,2.59,12.2,2.86,17.94,.72,5.12-1.91,9.39-5.99,11.71-11.19,2.09-4.68,2.31-9.62,.62-13.91-1.06-2.7-3.15-6.33-7.08-8.33-1.7-.86-3.17-1.12-3.87-1.2,4.35,2.46,10.14,10.32,7.04,18.4-1.55,4.04-5.03,7.27-9.31,8.66-4.23,1.37-8.75,.8-12.39-1.58-3.9-2.54-6.37-7.17-6.44-12.1-.07-4.68,1.96-8.81,5.57-11.33,7.46-5.2,18.51-5.73,19.85-5.78l-7.01-15.75h0Zm-26.5,39.35l-.23-.44c-.04-.08-4.28-8.17-.64-17.38,3.34-8.46,12.02-15.12,25.82-19.8l.08-.03,2.02,4.55-.12,.02c-.08,.01-7.74,1.34-14.85,6.01-4.18,2.74-7.35,6.07-9.44,9.91-2.61,4.8-3.52,10.4-2.7,16.66l.06,.49h0Zm24.92-37.4c-13.7,4.66-22.32,11.28-25.63,19.67-3.09,7.83-.45,14.83,.4,16.72-.7-6.07,.24-11.53,2.79-16.21,2.1-3.87,5.3-7.22,9.5-9.98,6.67-4.37,13.82-5.83,14.81-6.01l-1.86-4.19h-.01Z"/>
            </g>
          </g>
        </g>
        <g class="cls-6">
          <g class="cls-14">
            <g>
              <path class="cls-1" d="M209.33,91.04c-.26,0-.53-.01-.79-.04-1.94-.21-3.68-1.16-4.91-2.68-1.23-1.52-1.79-3.42-1.58-5.37,.21-1.94,1.16-3.68,2.68-4.91,0-.01,.03-.02,.04-.03l.03-.02c1.32-1.04,2.97-1.59,4.64-1.57h.04c.22,0,.44,.02,.66,.04h.03c.23,.03,.45,.07,.65,.11,.02,0,.03,0,.05,.01h.04c.24,.06,.42,.11,.59,.16,.03,0,.05,.02,.08,.03,.02,0,.04,.02,.06,.02,.17,.06,.34,.12,.52,.19,.04,.02,.08,.04,.11,.05,.03,.01,.05,.03,.08,.04h.03c.14,.08,.28,.14,.41,.21,.05,.03,.1,.06,.15,.09,.03,.02,.06,.04,.09,.05l.08,.05c.1,.06,.2,.11,.3,.18,.07,.05,.14,.1,.2,.15l.18,.14c.06,.05,.13,.09,.19,.14,.09,.07,.18,.16,.26,.24l.07,.07s.05,.05,.08,.07c.04,.04,.09,.08,.13,.12,.17,.18,.34,.36,.5,.56,.16,.19,.3,.4,.44,.6,.03,.05,.06,.1,.09,.15,.02,.03,.03,.06,.05,.09l.05,.09c.06,.1,.12,.2,.18,.31,.04,.07,.07,.14,.1,.22l.09,.21c.04,.08,.07,.15,.1,.23,.04,.11,.08,.21,.11,.32l.06,.18c.02,.06,.04,.11,.06,.17,.04,.14,.07,.28,.1,.42v.05s.02,.06,.03,.09c0,.04,.02,.08,.03,.12,.03,.18,.05,.36,.07,.54v.06s0,.06,0,.09c.02,.18,.02,.38,.02,.61v.08c0,.21,0,.42-.04,.65v.04c-.2,1.96-1.15,3.72-2.68,4.95-1.31,1.06-2.91,1.62-4.58,1.62m-.02-14.43c-1.59,0-3.15,.54-4.41,1.53,0,.01-.03,.02-.04,.03,0,0-.02,.01-.03,.02-1.48,1.2-2.41,2.9-2.61,4.79s.34,3.75,1.54,5.23c2.47,3.06,6.96,3.54,10.02,1.07,1.49-1.2,2.42-2.92,2.61-4.83v-.04c.02-.23,.04-.43,.04-.64v-.08c0-.23,0-.42-.02-.6,0-.03,0-.05,0-.08,0-.02,0-.05,0-.07-.02-.18-.04-.36-.07-.53,0-.04-.02-.08-.03-.11,0-.03-.02-.06-.02-.09v-.05c-.04-.14-.07-.27-.11-.41,0-.05-.03-.1-.05-.16,0-.03-.02-.07-.03-.1l-.03-.09c-.03-.1-.07-.21-.11-.31-.03-.07-.07-.15-.1-.22l-.1-.21c-.03-.07-.06-.14-.09-.21-.05-.1-.11-.2-.17-.3l-.05-.09s-.04-.06-.06-.1c-.03-.05-.05-.09-.08-.14-.13-.2-.27-.4-.43-.59-.15-.19-.32-.37-.48-.54-.04-.04-.08-.08-.12-.11-.03-.02-.05-.05-.08-.07l-.07-.07c-.08-.08-.17-.16-.25-.23-.06-.05-.12-.09-.18-.14l-.19-.14c-.06-.05-.13-.1-.19-.14-.09-.06-.19-.12-.28-.17l-.08-.05s-.06-.04-.09-.06c-.05-.03-.09-.06-.14-.08-.13-.07-.27-.13-.4-.19h-.03s-.06-.04-.08-.06c-.03-.02-.07-.03-.1-.05-.17-.07-.34-.13-.51-.18-.02,0-.04-.02-.07-.02-.02,0-.05-.02-.07-.02-.16-.05-.34-.1-.57-.15h-.04s-.03-.02-.04-.02c-.2-.04-.41-.08-.64-.1h-.02c-.23-.03-.46-.04-.68-.05h-.12m-.15,10.62c-.12,0-.24,0-.36-.02-.9-.1-1.7-.53-2.27-1.23-1.17-1.45-.94-3.57,.51-4.74,.05-.04,.11-.07,.16-.11,.03-.02,.06-.03,.09-.05,.52-.35,1.13-.55,1.75-.57h.03c.2,0,.39,0,.57,.03,.03,0,.05,.01,.07,.02h.05c.19,.03,.33,.07,.47,.11,.05,.02,.1,.04,.14,.06l.12,.05c.1,.04,.21,.08,.31,.14,.09,.05,.16,.1,.24,.16l.06,.04s.05,.03,.08,.05c.05,.03,.1,.07,.15,.11,.17,.14,.33,.3,.47,.47s.26,.35,.36,.56c.03,.05,.05,.11,.07,.17,0,.03,.02,.06,.03,.09l.03,.07c.04,.08,.07,.17,.1,.26,.03,.11,.05,.22,.07,.33l.02,.12s.02,.1,.03,.15c.02,.14,.02,.29,0,.48v.13c0,.18-.04,.37-.09,.55v.04c-.16,.61-.48,1.16-.93,1.59-.03,.02-.05,.05-.07,.07-.04,.05-.09,.09-.14,.13-.61,.49-1.34,.75-2.11,.75m-.11-6.55c-.61,.02-1.18,.21-1.67,.54-.03,.02-.06,.04-.09,.06-.05,.03-.1,.06-.14,.09-1.37,1.11-1.58,3.12-.48,4.49,.54,.66,1.3,1.08,2.14,1.17,.85,.09,1.68-.15,2.34-.69,.04-.04,.08-.08,.12-.12,.03-.03,.05-.05,.08-.08,.43-.41,.73-.93,.88-1.51v-.04c.05-.18,.08-.35,.09-.52v-.57s0-.09-.02-.14l-.02-.13c-.02-.11-.04-.21-.06-.31-.02-.08-.06-.16-.09-.24l-.03-.07s-.02-.06-.04-.09c-.02-.05-.04-.1-.06-.15-.1-.19-.22-.37-.34-.53-.13-.16-.28-.31-.44-.45-.04-.03-.09-.06-.13-.09-.03-.02-.06-.04-.08-.05l-.06-.04c-.08-.05-.15-.1-.22-.15-.09-.05-.19-.09-.29-.13l-.05-.02s-.05-.02-.08-.03c-.04-.02-.08-.04-.13-.05-.12-.04-.26-.07-.44-.1-.02,0-.04,0-.06-.01-.02,0-.04,0-.06-.01-.17-.02-.35-.03-.53-.03h-.04Zm-13.97,2.85l-2.73-3.38,3.38-2.73-1.87-2.32c.05,.18,.07,.37,.05,.56-.03,.44-.24,.85-.58,1.13l-.03,.02c-.52,.42-1.2,.48-1.75,.22l.09,.14-.35-.3c-.11-.08-.21-.17-.3-.27l.05-.04c-1.28-2.18-1.55-5.65,1.44-9.12,3.51-4.07,4.96-6.1,4.82-8.17-.03-.44,.12-.87,.41-1.2s.7-.53,1.14-.56c.36-.03,.72,.07,1.03,.29h.02l.02,.03,.13,.3-.04-.03c.02,.08,.03,.16,.04,.24,.06,.95-.07,1.9-.41,2.9l6.35,7.87,3.51-2.84,2.73,3.38-.07,.06-17.09,13.8v.02Zm-2.47-3.36l2.5,3.1,16.88-13.63-2.5-3.1-3.51,2.83-.06-.07-6.47-8.02,.02-.05c.34-1,.47-1.94,.41-2.88,0-.14-.04-.27-.11-.43-.27-.18-.58-.26-.9-.24-.39,.03-.76,.2-1.02,.5-.26,.3-.39,.68-.37,1.07,.14,2.13-1.32,4.19-4.87,8.3-3.02,3.51-2.65,7.01-1.3,9.12h0c.53,.44,1.3,.45,1.86,0l.03-.03c.3-.26,.48-.62,.51-1.01s-.1-.78-.35-1.08c-.02-.02-.12-.15-.24-.37l.15-.1,2.7,3.35-3.38,2.73h.02Zm-4.75-8.43c-.24,0-.48-.05-.7-.16l.09,.14-.35-.29c-.11-.08-.21-.17-.3-.28h0l.05-.04c-1.28-2.18-1.55-5.65,1.44-9.12,3.51-4.07,4.96-6.1,4.82-8.17-.03-.44,.12-.87,.41-1.21,.29-.33,.7-.53,1.14-.56,.36-.03,.72,.07,1.04,.29l.02,.02v.03c.08,.18,.12,.35,.13,.51,.06,.95-.07,1.9-.41,2.9l1.67,2.06,.19-.19-.11,.35c-.06,.18-.08,.36-.07,.53,.14,2.13-1.32,4.19-4.87,8.3-.94,1.09-1.6,2.25-1.97,3.45h0l-.17-.05h0v-.04h0l-.46-.57c.05,.18,.06,.37,.05,.56-.03,.44-.24,.84-.58,1.13l-.04,.03c-.31,.25-.68,.37-1.04,.37m-.93-.51c.53,.43,1.3,.45,1.86,0l.03-.03c.3-.26,.48-.62,.51-1.01s-.09-.78-.35-1.08c0,0-.11-.13-.24-.37l.15-.1,1.11,1.37c.39-1.14,1.03-2.24,1.93-3.27,3.51-4.07,4.96-6.1,4.82-8.17,0-.18,0-.36,.06-.55l-1.76-2.18,.02-.05c.34-1,.47-1.95,.41-2.88,0-.14-.04-.28-.1-.43-.27-.18-.59-.26-.9-.24-.39,.03-.75,.2-1.02,.5-.26,.3-.39,.68-.37,1.07,.14,2.13-1.32,4.19-4.87,8.3-3.03,3.51-2.65,7.01-1.3,9.11h.01Zm-3.48-4.93c-.24,0-.48-.05-.7-.16l.09,.14-.35-.3c-.11-.08-.21-.17-.3-.28l.05-.04c-1.28-2.18-1.55-5.65,1.44-9.12,3.51-4.07,4.96-6.1,4.82-8.17-.03-.44,.12-.87,.41-1.2,.29-.33,.7-.53,1.14-.56,.37-.03,.72,.08,1.04,.29l.02,.02v.03c.08,.18,.12,.35,.13,.51,.06,.95-.07,1.9-.41,2.9l1.76,2.18v.05c-.07,.18-.09,.36-.08,.53,.14,2.13-1.32,4.19-4.87,8.3-.94,1.09-1.6,2.25-1.97,3.45l-.17-.05v-.04h0l-.46-.57c.05,.18,.06,.37,.05,.56-.03,.44-.24,.85-.58,1.13,0,.01-.02,.02-.04,.03-.31,.25-.68,.37-1.04,.37m-.93-.51c.53,.43,1.3,.45,1.86,0h0s.02-.02,.03-.03c.3-.26,.48-.62,.51-1.01s-.09-.78-.35-1.08c0,0-.11-.13-.24-.37l.15-.1,1.11,1.37c.39-1.14,1.03-2.24,1.93-3.27,3.51-4.07,4.96-6.1,4.82-8.17,0-.18,0-.37,.06-.55l-1.76-2.18,.02-.05c.34-1,.47-1.95,.41-2.88,0-.14-.04-.28-.1-.43-.27-.18-.59-.26-.9-.24-.39,.03-.76,.2-1.02,.5-.26,.3-.39,.68-.37,1.07,.14,2.13-1.32,4.19-4.87,8.3-3.02,3.51-2.65,7.01-1.3,9.12h.01Zm-3.48-4.94c-.24,0-.48-.05-.7-.16l.09,.14-.35-.3c-.11-.08-.21-.17-.3-.27h0l.05-.04c-1.28-2.18-1.55-5.66,1.44-9.12,3.51-4.07,4.96-6.1,4.82-8.17-.06-.91,.64-1.71,1.55-1.76,.37-.02,.72,.08,1.03,.29h.02l.02,.04,.12,.3-.03-.02c.02,.08,.03,.16,.04,.24,.06,.95-.07,1.9-.41,2.9l1.76,2.18v.05c-.07,.18-.09,.36-.08,.53,.14,2.13-1.32,4.19-4.87,8.3-.94,1.09-1.6,2.25-1.97,3.45h0l-.17-.05v-.04h0l-.46-.57c.05,.18,.07,.37,.05,.56-.03,.44-.24,.85-.58,1.13l-.04,.03c-.31,.25-.68,.37-1.04,.37m-.93-.51c.53,.43,1.3,.45,1.86,0l.03-.03c.3-.26,.48-.62,.51-1.01s-.09-.78-.35-1.08c-.02-.03-.12-.15-.24-.37l.15-.1,1.11,1.37c.39-1.14,1.03-2.24,1.93-3.27,3.51-4.07,4.96-6.1,4.82-8.17,0-.18,0-.37,.06-.55l-1.76-2.18,.02-.05c.34-1,.47-1.94,.41-2.88,0-.14-.04-.27-.11-.43-.27-.18-.58-.26-.9-.24-.81,.05-1.43,.76-1.38,1.57,.14,2.13-1.32,4.19-4.87,8.3-3.03,3.51-2.65,7.01-1.3,9.12h.01Zm-3.48-4.95c-.24,0-.48-.05-.7-.16l.1,.15-.36-.3c-.11-.08-.21-.17-.3-.27l.05-.04c-1.28-2.18-1.55-5.65,1.44-9.12,3.51-4.07,4.96-6.1,4.82-8.17-.06-.91,.64-1.7,1.55-1.76,.27-.02,.52,.03,.76,.14-.11-.17-.25-.31-.43-.43l.1-.15c.26,.17,.47,.41,.6,.69,0,.02,.02,.04,.02,.05v.03c.08,.18,.12,.35,.13,.51,.06,.95-.07,1.9-.41,2.9l1.76,2.18v.05c-.07,.18-.09,.36-.08,.53,.14,2.13-1.32,4.19-4.87,8.3-.94,1.09-1.6,2.25-1.97,3.45h0l-.17-.05h0v-.03h0l-.46-.57c.05,.18,.06,.37,.05,.56-.03,.44-.24,.85-.58,1.13,0,0-.02,.02-.03,.03-.31,.25-.68,.38-1.05,.38m-.93-.51c.53,.44,1.31,.45,1.86,0l.03-.03c.3-.26,.48-.62,.51-1.01s-.09-.78-.35-1.08c0,0-.11-.13-.24-.37l.15-.1,1.11,1.37c.39-1.14,1.03-2.24,1.93-3.28,3.51-4.07,4.96-6.1,4.82-8.17,0-.18,0-.36,.06-.55l-1.76-2.18,.02-.05c.34-1,.47-1.94,.41-2.88,0-.14-.04-.28-.1-.43-.27-.18-.59-.26-.9-.24-.81,.05-1.43,.76-1.38,1.57,.14,2.13-1.32,4.19-4.87,8.3-3.03,3.51-2.66,7.01-1.3,9.12h0Zm-1.27-6.29l-5.72-7.09-3.38,2.73-2.73-3.38,.07-.06,17.09-13.8,2.73,3.38-3.51,2.84,2.4,2.98v.05c-.07,.18-.09,.36-.08,.53,.14,2.13-1.32,4.19-4.87,8.3-.92,1.07-1.58,2.2-1.95,3.37l-.05,.16h0Zm-5.69-7.35l5.63,6.97c.39-1.13,1.04-2.23,1.93-3.27,3.51-4.07,4.96-6.1,4.82-8.17,0-.18,0-.37,.06-.55l-2.46-3.04,3.51-2.84-2.5-3.1-16.88,13.63,2.5,3.1,3.38-2.73h.01Zm-3.03-6.67c-2.14,0-4.25-.93-5.69-2.71-2.53-3.14-2.04-7.75,1.1-10.28,0-.01,.03-.02,.04-.03l.03-.02c1.52-1.2,3.41-1.74,5.33-1.52h.03c.24,.03,.45,.07,.66,.11,.02,0,.03,0,.05,.01h.04c.24,.06,.42,.11,.59,.16,.03,.01,.06,.02,.09,.03,.02,0,.04,.01,.06,.02,.17,.06,.34,.12,.51,.19,.04,.02,.08,.04,.12,.06,.03,.01,.05,.03,.08,.04l.05,.02c.13,.06,.26,.12,.39,.19,.05,.03,.1,.06,.15,.09,.03,.02,.06,.04,.09,.05l.09,.05c.1,.06,.19,.11,.29,.17,.07,.05,.14,.1,.21,.15l.18,.14c.06,.04,.13,.09,.19,.14,.09,.07,.17,.15,.26,.23l.08,.07s.05,.05,.08,.07c.04,.04,.09,.08,.13,.12,.18,.18,.34,.36,.5,.56,.16,.19,.3,.4,.44,.6,.03,.05,.06,.1,.09,.15,.02,.03,.03,.06,.05,.09l.05,.08c.06,.1,.12,.2,.18,.31,.04,.07,.07,.14,.1,.21l.1,.21c.04,.08,.07,.15,.1,.23,.04,.11,.08,.22,.11,.32l.03,.09s.02,.07,.03,.1c.02,.05,.04,.11,.05,.16,.04,.14,.07,.28,.1,.42v.06s.03,.06,.03,.08c0,.04,.02,.09,.03,.13,.03,.19,.06,.38,.07,.54v.06s0,.06,0,.09c.02,.18,.02,.38,.02,.61v.08c0,.21,0,.42-.04,.65v.04c-.2,1.96-1.15,3.71-2.68,4.95-1.35,1.09-2.97,1.62-4.58,1.62m-4.43-12.89s0,0-.02,.02c0,0-.02,.01-.03,.02-3.06,2.47-3.54,6.96-1.07,10.02,2.47,3.06,6.97,3.54,10.02,1.07,1.49-1.2,2.42-2.92,2.61-4.83v-.04c.02-.23,.04-.44,.04-.64v-.08c0-.23,0-.42-.03-.6,0-.03,0-.05,0-.07,0-.02,0-.05,0-.07-.02-.16-.04-.35-.07-.53,0-.04-.02-.08-.03-.12,0-.03-.02-.06-.02-.09v-.06c-.04-.13-.07-.27-.11-.4,0-.05-.03-.1-.05-.15,0-.03-.02-.07-.04-.1l-.03-.09c-.03-.1-.07-.21-.11-.31-.03-.08-.06-.15-.1-.22l-.1-.22c-.03-.07-.06-.13-.09-.2-.05-.1-.11-.2-.17-.3l-.05-.08s-.04-.06-.06-.1c-.03-.05-.05-.09-.08-.14-.13-.2-.27-.4-.43-.59-.15-.19-.31-.37-.48-.54-.04-.04-.08-.07-.12-.11-.03-.02-.06-.05-.08-.07l-.08-.08c-.08-.08-.16-.15-.25-.22-.06-.05-.12-.09-.18-.13l-.19-.14c-.06-.05-.13-.1-.2-.15-.09-.06-.18-.11-.28-.17l-.09-.05s-.06-.04-.09-.06c-.05-.03-.09-.06-.14-.08-.12-.07-.25-.12-.38-.18l-.05-.02s-.06-.03-.08-.04c-.04-.02-.07-.04-.11-.05-.16-.07-.33-.12-.5-.18-.02,0-.04-.02-.07-.02-.03-.01-.05-.02-.08-.03-.16-.05-.34-.1-.57-.15,0,0-.03,0-.04-.01h-.04c-.2-.04-.4-.07-.63-.1h-.02c-1.88-.22-3.72,.31-5.2,1.47h0l-.03,.02h.02Zm4.27,9.07c-.98,0-1.96-.43-2.63-1.25-.57-.7-.82-1.58-.73-2.48,.1-.89,.53-1.7,1.24-2.26,.05-.04,.1-.07,.16-.11,.03-.02,.06-.03,.09-.05,.52-.35,1.13-.55,1.75-.57h.03c.2,0,.39,0,.57,.03,.03,0,.05,0,.07,.01,.02,0,.03,0,.05,.01,.18,.03,.33,.07,.47,.11,.05,.02,.1,.04,.14,.06l.11,.05c.1,.04,.21,.08,.31,.14,.08,.05,.16,.1,.23,.15l.07,.05s.05,.04,.08,.05c.05,.03,.1,.07,.15,.11,.17,.14,.33,.3,.47,.47s.26,.35,.36,.55c.03,.06,.05,.11,.07,.17,0,.03,.02,.06,.03,.09l.03,.07c.04,.08,.07,.17,.1,.26,.03,.11,.05,.22,.07,.33v.05s.02,.05,.02,.08c0,.05,.02,.1,.03,.15,.02,.14,.02,.29,0,.48v.13c0,.18-.04,.37-.09,.55v.04c-.17,.61-.49,1.16-.94,1.59-.02,.02-.05,.05-.07,.07-.04,.05-.09,.09-.14,.13-.62,.5-1.37,.75-2.11,.75m-.1-6.55c-.61,.02-1.18,.21-1.67,.54-.03,.02-.06,.04-.09,.06-.05,.03-.1,.06-.14,.09-.66,.54-1.08,1.3-1.17,2.14-.09,.85,.15,1.68,.69,2.34,1.11,1.37,3.12,1.58,4.49,.48,.05-.04,.08-.08,.12-.12,.03-.03,.05-.05,.08-.08,.43-.41,.73-.93,.88-1.51v-.04c.05-.18,.08-.35,.09-.52v-.57s0-.09-.02-.13c0-.03,0-.06-.02-.08v-.05c-.03-.11-.04-.21-.07-.31-.02-.08-.06-.16-.1-.24l-.03-.07s-.02-.06-.04-.09c-.02-.05-.04-.1-.06-.15-.1-.19-.21-.37-.34-.53-.13-.16-.28-.31-.44-.45-.04-.03-.09-.06-.13-.09-.03-.02-.06-.04-.08-.05l-.07-.05c-.07-.05-.14-.1-.22-.14-.09-.05-.19-.09-.29-.13l-.12-.05s-.08-.04-.13-.05c-.12-.04-.26-.07-.44-.11-.02,0-.04,0-.06-.01-.02,0-.04,0-.06-.01-.17-.02-.35-.03-.53-.03h-.03Z"/>
              <path class="cls-4" d="M209.33,91.04c-.26,0-.53-.01-.79-.04-1.94-.21-3.68-1.16-4.91-2.68-1.23-1.52-1.79-3.42-1.58-5.37,.21-1.94,1.16-3.68,2.68-4.91,0-.01,.03-.02,.04-.03l.03-.02c1.32-1.04,2.97-1.59,4.64-1.57h.04c.22,0,.44,.02,.66,.04h.03c.23,.03,.45,.07,.65,.11,.02,0,.03,0,.05,.01h.04c.24,.06,.42,.11,.59,.16,.03,0,.05,.02,.08,.03,.02,0,.04,.02,.06,.02,.17,.06,.34,.12,.52,.19,.04,.02,.08,.04,.11,.05,.03,.01,.05,.03,.08,.04h.03c.14,.08,.28,.14,.41,.21,.05,.03,.1,.06,.15,.09,.03,.02,.06,.04,.09,.05l.08,.05c.1,.06,.2,.11,.3,.18,.07,.05,.14,.1,.2,.15l.18,.14c.06,.05,.13,.09,.19,.14,.09,.07,.18,.16,.26,.24l.07,.07s.05,.05,.08,.07c.04,.04,.09,.08,.13,.12,.17,.18,.34,.36,.5,.56,.16,.19,.3,.4,.44,.6,.03,.05,.06,.1,.09,.15,.02,.03,.03,.06,.05,.09l.05,.09c.06,.1,.12,.2,.18,.31,.04,.07,.07,.14,.1,.22l.09,.21c.04,.08,.07,.15,.1,.23,.04,.11,.08,.21,.11,.32l.06,.18c.02,.06,.04,.11,.06,.17,.04,.14,.07,.28,.1,.42v.05s.02,.06,.03,.09c0,.04,.02,.08,.03,.12,.03,.18,.05,.36,.07,.54v.06s0,.06,0,.09c.02,.18,.02,.38,.02,.61v.08c0,.21,0,.42-.04,.65v.04c-.2,1.96-1.15,3.72-2.68,4.95-1.31,1.06-2.91,1.62-4.58,1.62h.02Zm-.02-14.42c-1.59,0-3.15,.54-4.41,1.53,0,.01-.03,.02-.04,.03,0,0-.02,.01-.03,.02-1.48,1.2-2.41,2.9-2.61,4.79s.34,3.75,1.54,5.23c2.47,3.06,6.96,3.54,10.02,1.07,1.49-1.2,2.42-2.92,2.61-4.83v-.04c.02-.23,.04-.43,.04-.64v-.08c0-.23,0-.42-.02-.6,0-.03,0-.05,0-.08,0-.02,0-.05,0-.07-.02-.18-.04-.36-.07-.53,0-.04-.02-.08-.03-.11,0-.03-.02-.06-.02-.09v-.05c-.04-.14-.07-.27-.11-.41,0-.05-.03-.1-.05-.16,0-.03-.02-.07-.03-.1l-.03-.09c-.03-.1-.07-.21-.11-.31-.03-.07-.07-.15-.1-.22l-.1-.21c-.03-.07-.06-.14-.09-.21-.05-.1-.11-.2-.17-.3l-.05-.09s-.04-.06-.06-.1c-.03-.05-.05-.09-.08-.14-.13-.2-.27-.4-.43-.59-.15-.19-.32-.37-.48-.54-.04-.04-.08-.08-.12-.11-.03-.02-.05-.05-.08-.07l-.07-.07c-.08-.08-.17-.16-.25-.23-.06-.05-.12-.09-.18-.14l-.19-.14c-.06-.05-.13-.1-.19-.14-.09-.06-.19-.12-.28-.17l-.08-.05s-.06-.04-.09-.06c-.05-.03-.09-.06-.14-.08-.13-.07-.27-.13-.4-.19h-.03s-.06-.04-.08-.06c-.03-.02-.07-.03-.1-.05-.17-.07-.34-.13-.51-.18-.02,0-.04-.02-.07-.02-.02,0-.05-.02-.07-.02-.16-.05-.34-.1-.57-.15h-.04s-.03-.02-.04-.02c-.2-.04-.41-.08-.64-.1h-.02c-.23-.03-.46-.04-.68-.05h-.12l-.03,.02Zm-.15,10.62c-.12,0-.24,0-.36-.02-.9-.1-1.7-.53-2.27-1.23-1.17-1.45-.94-3.57,.51-4.74,.05-.04,.11-.07,.16-.11,.03-.02,.06-.03,.09-.05,.52-.35,1.13-.55,1.75-.57h.03c.2,0,.39,0,.57,.03,.03,0,.05,.01,.07,.02h.05c.19,.03,.33,.07,.47,.11,.05,.02,.1,.04,.14,.06l.12,.05c.1,.04,.21,.08,.31,.14,.09,.05,.16,.1,.24,.16l.06,.04s.05,.03,.08,.05c.05,.03,.1,.07,.15,.11,.17,.14,.33,.3,.47,.47s.26,.35,.36,.56c.03,.05,.05,.11,.07,.17,0,.03,.02,.06,.03,.09l.03,.07c.04,.08,.07,.17,.1,.26,.03,.11,.05,.22,.07,.33l.02,.12s.02,.1,.03,.15c.02,.14,.02,.29,0,.48v.13c0,.18-.04,.37-.09,.55v.04c-.16,.61-.48,1.16-.93,1.59-.03,.02-.05,.05-.07,.07-.04,.05-.09,.09-.14,.13-.61,.49-1.34,.75-2.11,.75h-.02Zm-.11-6.56c-.61,.02-1.18,.21-1.67,.54-.03,.02-.06,.04-.09,.06-.05,.03-.1,.06-.14,.09-1.37,1.11-1.58,3.12-.48,4.49,.54,.66,1.3,1.08,2.14,1.17,.85,.09,1.68-.15,2.34-.69,.04-.04,.08-.08,.12-.12,.03-.03,.05-.05,.08-.08,.43-.41,.73-.93,.88-1.51v-.04c.05-.18,.08-.35,.09-.52v-.57s0-.09-.02-.14l-.02-.13c-.02-.11-.04-.21-.06-.31-.02-.08-.06-.16-.09-.24l-.03-.07s-.02-.06-.04-.09c-.02-.05-.04-.1-.06-.15-.1-.19-.22-.37-.34-.53-.13-.16-.28-.31-.44-.45-.04-.03-.09-.06-.13-.09-.03-.02-.06-.04-.08-.05l-.06-.04c-.08-.05-.15-.1-.22-.15-.09-.05-.19-.09-.29-.13l-.05-.02s-.05-.02-.08-.03c-.04-.02-.08-.04-.13-.05-.12-.04-.26-.07-.44-.1-.02,0-.04,0-.06-.01-.02,0-.04,0-.06-.01-.17-.02-.35-.03-.53-.03h-.04Zm-13.97,2.85l-2.73-3.38,3.38-2.73-1.87-2.32c.05,.18,.07,.37,.05,.56-.03,.44-.24,.85-.58,1.13l-.03,.02c-.52,.42-1.2,.48-1.75,.22l.09,.14-.35-.3c-.11-.08-.21-.17-.3-.27l.05-.04c-1.28-2.18-1.55-5.65,1.44-9.12,3.51-4.07,4.96-6.1,4.82-8.17-.03-.44,.12-.87,.41-1.2s.7-.53,1.14-.56c.36-.03,.72,.07,1.03,.29h.02l.02,.03,.13,.3-.04-.03c.02,.08,.03,.16,.04,.24,.06,.95-.07,1.9-.41,2.9l6.35,7.87,3.51-2.84,2.73,3.38-.07,.06-17.09,13.8v.02Zm-2.47-3.36l2.5,3.1,16.88-13.63-2.5-3.1-3.51,2.83-.06-.07-6.47-8.02,.02-.05c.34-1,.47-1.94,.41-2.88,0-.14-.04-.27-.11-.43-.27-.18-.58-.26-.9-.24-.39,.03-.76,.2-1.02,.5-.26,.3-.39,.68-.37,1.07,.14,2.13-1.32,4.19-4.87,8.3-3.02,3.51-2.65,7.01-1.3,9.12h0c.53,.44,1.3,.45,1.86,0l.03-.03c.3-.26,.48-.62,.51-1.01s-.1-.78-.35-1.08c-.02-.02-.12-.15-.24-.37l.15-.1,2.7,3.35-3.38,2.73h.02Zm-4.75-8.43c-.24,0-.48-.05-.7-.16l.09,.14-.35-.29c-.11-.08-.21-.17-.3-.28h0l.05-.04c-1.28-2.18-1.55-5.65,1.44-9.12,3.51-4.07,4.96-6.1,4.82-8.17-.03-.44,.12-.87,.41-1.21,.29-.33,.7-.53,1.14-.56,.36-.03,.72,.07,1.04,.29l.02,.02v.03c.08,.18,.12,.35,.13,.51,.06,.95-.07,1.9-.41,2.9l1.67,2.06,.19-.19-.11,.35c-.06,.18-.08,.36-.07,.53,.14,2.13-1.32,4.19-4.87,8.3-.94,1.09-1.6,2.25-1.97,3.45h0l-.17-.05h0v-.04h0l-.46-.57c.05,.18,.06,.37,.05,.56-.03,.44-.24,.84-.58,1.13l-.04,.03c-.31,.25-.68,.37-1.04,.37h.02Zm-.93-.5c.53,.43,1.3,.45,1.86,0l.03-.03c.3-.26,.48-.62,.51-1.01s-.09-.78-.35-1.08c0,0-.11-.13-.24-.37l.15-.1,1.11,1.37c.39-1.14,1.03-2.24,1.93-3.27,3.51-4.07,4.96-6.1,4.82-8.17,0-.18,0-.36,.06-.55l-1.76-2.18,.02-.05c.34-1,.47-1.95,.41-2.88,0-.14-.04-.28-.1-.43-.27-.18-.59-.26-.9-.24-.39,.03-.75,.2-1.02,.5-.26,.3-.39,.68-.37,1.07,.14,2.13-1.32,4.19-4.87,8.3-3.03,3.51-2.65,7.01-1.3,9.11h.01Zm-3.48-4.93c-.24,0-.48-.05-.7-.16l.09,.14-.35-.3c-.11-.08-.21-.17-.3-.28l.05-.04c-1.28-2.18-1.55-5.65,1.44-9.12,3.51-4.07,4.96-6.1,4.82-8.17-.03-.44,.12-.87,.41-1.2,.29-.33,.7-.53,1.14-.56,.37-.03,.72,.08,1.04,.29l.02,.02v.03c.08,.18,.12,.35,.13,.51,.06,.95-.07,1.9-.41,2.9l1.76,2.18v.05c-.07,.18-.09,.36-.08,.53,.14,2.13-1.32,4.19-4.87,8.3-.94,1.09-1.6,2.25-1.97,3.45l-.17-.05v-.04h0l-.46-.57c.05,.18,.06,.37,.05,.56-.03,.44-.24,.85-.58,1.13,0,.01-.02,.02-.04,.03-.31,.25-.68,.37-1.04,.37h.02Zm-.93-.51c.53,.43,1.3,.45,1.86,0h0s.02-.02,.03-.03c.3-.26,.48-.62,.51-1.01s-.09-.78-.35-1.08c0,0-.11-.13-.24-.37l.15-.1,1.11,1.37c.39-1.14,1.03-2.24,1.93-3.27,3.51-4.07,4.96-6.1,4.82-8.17,0-.18,0-.37,.06-.55l-1.76-2.18,.02-.05c.34-1,.47-1.95,.41-2.88,0-.14-.04-.28-.1-.43-.27-.18-.59-.26-.9-.24-.39,.03-.76,.2-1.02,.5-.26,.3-.39,.68-.37,1.07,.14,2.13-1.32,4.19-4.87,8.3-3.02,3.51-2.65,7.01-1.3,9.12h.01Zm-3.48-4.94c-.24,0-.48-.05-.7-.16l.09,.14-.35-.3c-.11-.08-.21-.17-.3-.27h0l.05-.04c-1.28-2.18-1.55-5.66,1.44-9.12,3.51-4.07,4.96-6.1,4.82-8.17-.06-.91,.64-1.71,1.55-1.76,.37-.02,.72,.08,1.03,.29h.02l.02,.04,.12,.3-.03-.02c.02,.08,.03,.16,.04,.24,.06,.95-.07,1.9-.41,2.9l1.76,2.18v.05c-.07,.18-.09,.36-.08,.53,.14,2.13-1.32,4.19-4.87,8.3-.94,1.09-1.6,2.25-1.97,3.45h0l-.17-.05v-.04h0l-.46-.57c.05,.18,.07,.37,.05,.56-.03,.44-.24,.85-.58,1.13l-.04,.03c-.31,.25-.68,.37-1.04,.37h0Zm-.93-.52c.53,.43,1.3,.45,1.86,0l.03-.03c.3-.26,.48-.62,.51-1.01s-.09-.78-.35-1.08c-.02-.03-.12-.15-.24-.37l.15-.1,1.11,1.37c.39-1.14,1.03-2.24,1.93-3.27,3.51-4.07,4.96-6.1,4.82-8.17,0-.18,0-.37,.06-.55l-1.76-2.18,.02-.05c.34-1,.47-1.94,.41-2.88,0-.14-.04-.27-.11-.43-.27-.18-.58-.26-.9-.24-.81,.05-1.43,.76-1.38,1.57,.14,2.13-1.32,4.19-4.87,8.3-3.03,3.51-2.65,7.01-1.3,9.12h.01Zm-3.48-4.95c-.24,0-.48-.05-.7-.16l.1,.15-.36-.3c-.11-.08-.21-.17-.3-.27l.05-.04c-1.28-2.18-1.55-5.65,1.44-9.12,3.51-4.07,4.96-6.1,4.82-8.17-.06-.91,.64-1.7,1.55-1.76,.27-.02,.52,.03,.76,.14-.11-.17-.25-.31-.43-.43l.1-.15c.26,.17,.47,.41,.6,.69,0,.02,.02,.04,.02,.05v.03c.08,.18,.12,.35,.13,.51,.06,.95-.07,1.9-.41,2.9l1.76,2.18v.05c-.07,.18-.09,.36-.08,.53,.14,2.13-1.32,4.19-4.87,8.3-.94,1.09-1.6,2.25-1.97,3.45h0l-.17-.05s0,0,0,0v-.03h0l-.46-.57c.05,.18,.06,.37,.05,.56-.03,.44-.24,.85-.58,1.13,0,0-.02,.02-.03,.03-.31,.25-.68,.38-1.05,.38l.03-.03Zm-.93-.51c.53,.44,1.31,.45,1.86,0l.03-.03c.3-.26,.48-.62,.51-1.01s-.09-.78-.35-1.08c0,0-.11-.13-.24-.37l.15-.1,1.11,1.37c.39-1.14,1.03-2.24,1.93-3.28,3.51-4.07,4.96-6.1,4.82-8.17,0-.18,0-.36,.06-.55l-1.76-2.18,.02-.05c.34-1,.47-1.94,.41-2.88,0-.14-.04-.28-.1-.43-.27-.18-.59-.26-.9-.24-.81,.05-1.43,.76-1.38,1.57,.14,2.13-1.32,4.19-4.87,8.3-3.03,3.51-2.66,7.01-1.3,9.12h0Zm-1.27-6.29l-5.72-7.09-3.38,2.73-2.73-3.38,.07-.06,17.09-13.8,2.73,3.38-3.51,2.84,2.4,2.98v.05c-.07,.18-.09,.36-.08,.53,.14,2.13-1.32,4.19-4.87,8.3-.92,1.07-1.58,2.2-1.95,3.37l-.05,.16h0Zm-5.69-7.35l5.63,6.97c.39-1.13,1.04-2.23,1.93-3.27,3.51-4.07,4.96-6.1,4.82-8.17,0-.18,0-.37,.06-.55l-2.46-3.04,3.51-2.84-2.5-3.1-16.88,13.63,2.5,3.1,3.38-2.73h.01Zm-3.03-6.67c-2.14,0-4.25-.93-5.69-2.71-2.53-3.14-2.04-7.75,1.1-10.28,0-.01,.03-.02,.04-.03l.03-.02c1.52-1.2,3.41-1.74,5.33-1.52h.03c.24,.03,.45,.07,.66,.11,.02,0,.03,0,.05,.01h.04c.24,.06,.42,.11,.59,.16,.03,.01,.06,.02,.09,.03,.02,0,.04,.01,.06,.02,.17,.06,.34,.12,.51,.19,.04,.02,.08,.04,.12,.06,.03,.01,.05,.03,.08,.04l.05,.02c.13,.06,.26,.12,.39,.19,.05,.03,.1,.06,.15,.09,.03,.02,.06,.04,.09,.05l.09,.05c.1,.06,.19,.11,.29,.17,.07,.05,.14,.1,.21,.15l.18,.14c.06,.04,.13,.09,.19,.14,.09,.07,.17,.15,.26,.23l.08,.07s.05,.05,.08,.07c.04,.04,.09,.08,.13,.12,.18,.18,.34,.36,.5,.56,.16,.19,.3,.4,.44,.6,.03,.05,.06,.1,.09,.15,.02,.03,.03,.06,.05,.09l.05,.08c.06,.1,.12,.2,.18,.31,.04,.07,.07,.14,.1,.21l.1,.21c.04,.08,.07,.15,.1,.23,.04,.11,.08,.22,.11,.32l.03,.09s.02,.07,.03,.1c.02,.05,.04,.11,.05,.16,.04,.14,.07,.28,.1,.42v.06s.03,.06,.03,.08c0,.04,.02,.09,.03,.13,.03,.19,.06,.38,.07,.54v.06s0,.06,0,.09c.02,.18,.02,.38,.02,.61v.08c0,.21,0,.42-.04,.65v.04c-.2,1.96-1.15,3.71-2.68,4.95-1.35,1.09-2.97,1.62-4.58,1.62h-.02Zm-4.43-12.88s0,0-.02,.02c0,0-.02,.01-.03,.02-3.06,2.47-3.54,6.96-1.07,10.02,2.47,3.06,6.97,3.54,10.02,1.07,1.49-1.2,2.42-2.92,2.61-4.83v-.04c.02-.23,.04-.44,.04-.64v-.08c0-.23,0-.42-.03-.6,0-.03,0-.05,0-.07,0-.02,0-.05,0-.07-.02-.16-.04-.35-.07-.53,0-.04-.02-.08-.03-.12,0-.03-.02-.06-.02-.09v-.06c-.04-.13-.07-.27-.11-.4,0-.05-.03-.1-.05-.15,0-.03-.02-.07-.04-.1l-.03-.09c-.03-.1-.07-.21-.11-.31-.03-.08-.06-.15-.1-.22l-.1-.22c-.03-.07-.06-.13-.09-.2-.05-.1-.11-.2-.17-.3l-.05-.08s-.04-.06-.06-.1c-.03-.05-.05-.09-.08-.14-.13-.2-.27-.4-.43-.59-.15-.19-.31-.37-.48-.54-.04-.04-.08-.07-.12-.11-.03-.02-.06-.05-.08-.07l-.08-.08c-.08-.08-.16-.15-.25-.22-.06-.05-.12-.09-.18-.13l-.19-.14c-.06-.05-.13-.1-.2-.15-.09-.06-.18-.11-.28-.17l-.09-.05s-.06-.04-.09-.06c-.05-.03-.09-.06-.14-.08-.12-.07-.25-.12-.38-.18l-.05-.02s-.06-.03-.08-.04c-.04-.02-.07-.04-.11-.05-.16-.07-.33-.12-.5-.18-.02,0-.04-.02-.07-.02-.03-.01-.05-.02-.08-.03-.16-.05-.34-.1-.57-.15,0,0-.03,0-.04-.01h-.04c-.2-.04-.4-.07-.63-.1h-.02c-1.88-.22-3.72,.31-5.2,1.47h0l-.03,.02h.02Zm4.27,9.07c-.98,0-1.96-.43-2.63-1.25-.57-.7-.82-1.58-.73-2.48,.1-.89,.53-1.7,1.24-2.26,.05-.04,.1-.07,.16-.11,.03-.02,.06-.03,.09-.05,.52-.35,1.13-.55,1.75-.57h.03c.2,0,.39,0,.57,.03,.03,0,.05,0,.07,.01,.02,0,.03,0,.05,.01,.18,.03,.33,.07,.47,.11,.05,.02,.1,.04,.14,.06l.11,.05c.1,.04,.21,.08,.31,.14,.08,.05,.16,.1,.23,.15l.07,.05s.05,.04,.08,.05c.05,.03,.1,.07,.15,.11,.17,.14,.33,.3,.47,.47s.26,.35,.36,.55c.03,.06,.05,.11,.07,.17,0,.03,.02,.06,.03,.09l.03,.07c.04,.08,.07,.17,.1,.26,.03,.11,.05,.22,.07,.33v.05s.02,.05,.02,.08c0,.05,.02,.1,.03,.15,.02,.14,.02,.29,0,.48v.13c0,.18-.04,.37-.09,.55v.04c-.17,.61-.49,1.16-.94,1.59-.02,.02-.05,.05-.07,.07-.04,.05-.09,.09-.14,.13-.62,.5-1.37,.75-2.11,.75h0Zm-.1-6.56c-.61,.02-1.18,.21-1.67,.54-.03,.02-.06,.04-.09,.06-.05,.03-.1,.06-.14,.09-.66,.54-1.08,1.3-1.17,2.14-.09,.85,.15,1.68,.69,2.34,1.11,1.37,3.12,1.58,4.49,.48,.05-.04,.08-.08,.12-.12,.03-.03,.05-.05,.08-.08,.43-.41,.73-.93,.88-1.51v-.04c.05-.18,.08-.35,.09-.52v-.57s0-.09-.02-.13c0-.03,0-.06-.02-.08v-.05c-.03-.11-.04-.21-.07-.31-.02-.08-.06-.16-.1-.24l-.03-.07s-.02-.06-.04-.09c-.02-.05-.04-.1-.06-.15-.1-.19-.21-.37-.34-.53-.13-.16-.28-.31-.44-.45-.04-.03-.09-.06-.13-.09-.03-.02-.06-.04-.08-.05l-.07-.05c-.07-.05-.14-.1-.22-.14-.09-.05-.19-.09-.29-.13l-.12-.05s-.08-.04-.13-.05c-.12-.04-.26-.07-.44-.11-.02,0-.04,0-.06-.01-.02,0-.04,0-.06-.01-.17-.02-.35-.03-.53-.03h-.03Z"/>
            </g>
          </g>
        </g>
        <g class="cls-7">
          <g class="cls-3">
            <path class="cls-1" d="M59.86,148.24s-31.21,54.67,46.77,44.9l-11.71,22.28s-36.35,3-47.07-13.64c-9.78-15.19,12-53.53,12-53.53"/>
          </g>
        </g>
        <g class="cls-7">
          <g class="cls-8">
            <path class="cls-1" d="M237.14,101.02c11.4,29.09-17.72,43.73-50.94,36.65l17.55,34.46,55.32-29.47-21.93-41.64h0Z"/>
          </g>
        </g>
        <path class="cls-1" d="M0,260.23H232.39l-21.66-36.17c-7.5-12.28-22.36-19.55-36.85-19.55H100.65c-45.09,0-59.04-22.12-40.79-56.26L0,260.23Z"/>
        <path class="cls-1" d="M191.77,148.24h-26.29c-8.87,0-16.99,5.02-20.95,12.96l-17.07,36.62h89.09l24.23,43.75c6.03,11.47,17.92,18.66,30.88,18.66h49.33L237.14,101.01c7.14,17,8.33,48.03-45.37,47.23"/>
      </g>
      <g>
        <path class="cls-1" d="M352.95,119.4h-19.63c-4.66-.39-8.69-2.71-12.18-7.14-3.41-4.66-5.43-10.01-5.97-16.52-.16,1.16-.23,2.33-.23,3.34,0,7.99,2.25,14.74,7.22,20.33-7.53-.31-13.81-3.1-18.85-8.38-5.28-5.36-7.76-11.64-7.76-19.09v-8.69c0-7.68,2.71-14.12,8.15-19.4,5.2-5.36,11.71-8.07,19.39-8.07h10.4l19.48,18.16v45.46h-.02Zm-30.26-89.26c0,2.95-1.01,5.27-2.95,6.91-1.94,1.78-4.19,2.64-6.75,2.64-2.71,0-4.89-.85-6.83-2.64-1.94-1.63-2.87-3.88-2.87-6.91,0-5.98,4.42-9.62,9.7-9.62s9.7,3.65,9.7,9.62m.38,45.12c-2.25,0-4.03,.85-5.82,2.33-1.55,1.55-2.33,3.41-2.33,5.66v8.69c0,4.35,3.88,8.07,8.14,8.07h10.4V57.34l-2.87,17.92h-7.52Zm20.8-45.12c0,2.95-1.01,5.27-2.95,6.91-1.94,1.78-4.19,2.64-6.75,2.64-2.71,0-4.89-.85-6.83-2.64-1.94-1.63-2.87-3.88-2.87-6.91,0-5.98,4.42-9.62,9.7-9.62s9.7,3.65,9.7,9.62"/>
        <path class="cls-1" d="M405.07,127.47c0,5.67-2.02,10.48-6.13,14.51-3.96,4.11-8.85,6.13-14.51,6.13h-16.43c-1.9,0-3.43-1.54-3.43-3.43v-12.54c0-1.89,1.54-3.43,3.43-3.43h14.24c1.89,0,3.43-1.54,3.43-3.43V59.21c0-1.89,1.54-3.43,3.43-3.43h12.54c1.89,0,3.43,1.54,3.43,3.43V127.47h0Z"/>
        <path class="cls-1" d="M487.91,100v19.4h-46.7c-5.67,0-10.55-2.02-14.51-6.13-4.11-4.04-6.13-8.85-6.13-14.51V38.07c0-3.33,2.7-6.03,6.04-6.03h7.33c3.33,0,6.03,2.7,6.03,6.03v61.93h47.94Z"/>
        <path class="cls-1" d="M546.34,78.82c4.12,.24,8,2.09,11.56,5.51,3.1,3.41,5.35,7.22,6.83,11.79v3.88h15.52v19.4h-92.33v-19.4h57.42v-21.18h1Zm-2.25-23.04c5.67,0,10.4,2.1,14.51,6.05,3.96,4.03,6.13,8.84,6.13,14.51v17.15c-2.41-10.17-7.45-14.97-12.57-17.07-2.56-1.01-5.51-1.47-8.69-1.4h-33.59c-3.13,0-5.67-2.54-5.67-5.66v-7.91c0-3.13,2.54-5.67,5.67-5.67h34.21Zm1.32,89.77c0,2.95-1.01,5.27-2.95,6.9-1.94,1.79-4.19,2.64-6.75,2.64-2.71,0-4.89-.85-6.83-2.64-1.94-1.63-2.87-3.88-2.87-6.9,0-5.98,4.42-9.62,9.7-9.62s9.7,3.65,9.7,9.62"/>
        <path class="cls-1" d="M597.68,101.09c-.54,8.3-8.07,15.59-17.38,18.31h-.85v-19.4h18.23v1.09h0Zm38.72-1.09v19.4h-14.35c-4.12,0-7.76-1.08-10.94-3.18-3.18,2.1-6.83,3.18-10.94,3.18h-17.22c5.2-1.16,9.08-3.1,12.18-5.82,4.19-3.72,6.28-8.69,6.28-14.82V60.45c0-2.58,2.09-4.68,4.68-4.68h10.05c2.58,0,4.68,2.09,4.68,4.68v39.55h15.58Zm-25.37-69.87c0,2.95-1.01,5.27-2.95,6.91-1.94,1.78-4.19,2.64-6.75,2.64-2.71,0-4.89-.85-6.83-2.64-1.94-1.63-2.87-3.88-2.87-6.91,0-5.98,4.43-9.62,9.7-9.62s9.7,3.65,9.7,9.62m21.18,0c0,2.95-1.01,5.27-2.95,6.91-1.94,1.78-4.19,2.64-6.75,2.64-2.71,0-4.89-.85-6.83-2.64-1.94-1.63-2.87-3.88-2.87-6.91,0-5.98,4.42-9.62,9.7-9.62s9.7,3.65,9.7,9.62"/>
        <path class="cls-1" d="M653.83,101.09c-.54,8.3-8.07,15.59-17.38,18.31h-.85v-19.4h18.23v1.09h0Zm38.72-1.09v19.4h-14.35c-4.11,0-7.76-1.08-10.94-3.18-3.18,2.1-6.83,3.18-10.94,3.18h-17.23c5.2-1.16,9.08-3.1,12.18-5.82,4.19-3.72,6.28-8.69,6.28-14.82V37.36c0-2.94,2.38-5.32,5.32-5.32h8.75c2.94,0,5.32,2.38,5.32,5.32v62.64h15.61Z"/>
        <path class="cls-1" d="M709.99,101.09c-.54,8.3-8.07,15.6-17.38,18.31h-.85v-19.4h18.24v1.09h-.01Zm23.12-2.33c0,5.66-2.02,10.47-6.13,14.51-3.96,4.11-8.85,6.13-14.51,6.13h-17.22c5.2-1.16,9.08-3.1,12.18-5.82,4.42-3.96,6.52-9.08,6.28-15.52V37.94c0-3.26,2.64-5.91,5.91-5.91h7.59c3.26,0,5.91,2.64,5.91,5.91v60.82h-.01Z"/>
        <path class="cls-1" d="M871.7,126c0,5.9-2.09,10.55-6.13,14.66-4.12,4.11-9,6.13-14.67,6.13h-34.91v-.08l-1.24,.08c-7.76-.24-14.2-2.72-19.71-8.3-5.43-5.2-8.15-11.64-8.15-19.4v-13.86c0-2.89,2.34-5.23,5.23-5.23h9.17c2.89,0,5.23,2.34,5.23,5.23v13.86c0,2.25,.78,4.19,2.4,5.74,1.48,1.63,3.34,2.41,5.67,2.41h37.71v-7.84h-.23c-4.66-.39-8.69-2.71-12.18-7.14-3.41-4.66-5.43-10.01-5.97-16.52-.16,1.16-.23,2.33-.23,3.34,0,7.99,2.25,14.74,7.22,20.33-7.53-.31-13.81-3.1-18.85-8.38-5.28-5.36-7.76-11.64-7.76-19.09v-8.69c0-7.68,2.71-14.12,8.15-19.4,5.2-5.36,11.72-8.07,19.4-8.07h10.4l19.48,18.16v52.06h-.03Zm-28.47-95.86c0,2.95-1.01,5.27-2.95,6.91-1.94,1.78-4.19,2.64-6.75,2.64-2.71,0-4.89-.85-6.83-2.64-1.94-1.63-2.87-3.88-2.87-6.91,0-5.98,4.43-9.62,9.7-9.62s9.7,3.65,9.7,9.62m-1.4,45.12c-2.25,0-4.03,.85-5.82,2.33-1.55,1.55-2.33,3.41-2.33,5.66v8.69c0,4.35,3.88,8.07,8.15,8.07h10.4V57.34l-2.87,17.92h-7.53Zm22.58-45.12c0,2.95-1.01,5.27-2.95,6.91-1.94,1.78-4.19,2.64-6.75,2.64-2.71,0-4.89-.85-6.83-2.64-1.94-1.63-2.87-3.88-2.87-6.91,0-5.98,4.42-9.62,9.7-9.62s9.7,3.65,9.7,9.62"/>
        <path class="cls-1" d="M968.04,100v19.4h-60.21c-5.67,0-10.55-2.02-14.51-6.13-4.11-4.04-6.13-8.85-6.13-14.51V38.03c0-3.31,2.68-5.99,6-5.99h7.41c3.31,0,5.99,2.68,5.99,5.99v61.97h61.45Z"/>
        <path class="cls-1" d="M1014.52,119.4v.08h-10.4c-.39,0-.78,0-1.16-.08h-34.92v-19.4h9.62c-.7-2.56-1.09-5.27-1.09-7.99v-8.77c0-7.45,2.48-13.74,7.76-19.09,5.04-5.27,11.33-8.07,18.85-8.38-4.96,5.59-7.22,12.34-7.22,20.33,0,1.09,.08,2.17,.23,3.34,.54-6.52,2.56-11.87,5.97-16.53,3.49-4.42,7.53-6.75,12.18-7.14h12.97c3.68,0,6.66,2.98,6.66,6.66v50.85c0,3.38-2.74,6.11-6.11,6.11h-13.34Zm-10.4-44.22c-4.27,0-8.15,3.72-8.15,8.07v8.77c0,2.25,.78,4.12,2.33,5.67,1.55,1.47,3.18,2.25,5.27,2.33h8.07l2.87,17.93v-42.75h-10.4v-.02Zm15.3-45.04c0,2.95-1.01,5.27-2.95,6.91-1.94,1.78-4.19,2.64-6.75,2.64-2.71,0-4.89-.85-6.83-2.64-1.94-1.63-2.87-3.88-2.87-6.91,0-5.98,4.42-9.62,9.7-9.62s9.7,3.65,9.7,9.62"/>
        <path class="cls-1" d="M1058.56,16.79c2.79,1.63,5.43,3.34,7.91,3.34,.93,0,1.94-.16,2.87-1.01,.47-.43,.93-1.01,1.36-1.86,1-1.99,3.38-2.86,5.51-2.27l1.13,.31c2,.55,3.1,2.66,2.47,4.64-.69,2.18-1.65,4.4-3.03,6.32-2.25,3.03-5.43,5.28-9.86,5.28-3.49,0-6.52-1.79-9.31-3.34-2.87-1.55-5.51-3.26-7.99-3.26-.93,0-1.94,.08-2.87,.93-.46,.46-.92,1.09-1.35,1.96-.98,1.94-3.28,2.84-5.38,2.27l-1.25-.34c-2-.54-3.11-2.65-2.5-4.63,.69-2.21,1.66-4.47,3.04-6.39,2.09-3.03,5.27-5.2,9.85-5.2,3.41,0,6.52,1.71,9.39,3.26m-9,96.04V46.68c0-3.63,2.94-6.57,6.57-6.57h6.33c3.63,0,6.57,2.94,6.57,6.57V112.84c0,3.63-2.94,6.57-6.57,6.57h-6.33c-3.63,0-6.57-2.94-6.57-6.57"/>
        <path class="cls-1" d="M483.87,217.49v10.23h-24.09c-4.05,0-7.49-1.43-10.23-4.25-2.86-2.78-4.3-6.18-4.3-10.23v-4.58c0-3.93,1.31-7.24,4.09-10.06,2.66-2.78,5.97-4.26,9.94-4.42-2.62,2.94-3.81,6.5-3.81,10.72,0,.57,.04,1.15,.12,1.76,.29-3.44,1.35-6.26,3.15-8.71,1.84-2.33,3.97-3.56,6.42-3.76h8.12c1.23,0,2.23,1,2.23,2.23v21.09h8.34l.02-.02Zm-25.24-38.62c0,1.55-.53,2.78-1.55,3.64-1.02,.94-2.21,1.39-3.56,1.39-1.43,0-2.58-.45-3.6-1.39-1.02-.86-1.51-2.04-1.51-3.64,0-3.15,2.33-5.07,5.11-5.07s5.11,1.92,5.11,5.07m1.15,25.53c-2.25,0-4.3,1.97-4.3,4.25v4.58c0,1.19,.41,2.17,1.23,2.99,.94,.78,1.88,1.23,3.07,1.23h3.97l1.51,9.45v-22.5h-5.48Zm10.02-25.53c0,1.55-.53,2.78-1.55,3.64-1.02,.94-2.21,1.39-3.56,1.39-1.43,0-2.58-.45-3.6-1.39-1.02-.86-1.51-2.04-1.51-3.64,0-3.15,2.33-5.07,5.11-5.07s5.12,1.92,5.12,5.07"/>
        <path class="cls-1" d="M492.65,218.06c-.29,4.38-4.25,8.22-9.16,9.65v-10.23h9.16v.57h0Zm17.79-.56v10.23h-4.95c-2.17,0-4.09-.57-5.77-1.68-1.68,1.1-3.6,1.68-5.77,1.68h-9.08c2.74-.61,4.78-1.63,6.42-3.07,2.21-1.97,3.32-4.58,3.32-7.81v-20.61c0-1.13,.92-2.05,2.05-2.05h6.12c1.13,0,2.06,.92,2.06,2.05v21.26h5.6Zm-13.87,24.18c0,1.55-.53,2.78-1.55,3.64-1.02,.94-2.21,1.39-3.56,1.39-1.43,0-2.58-.45-3.6-1.39-1.02-.86-1.51-2.05-1.51-3.64,0-3.15,2.33-5.07,5.11-5.07s5.11,1.92,5.11,5.07m11.17,0c0,1.55-.53,2.78-1.55,3.64-1.03,.94-2.21,1.39-3.56,1.39-1.43,0-2.58-.45-3.6-1.39-1.02-.86-1.51-2.05-1.51-3.64,0-3.15,2.33-5.07,5.11-5.07s5.12,1.92,5.12,5.07"/>
        <path class="cls-1" d="M519.66,218.06c-.29,4.38-4.26,8.22-9.16,9.65h-.45v-10.23h9.62v.57h-.01Zm20.41-.56v10.23h-7.57c-2.17,0-4.09-.57-5.77-1.68-1.67,1.1-3.6,1.68-5.77,1.68h-9.08c2.74-.61,4.79-1.63,6.43-3.07,2.21-1.97,3.31-4.58,3.31-7.81v-36.57c0-1.2,.98-2.17,2.17-2.17h5.88c1.2,0,2.17,.97,2.17,2.17v37.22h8.23Z"/>
        <path class="cls-1" d="M558.62,196.29c1.31-.41,2.74-.61,4.25-.61h21.43c7.85,0,14.4,6.34,14.6,14.15-2.98-2.54-6.58-3.8-10.8-3.8-.61,0-1.14,.04-1.76,.08,6.87,.66,12.23,4.75,12.56,9.65v9.32c0,1.45-1.17,2.62-2.62,2.62h-56.61v-10.23h8.59v-21.19c0-1.17,.96-2.13,2.13-2.13h8.22v2.13h.01Zm4.25,9.75c-2.25,0-4.05,1.8-4.25,3.6v7.86h29.99v-7.16c0-2.33-2.05-4.29-4.3-4.29h-21.44Z"/>
        <path class="cls-1" d="M611.71,169.71c-1.43-.08-2.58,.33-3.35,1.23-.61,.61-1.02,1.48-1.23,2.58v-.87c0-3.84,3.11-6.95,6.95-6.95h3.73v4.01h-6.1Zm6.42,4.38v4.01h-10.96v-4.01h-.04v-.04c.61-1.96,2.01-3.44,3.76-3.56h.2v3.6h7.04Zm-11,50.94v-39.98c0-1.49,1.21-2.69,2.69-2.69h4.88c1.49,0,2.69,1.21,2.69,2.69v39.98c0,1.49-1.21,2.69-2.69,2.69h-4.88c-1.49,0-2.69-1.21-2.69-2.69"/>
        <path class="cls-1" d="M664.05,235.53c0,2.98-1.06,5.52-3.23,7.65-2.09,2.16-4.66,3.23-7.65,3.23h-7.27c-1.77,0-3.2-1.44-3.2-3.21v-3.82c0-1.77,1.43-3.21,3.2-3.21h4.72c1.77,0,3.2-1.44,3.2-3.2v-35.6c0-1.77,1.44-3.21,3.21-3.21h3.81c1.77,0,3.21,1.44,3.21,3.21v38.15h0Z"/>
        <path class="cls-1" d="M693.92,217.48v10.23h-10.8c-2.98,0-5.56-1.06-7.65-3.23-2.17-2.13-3.23-4.66-3.23-7.65v-35.77c0-1.64,1.33-2.97,2.97-2.97h4.28c1.64,0,2.97,1.33,2.97,2.97v36.42h11.46Z"/>
        <path class="cls-1" d="M702.69,218.06c-.29,4.38-4.25,8.22-9.16,9.65v-10.23h9.16v.57h0Zm17.79-.56v10.23h-4.95c-2.17,0-4.09-.57-5.77-1.68-1.68,1.1-3.6,1.68-5.77,1.68h-9.08c2.74-.61,4.79-1.63,6.42-3.07,2.21-1.97,3.32-4.58,3.32-7.81v-19.77c0-1.6,1.3-2.89,2.89-2.89h4.44c1.6,0,2.9,1.3,2.9,2.89v20.42h5.6Zm-13.87,24.18c0,1.55-.53,2.78-1.55,3.64-1.02,.94-2.21,1.39-3.56,1.39-1.43,0-2.58-.45-3.6-1.39-1.02-.86-1.51-2.05-1.51-3.64,0-3.15,2.33-5.07,5.11-5.07s5.11,1.92,5.11,5.07m11.17,0c0,1.55-.53,2.78-1.55,3.64-1.02,.94-2.21,1.39-3.56,1.39-1.43,0-2.58-.45-3.6-1.39-1.02-.86-1.51-2.05-1.51-3.64,0-3.15,2.33-5.07,5.11-5.07s5.12,1.92,5.12,5.07"/>
        <path class="cls-1" d="M756.7,220.47v4.26c0,1.65-1.34,2.98-2.98,2.98h-33.63v-10.23h8.55v-2c.66-2.46,1.88-4.38,3.56-6.14,1.8-1.84,3.81-2.82,6.02-2.9h.57v11.04h14.93c1.65,0,2.98,1.33,2.98,2.98m-16.41-16.03c-7.2-.49-10.51,4.09-11.66,9.66v-9c0-3.07,1.06-5.65,3.15-7.65,2.09-2.17,4.62-3.27,7.65-3.27h13.46c1.65,0,2.98,1.34,2.98,2.98v4.3c0,1.65-1.34,2.98-2.98,2.98h-12.6Zm7.57-25.57c0,1.55-.53,2.78-1.55,3.64-1.03,.94-2.21,1.39-3.56,1.39-1.43,0-2.58-.45-3.6-1.39-1.02-.86-1.51-2.04-1.51-3.64,0-3.15,2.33-5.07,5.11-5.07s5.12,1.92,5.12,5.07"/>
        <path class="cls-1" d="M809.79,193.31c2.9-.36,5.6,.94,7.57,3.07,1.97,2.13,3.23,5.07,3.23,7.85v9c-1.14-5.56-4.46-10.14-11.66-9.65l-9.9,1.43,5.24,12.47h2.05l6.38-11.66c3.15,.82,6.46,4.01,7.77,8.76l-1.67,2.9h10.06v10.23h-20.01c-1.1,0-2.01-.29-2.66-.61-.37-.21-.74-.41-1.06-.66-.61,.49-1.27,.82-2.21,1.07-.49,.12-1.02,.2-1.55,.2h-3.85c-1.1,.04-2.01,.41-2.7,1.23-.86,.82-1.27,1.8-1.27,2.99,0,1.27,.41,2.25,1.27,3.03,.78,.86,1.76,1.31,2.94,1.31h10.37c1.64,0,2.97,1.33,2.97,2.96v4.25c0,1.64-1.33,2.96-2.97,2.96h-10.11c-4.02,0-7.94-1.6-10.68-4.54-2.64-2.83-4.02-6.06-4.02-9.97,0-.86,.08-1.72,.25-2.62,3.03,4.25,7.2,6.58,12.52,6.99-2.25-.53-4.54-1.76-6.83-3.84-2.25-2.01-3.85-4.01-4.79-6.09,1.11-2.62,2.87-4.75,5.28-6.38,.61-.45,1.23-.82,1.88-1.14l.9-.61-5.11-12.07v-10.19l22.38-2.66h-.01Z"/>
        <path class="cls-1" d="M847.37,196.33c1.31-.41,2.74-.61,4.25-.61h21.44c7.85,0,14.4,6.34,14.6,14.15-2.99-2.54-6.59-3.81-10.8-3.81-.61,0-1.14,.04-1.76,.08,6.87,.66,12.23,4.75,12.56,9.66v1.67h8.22v10.23h-67.42v-10.23h8.55v-35.32c0-1.73,1.4-3.13,3.13-3.13h4.08c1.73,0,3.13,1.4,3.13,3.13v14.17h.02Zm4.25,9.75c-2.25,0-4.05,1.8-4.25,3.6v7.81h29.99v-7.12c0-2.33-2.05-4.29-4.29-4.29h-21.45Z"/>
        <path class="cls-1" d="M920.01,227.71v.04h-5.48c-.21,0-.41,0-.61-.04h-18.41v-10.23h5.07c-.37-1.35-.57-2.78-.57-4.21v-4.62c0-3.93,1.31-7.24,4.09-10.06,2.66-2.78,5.97-4.26,9.94-4.42-2.62,2.94-3.81,6.5-3.81,10.72,0,.57,.04,1.15,.12,1.76,.29-3.44,1.35-6.26,3.15-8.71,1.84-2.33,3.97-3.56,6.43-3.76h7.16c1.76,0,3.19,1.43,3.19,3.19v27.18c0,1.75-1.42,3.17-3.17,3.17h-7.1Zm-5.44-48.85c0,1.55-.53,2.78-1.56,3.64-1.02,.94-2.21,1.39-3.56,1.39-1.43,0-2.58-.45-3.6-1.39-1.02-.86-1.51-2.04-1.51-3.64,0-3.15,2.33-5.07,5.11-5.07s5.12,1.92,5.12,5.07m-.04,25.53c-2.25,0-4.3,1.97-4.3,4.25v4.62c0,1.19,.41,2.17,1.23,2.98,.82,.78,1.68,1.19,2.78,1.23h4.25l1.51,9.45v-22.54h-5.47Zm11.21-25.52c0,1.55-.53,2.78-1.55,3.64-1.02,.94-2.21,1.39-3.56,1.39-1.43,0-2.58-.45-3.6-1.39-1.02-.86-1.51-2.04-1.51-3.64,0-3.15,2.33-5.07,5.12-5.07s5.11,1.92,5.11,5.07"/>
      </g>
    </g>
  </g>
</svg>