<?xml version="1.0" encoding="UTF-8"?>
<svg id="Layer_1" data-name="Layer 1" xmlns="http://www.w3.org/2000/svg" xmlns:xlink="http://www.w3.org/1999/xlink" viewBox="0 0 1079.99 167.72">
  <defs>
    <style>
      .cls-1 {
        fill: #fff;
      }

      .cls-2 {
        clip-path: url(#clippath-2);
      }

      .cls-3 {
        stroke: #1d1d1b;
        stroke-miterlimit: 10;
        stroke-width: .36px;
      }

      .cls-3, .cls-4 {
        fill: none;
      }

      .cls-5 {
        clip-path: url(#clippath-6);
      }

      .cls-6 {
        opacity: .7;
      }

      .cls-7 {
        opacity: .4;
      }

      .cls-8 {
        clip-path: url(#clippath-7);
      }

      .cls-9 {
        clip-path: url(#clippath-1);
      }

      .cls-10 {
        clip-path: url(#clippath-4);
      }

      .cls-11 {
        opacity: .6;
      }

      .cls-12 {
        clip-path: url(#clippath);
      }

      .cls-13 {
        clip-path: url(#clippath-3);
      }

      .cls-14 {
        clip-path: url(#clippath-5);
      }
    </style>
    <clipPath id="clippath">
      <path class="cls-4" d="M85.69,7.94s-.09,.1-.13,.14c-.3,.33-.58,.67-.85,1.01-.07,.08-.14,.17-.2,.25-.88,1.13-1.68,2.37-2.38,3.71l-.19,.37-.13,.24-2.32,4.39-2.81,5.32-6.45,12.23-1.91,3.62-25.99,49.29-3.76,7.04h0s0,.01,0,.02h0s-.02,.03-.02,.04h0s0,.02,0,.03h0v.02s-.02,.02-.02,.03,0,.03-.02,.04c0,.01,0,.02-.02,.03,0,.01,0,.02-.02,.03l-.04,.06-.05,.09h0s0,.02,0,.03c0,.03-.02,.05-.04,.07,0,.03-.03,.06-.04,.08h0l-.04,.09v.02l-5.79,10.8L0,167.71H45.72l11.21-21.11c.07,.03,.12,.04,.12,.04l4.11-7.8,3.71-7.03,3.86-7.33,22.92-43.51c5.14-9.76,19.13-9.76,24.27,0l4.09,7.76,3.59,6.82,8.02,15.23,23.59,44.79c3.93,7.47,11.68,12.15,20.12,12.15h31.54l-39.91-75.77-7.17-13.62-6.95-13.2v-.02l-2.39-4.53-.1-.18v-.02l-.16-.29-.03-.05-.15-.29-.63-1.2-.09-.18-1.01-1.91-.04-.08-.05-.1-.13-.24-4.17-7.93-.18-.34-.19-.37-.1-.18v-.03l-.11-.18-.12-.23-.1-.18h0l-.1-.19-.56-1.06-.1-.19h0l-.09-.18-.29-.55-.09-.18-.08-.14-.1-.18-.64-1.21-.09-.18-13.15-24.98-.05-.09-.71-1.35-.05-.09-1.56-2.96s-.04-.07-.06-.11c-.01-.03-.03-.05-.04-.08-.28-.53-.58-1.03-.89-1.53-.01-.03-.03-.05-.05-.08-1.02-1.62-2.19-3.06-3.48-4.33-.03-.03-.05-.05-.08-.08-.38-.37-.76-.72-1.16-1.06-.03-.03-.05-.05-.08-.07-4.5-3.82-10.15-5.73-15.8-5.73-6.65,0-13.3,2.65-18.08,7.94"/>
    </clipPath>
    <clipPath id="clippath-1">
      <rect class="cls-4" x="118.09" y="60.23" width="37.4" height="37.66"/>
    </clipPath>
    <clipPath id="clippath-2">
      <rect class="cls-4" x="58.35" y="63.63" width="23.93" height="35.44"/>
    </clipPath>
    <clipPath id="clippath-3">
      <rect class="cls-4" x="68.28" y="32.62" width="40.35" height="40.36"/>
    </clipPath>
    <clipPath id="clippath-4">
      <rect class="cls-4" x="36.12" y="94.5" width="32.77" height="39.05"/>
    </clipPath>
    <clipPath id="clippath-5">
      <rect class="cls-4" x="100.61" y="12.66" width="39.17" height="46.19"/>
    </clipPath>
    <clipPath id="clippath-6">
      <rect class="cls-4" x="29.22" y="95.54" width="39.5" height="43.43"/>
    </clipPath>
    <clipPath id="clippath-7">
      <rect class="cls-4" x="119.99" y="65.1" width="46.96" height="45.83"/>
    </clipPath>
  </defs>
  <g id="Layer_1-2" data-name="Layer 1">
    <g>
      <g>
        <path class="cls-1" d="M379.39,128.8c.21,.14,2.96,5.14,8.25,14.99l12.82,23.35-.11,.08h-13.14c-.18,0-1.3-2-3.38-6l-.46-.53h-12.53l-1.28,.08-1.18-.08h-6.26v-.19l4.55-8.09h5.35l1.45-.08,1.47,.08h4.07v-.08c-4.66-8.69-7.14-13.23-7.44-13.62l-15.34,28.51h-13.17l-.19-.19,21.07-38.15,.08-.08h15.37Z"/>
        <path class="cls-1" d="M415.88,129.26h10.55l.19,.19v30.31h25.81v-30.31l.19-.19h10.55l.19,.19v30.04c0,2.93-1.27,5.25-3.8,6.96-1.18,.66-2.5,.99-3.96,.99h-32.12c-3.8,0-6.3-1.96-7.5-5.86l-.27-2.09v-30.04l.19-.19h-.02Z"/>
        <polygon class="cls-1" points="479.65 128.83 527.47 128.83 527.66 129.01 527.66 137.13 527.47 137.32 509.05 137.32 509.05 167.25 508.86 167.43 498.18 167.43 497.99 167.25 497.99 137.32 479.65 137.32 479.47 137.13 479.47 129.01 479.65 128.83"/>
        <path class="cls-1" d="M550.86,128.97h32.41c3.69,0,6.19,1.8,7.51,5.4,.3,1.01,.46,1.89,.46,2.65v22.64c0,2.95-1.28,5.3-3.83,7.05-1.21,.67-2.56,1-4.05,1h-32.57c-3.85,0-6.4-1.98-7.62-5.94l-.27-2.11v-22.64c0-2.9,1.25-5.21,3.75-6.94,1.24-.74,2.65-1.11,4.21-1.11m3.11,30.96h26.2v-22.44h-26.2v22.44Z"/>
        <path class="cls-1" d="M657.2,129.47h39.65c3.63,0,6.05,1.95,7.28,5.84,.13,.75,.24,1.2,.35,1.34v8.7l-.54,2.06c-1.35,3.43-3.69,5.14-6.99,5.14h-20.56l-7.55-7.55v-.08h24.68v-7.09h-25.57v.08l-.08,29.45-.11,.08h-10.58l-.19-.19v-37.59l.19-.19h.02Z"/>
        <path class="cls-1" d="M756.64,128.8c.21,.14,2.96,5.14,8.24,14.99l12.82,23.35-.11,.08h-13.15c-.18,0-1.3-2-3.37-6l-.46-.53h-12.53l-1.29,.08-1.18-.08h-6.26v-.19l4.55-8.09h5.35l1.45-.08,1.47,.08h4.07v-.08c-4.66-8.69-7.14-13.23-7.44-13.62l-15.34,28.51h-13.17l-.19-.19,21.07-38.15,.08-.08h15.39Z"/>
        <path class="cls-1" d="M793.12,128.83h40.35c3.62,0,6.05,1.92,7.28,5.76,.25,.68,.38,1.41,.38,2.19v7.58c0,2.75-1.16,5-3.48,6.74-1.29,.79-2.65,1.18-4.1,1.18h-5.83l14.86,15.07v.08h-14.67l-22.91-22.81v-.11h25.08v-7.2h-25.99v.08l-.11,29.95-.08,.08h-10.76l-.19-.19v-38.23l.19-.19-.02,.02Z"/>
        <polygon class="cls-1" points="858.13 128.83 905.94 128.83 906.13 129.01 906.13 137.13 905.94 137.32 887.53 137.32 887.53 167.25 887.34 167.43 876.66 167.43 876.47 167.25 876.47 137.32 858.13 137.32 857.94 137.13 857.94 129.01 858.13 128.83"/>
        <path class="cls-1" d="M928.97,129.04h33.95c2.12,0,3.97,1.06,5.54,3.18,.96,1.61,1.45,3.18,1.45,4.71v.26l-.19,.19h-36.76v6.98h29.13c3.82,0,6.34,1.97,7.55,5.89l.27,2.09v6.99c0,2.84-1.22,5.14-3.64,6.91-.95,.53-2.06,.9-3.35,1.09l-.08,.08h-33.79c-.18-.13-.81-.28-1.9-.46-1.8-.64-3.16-1.79-4.07-3.46-.73-1.61-1.1-2.87-1.1-3.8l.08-.11h36.87v-6.8h-29.13c-3.82,0-6.34-1.97-7.55-5.89l-.27-2.09v-7.9c0-2.89,1.27-5.22,3.8-6.99,1.21-.61,2.28-.91,3.19-.91"/>
        <path class="cls-1" d="M289.81,78.16v21.43h-19.86v-16.44h-17.32v16.44h-4.99c-2.09,0-4.03-.4-5.82-1.18-1.79-.78-3.36-1.84-4.7-3.17-1.34-1.34-2.39-2.9-3.18-4.69-.78-1.79-1.17-3.73-1.17-5.82V46.18c0-2.02,.39-3.94,1.17-5.77,.79-1.82,1.84-3.41,3.18-4.75s2.9-2.39,4.7-3.17c1.79-.79,3.73-1.17,5.82-1.17h27.29c2.02,0,3.95,.39,5.77,1.17,1.83,.79,3.41,1.84,4.74,3.17,1.34,1.35,2.4,2.93,3.18,4.75,.78,1.83,1.18,3.75,1.18,5.77v22.99c-1.31-2.16-2.65-3.82-4.01-5-1.37-1.17-2.84-2.01-4.4-2.49-1.56-.5-3.29-.77-5.19-.83-1.89-.06-3.97-.1-6.26-.1v-9.59h-17.32v12.13c2.02,0,4.34-.08,6.94-.25,2.61-.16,5.29-.24,8.03-.24s5.44,.19,8.12,.59c2.68,.38,5.06,1.13,7.15,2.25,2.09,1.1,3.76,2.65,5.04,4.64,1.27,2,1.91,4.62,1.91,7.88"/>
        <path class="cls-1" d="M366.12,31.39v19.87h-34.73c-2.02,0-3.95-.4-5.77-1.17-1.83-.79-3.42-1.85-4.79-3.18-1.37-1.34-2.45-2.9-3.23-4.69s-1.18-3.73-1.18-5.82v-5h49.7Zm-29.84,68.19h-4.89c-2.02,0-3.95-.4-5.77-1.18-1.83-.78-3.42-1.84-4.79-3.17-1.37-1.34-2.45-2.9-3.23-4.69s-1.18-3.73-1.18-5.82V45.3c1.31,2.15,2.65,3.82,4.01,4.99,1.37,1.17,2.84,2,4.4,2.5,1.56,.48,3.28,.76,5.14,.82,1.86,.07,3.96,.1,6.31,.1v45.89h0Zm29.84-25.06h-27.29v-18.1h27.29v18.1Z"/>
        <path class="cls-1" d="M449.77,78.16v21.43h-19.86v-16.44h-17.32v16.44h-4.99c-2.09,0-4.03-.4-5.82-1.18-1.79-.78-3.36-1.84-4.7-3.17-1.34-1.34-2.39-2.9-3.18-4.69-.78-1.79-1.17-3.73-1.17-5.82V46.18c0-2.02,.39-3.94,1.17-5.77,.79-1.82,1.84-3.41,3.18-4.75s2.9-2.39,4.7-3.17c1.79-.79,3.73-1.17,5.82-1.17h27.29c2.02,0,3.95,.39,5.77,1.17,1.83,.79,3.41,1.84,4.74,3.17,1.34,1.35,2.4,2.93,3.18,4.75,.78,1.83,1.18,3.75,1.18,5.77v22.99c-1.31-2.16-2.65-3.82-4.01-5-1.37-1.17-2.84-2.01-4.4-2.49-1.56-.5-3.29-.77-5.19-.83-1.89-.06-3.97-.1-6.26-.1v-9.59h-17.32v12.13c2.02,0,4.34-.08,6.94-.25,2.61-.16,5.29-.24,8.03-.24s5.44,.19,8.12,.59c2.68,.38,5.06,1.13,7.15,2.25,2.09,1.1,3.76,2.65,5.04,4.64,1.27,2,1.91,4.62,1.91,7.88"/>
        <path class="cls-1" d="M513.35,51.26h-17.31v34.34c0,3.25,.72,5.98,2.15,8.17,1.43,2.18,3.52,4.12,6.26,5.82h-13.4c-2.09,0-4.03-.4-5.82-1.18-1.79-.78-3.36-1.84-4.69-3.17s-2.4-2.9-3.18-4.69-1.18-3.73-1.18-5.82V46.28c0-2.02,.4-3.95,1.18-5.78s1.84-3.41,3.18-4.75,2.9-2.4,4.69-3.17c1.79-.79,3.73-1.18,5.82-1.18h27.3c2.02,0,3.94,.39,5.77,1.18,1.82,.78,3.4,1.84,4.74,3.17,1.34,1.34,2.4,2.92,3.18,4.75,.78,1.82,1.17,3.75,1.17,5.78v38.45c0,3.84-1.24,7.14-3.71,9.87l3.71,9.2h-22.5l-2.06-5c-3.26-1.11-5.77-2.98-7.53-5.63-1.76-2.64-2.64-5.62-2.64-8.95v-4.5h14.87v-28.46Z"/>
        <path class="cls-1" d="M656.29,51.16h-17.32v34.15c0,3.39,.69,6.19,2.06,8.41s3.49,4.17,6.36,5.87h-13.4c-2.09,0-4.03-.39-5.82-1.18-1.79-.78-3.36-1.84-4.69-3.17-1.34-1.34-2.4-2.9-3.18-4.69-.78-1.79-1.18-3.73-1.18-5.82V46.28c0-2.02,.4-3.95,1.18-5.78,.78-1.83,1.84-3.43,3.18-4.79,1.34-1.37,2.9-2.44,4.69-3.23s3.73-1.17,5.82-1.17h27.3c2.02,0,3.94,.39,5.77,1.16,1.83,.79,3.41,1.86,4.74,3.22,1.34,1.36,2.4,2.96,3.18,4.77,.79,1.82,1.18,3.74,1.18,5.75v7.4h-19.86v-2.44h0Zm19.86,33.55c0,2.09-.39,4.02-1.18,5.82-.78,1.79-1.84,3.36-3.18,4.69-1.34,1.34-2.92,2.4-4.74,3.17-1.82,.79-3.75,1.18-5.77,1.18h-5.48c-1.9,0-3.7-.41-5.43-1.23-1.73-.81-3.24-1.88-4.55-3.17-1.31-1.31-2.37-2.83-3.18-4.56-.81-1.72-1.22-3.53-1.22-5.42v-5.48h14.87v-3.03h-9.88v-18.1h29.74v26.12h0Z"/>
        <path class="cls-1" d="M731.03,99.59h-13.31c-2.09,0-4.02-.4-5.82-1.18-1.8-.78-3.36-1.84-4.7-3.17-1.34-1.34-2.4-2.9-3.18-4.69-.78-1.79-1.17-3.73-1.17-5.82V31.31h19.86v54c0,3.39,.67,6.19,2,8.41,1.34,2.22,3.44,4.17,6.31,5.87m21.42,0h-12.91c-1.89,0-3.7-.41-5.43-1.23-1.73-.81-3.24-1.88-4.55-3.17-1.3-1.31-2.36-2.83-3.17-4.56-.82-1.72-1.23-3.53-1.23-5.43v-5.48h27.29v19.87h0Z"/>
        <path class="cls-1" d="M798.73,85.49c0,3.33,.7,6.08,2.11,8.27,1.4,2.18,3.5,4.12,6.31,5.82h-13.4c-2.09,0-4.03-.39-5.83-1.18-1.79-.78-3.36-1.86-4.69-3.22-1.34-1.37-2.4-2.97-3.18-4.79-.78-1.83-1.18-3.75-1.18-5.77V46.17c0-2.02,.39-3.94,1.18-5.77,.78-1.82,1.84-3.41,3.18-4.75,1.34-1.34,2.9-2.39,4.69-3.17,1.79-.79,3.73-1.17,5.83-1.17h27.29c2.02,0,3.94,.39,5.77,1.17,1.82,.79,3.43,1.84,4.79,3.17,1.37,1.34,2.45,2.93,3.23,4.75,.78,1.83,1.18,3.75,1.18,5.77v38.45c0,3.06-.57,5.56-1.72,7.48-1.14,1.92-2.64,3.44-4.5,4.55s-3.98,1.88-6.36,2.3c-2.38,.43-4.81,.64-7.29,.64-2.16,0-4.15-.41-5.97-1.23-1.82-.81-3.41-1.92-4.74-3.32-1.34-1.41-2.38-3.04-3.13-4.9-.75-1.86-1.13-3.83-1.13-5.92v-4.5h14.97v-28.57h-17.42v34.34h.01Z"/>
        <path class="cls-1" d="M919.95,84.72c0,3.06-.57,5.55-1.71,7.47-1.15,1.93-2.64,3.45-4.5,4.56s-3.98,1.86-6.36,2.25-4.81,.59-7.29,.59c-2.15,0-4.14-.41-5.97-1.23-1.83-.81-3.41-1.91-4.74-3.27-1.34-1.37-2.36-2.98-3.08-4.84-.72-1.86-1.07-3.87-1.07-6.02v-4.5h14.87v-5.18h-14.87v-18.1h14.87v-5.19c-3.13,0-6.23,.1-9.29,.29-3.07,.19-5.97,.25-8.71,.15-2.74-.1-5.28-.42-7.63-.98-2.35-.55-4.37-1.56-6.07-3.03s-3.03-3.51-4.01-6.12-1.47-5.99-1.47-10.18h42.17c2.02,0,3.94,.39,5.77,1.18,1.83,.78,3.41,1.84,4.75,3.18s2.4,2.92,3.18,4.75c.78,1.82,1.17,3.75,1.17,5.77v11.74c0,2.61-.59,4.49-1.76,5.67-1.17,1.17-3.06,1.76-5.67,1.76,2.61,0,4.5,.59,5.67,1.76,1.18,1.17,1.76,3.07,1.76,5.67v11.84h-.01Zm-28.76,14.88h-13.4c-2.09,0-4.03-.4-5.82-1.18-1.79-.78-3.36-1.84-4.69-3.17-1.34-1.34-2.4-2.9-3.18-4.69-.78-1.79-1.18-3.73-1.18-5.82V45.3c1.31,2.15,2.65,3.81,4.01,4.99,1.37,1.17,2.84,2,4.4,2.5,1.56,.49,3.29,.76,5.19,.82,1.89,.07,3.98,.1,6.26,.1v31.6c0,3.39,.69,6.19,2.06,8.41s3.49,4.17,6.36,5.87"/>
        <path class="cls-1" d="M1003.69,78.16v21.43h-19.86v-16.44h-17.32v16.44h-4.99c-2.09,0-4.03-.4-5.82-1.18-1.79-.78-3.36-1.84-4.7-3.17-1.34-1.34-2.39-2.9-3.18-4.69-.78-1.79-1.17-3.73-1.17-5.82V46.18c0-2.02,.39-3.94,1.17-5.77,.79-1.82,1.84-3.41,3.18-4.75,1.34-1.34,2.9-2.39,4.7-3.17,1.79-.79,3.73-1.17,5.82-1.17h27.29c2.02,0,3.95,.39,5.77,1.17,1.83,.79,3.41,1.84,4.74,3.17,1.34,1.35,2.4,2.93,3.18,4.75,.78,1.83,1.18,3.75,1.18,5.77v22.99c-1.31-2.16-2.65-3.82-4.01-5-1.37-1.17-2.84-2.01-4.4-2.49-1.56-.5-3.29-.77-5.19-.83-1.89-.06-3.97-.1-6.26-.1v-9.59h-17.32v12.13c2.02,0,4.34-.08,6.94-.25,2.61-.16,5.29-.24,8.03-.24s5.44,.19,8.12,.59c2.68,.38,5.06,1.13,7.15,2.25,2.09,1.1,3.76,2.65,5.04,4.64,1.27,2,1.91,4.62,1.91,7.88"/>
        <path class="cls-1" d="M1058.58,99.59h-13.31c-2.09,0-4.02-.4-5.82-1.18-1.8-.78-3.36-1.84-4.7-3.17-1.34-1.34-2.4-2.9-3.18-4.69s-1.17-3.73-1.17-5.82V31.31h19.86v54c0,3.39,.67,6.19,2,8.41,1.34,2.22,3.44,4.17,6.31,5.87m21.42,0h-12.91c-1.89,0-3.7-.41-5.43-1.23-1.73-.81-3.24-1.88-4.55-3.17-1.3-1.31-2.36-2.83-3.17-4.56-.82-1.72-1.23-3.53-1.23-5.43v-5.48h27.29v19.87h0Z"/>
      </g>
      <g>
        <g class="cls-12">
          <rect class="cls-1" x="-8.81" y="-11.2" width="224.53" height="190.08" transform="translate(-8.84 12.27) rotate(-6.51)"/>
        </g>
        <g class="cls-11">
          <g class="cls-9">
            <g>
              <path class="cls-1" d="M136.04,97.71c-9.8,0-17.77-7.97-17.77-17.77,0-4.25,1.52-8.36,4.28-11.57,2.73-3.18,6.51-5.3,10.62-5.97h.03l2.48,2.37-.06,.04c-.54,.34-.86,.92-.86,1.55,0,1.01,.82,1.84,1.84,1.84,.65,0,1.26-.35,1.59-.92l.04-.06,3.84,3.68c1.07,.71,2.01,1.61,2.78,2.67l2.57,2.47c.15,.24,.36,.43,.6,.57l5.68,5.45v.03c-1.07,8.91-8.66,15.63-17.64,15.63m-2.87-35.2c-4.08,.67-7.82,2.77-10.53,5.93-2.75,3.2-4.26,7.28-4.26,11.5,0,9.74,7.92,17.66,17.66,17.66,8.92,0,16.44-6.66,17.52-15.5l-5.63-5.4c-.25-.14-.46-.35-.62-.6l-2.56-2.46c-.77-1.05-1.69-1.94-2.76-2.65l-3.74-3.59c-.36,.57-.98,.92-1.65,.92-1.08,0-1.95-.88-1.95-1.95,0-.65,.32-1.24,.85-1.61l-2.33-2.23v-.02Zm5.77,32.96c-.89,0-1.69-.61-1.9-1.51-.12-.51-.04-1.03,.24-1.48,.27-.44,.71-.76,1.21-.87,.51-.12,1.03-.04,1.48,.24,.44,.27,.75,.7,.87,1.21,.25,1.05-.4,2.1-1.45,2.35-.15,.04-.3,.05-.45,.05m0-3.79c-.14,0-.28,.02-.43,.05-.48,.11-.88,.41-1.14,.82-.26,.42-.34,.91-.23,1.39,.23,.99,1.23,1.6,2.21,1.37,.99-.23,1.6-1.23,1.37-2.21-.11-.48-.41-.88-.82-1.14-.29-.18-.63-.27-.96-.27m-7.84,3.09c-.23,0-.45-.04-.67-.12-.49-.18-.88-.54-1.1-1.01-.22-.47-.24-1-.06-1.49,.37-1.01,1.49-1.54,2.51-1.17,1.01,.37,1.54,1.49,1.17,2.51-.18,.49-.54,.88-1.01,1.1-.26,.12-.54,.18-.82,.18m0-3.79c-.26,0-.53,.06-.77,.17-.45,.21-.78,.58-.95,1.04-.17,.46-.15,.96,.06,1.41,.21,.44,.57,.78,1.04,.95,.46,.17,.96,.15,1.41-.06s.78-.58,.95-1.04c.35-.95-.14-2.01-1.1-2.36-.21-.08-.42-.11-.63-.11m14.78,.77c-.48,0-.96-.18-1.34-.53-.38-.36-.6-.84-.61-1.37,0-.52,.17-1.02,.53-1.4s.84-.6,1.37-.61c.52-.02,1.02,.17,1.4,.53,.38,.36,.6,.84,.61,1.37,.02,.52-.17,1.02-.53,1.4-.38,.41-.9,.61-1.42,.61m0-3.79h-.05c-.49,.01-.95,.22-1.28,.58-.34,.36-.52,.82-.5,1.31,0,.49,.22,.95,.58,1.28,.74,.7,1.9,.66,2.6-.08,.34-.36,.51-.82,.5-1.31s-.22-.95-.58-1.28c-.34-.33-.79-.5-1.26-.5m-9.83,2c-3,0-5.82-1.33-7.73-3.65-1.47-1.79-2.29-4.05-2.29-6.37,0-.34,.02-.69,.05-1.02,.03-.33,.09-.67,.15-.99,.03-.16,.07-.33,.11-.48,.49-1.89,1.51-3.59,2.97-4.91,1.08-.98,2.38-1.72,3.76-2.15,.96-.3,1.96-.45,2.98-.45s2.02,.15,2.98,.45c.16,.05,.32,.1,.47,.16,.3,.11,.61,.24,.9,.38,.87,.42,1.68,.96,2.39,1.62,1.45,1.32,2.48,3.02,2.97,4.91,.04,.16,.08,.32,.11,.48,.07,.33,.12,.66,.15,.99,.03,.34,.05,.68,.05,1.02,0,2.32-.81,4.59-2.29,6.37-1.91,2.32-4.73,3.65-7.73,3.65m0-19.92c-1,0-2,.15-2.94,.45-1.37,.42-2.65,1.16-3.71,2.13-1.44,1.31-2.45,2.98-2.93,4.86-.04,.16-.08,.32-.11,.48-.07,.32-.12,.65-.15,.98-.03,.33-.05,.67-.05,1.01,0,2.29,.8,4.53,2.26,6.3,1.89,2.29,4.68,3.6,7.64,3.6s5.75-1.31,7.64-3.6c1.46-1.77,2.26-4,2.26-6.3,0-.34-.02-.68-.05-1.01s-.08-.66-.15-.98c-.03-.16-.07-.32-.11-.48-.48-1.87-1.49-3.55-2.93-4.86-.71-.64-1.5-1.18-2.36-1.6-.29-.14-.59-.27-.89-.38-.15-.05-.3-.11-.46-.16-.95-.3-1.94-.45-2.94-.45m-11.11,19.84c-.1,0-.19,0-.29-.02-.52-.08-.97-.35-1.28-.77-.64-.86-.46-2.09,.4-2.73,.86-.64,2.09-.46,2.73,.4,.31,.42,.44,.93,.37,1.45-.08,.52-.35,.97-.77,1.28-.34,.25-.75,.39-1.16,.39m0-3.79c-.38,0-.77,.12-1.09,.36-.81,.6-.98,1.76-.38,2.57,.29,.39,.72,.65,1.21,.72,.49,.07,.97-.05,1.36-.34,.39-.29,.65-.72,.72-1.21,.07-.49-.05-.97-.34-1.36-.36-.48-.92-.74-1.48-.74m24.7-1.26c-.11,0-.23-.01-.34-.03-.51-.09-.96-.38-1.26-.8-.3-.43-.41-.95-.32-1.46s.38-.96,.8-1.26c.43-.3,.95-.41,1.46-.32,1.06,.19,1.77,1.2,1.58,2.26-.09,.51-.38,.96-.8,1.26-.33,.23-.72,.35-1.12,.35m0-3.79c-.37,0-.74,.11-1.05,.33-.4,.28-.67,.7-.76,1.19-.09,.48,.02,.97,.3,1.37s.7,.67,1.19,.76c.48,.09,.97-.02,1.37-.3,.4-.28,.67-.7,.76-1.19,.09-.48-.02-.97-.3-1.37s-.7-.67-1.19-.76c-.11-.02-.22-.03-.32-.03m-27.15,1.37c-.48,0-.94-.17-1.3-.5-.39-.35-.62-.83-.65-1.35-.06-1.08,.76-2,1.84-2.06,1.08-.06,2,.76,2.06,1.84s-.76,2-1.84,2.06h-.11m0-3.79h-.11c-1.01,.06-1.79,.93-1.73,1.94s.92,1.78,1.94,1.73c1.01-.06,1.79-.93,1.73-1.94-.06-.98-.87-1.73-1.83-1.73m30.3,1.03l-16.68-16.68,2.53-2.53,7.05,1.14h0l8.48,8.49v.02l1.14,7.03-2.53,2.53h0Zm-16.52-16.68l16.52,16.52,2.41-2.41-1.12-6.95-8.44-8.44-6.95-1.12-2.41,2.41h-.01Zm-11.73,11.84c-.34,0-.67-.09-.98-.26-.45-.26-.78-.68-.91-1.19-.13-.5-.07-1.03,.2-1.48,.26-.45,.68-.77,1.19-.91,.5-.13,1.03-.06,1.48,.2,.45,.26,.77,.68,.91,1.19,.14,.5,.07,1.03-.2,1.48-.26,.45-.68,.78-1.19,.91-.17,.04-.34,.07-.51,.07m0-3.79c-.16,0-.32,.02-.48,.06-.47,.13-.87,.43-1.12,.86s-.31,.92-.18,1.39c.13,.47,.43,.87,.86,1.12,.42,.25,.92,.31,1.39,.18s.87-.43,1.12-.86c.51-.88,.21-2-.67-2.51-.28-.16-.6-.25-.92-.25m5.09-1.01c-.67,0-1.33-.35-1.69-.97-.54-.93-.23-2.13,.7-2.67,.45-.26,.98-.34,1.48-.2,.51,.13,.93,.45,1.19,.9,.26,.45,.34,.98,.2,1.48-.13,.5-.45,.93-.9,1.19-.31,.18-.65,.27-.98,.27m0-3.79c-.32,0-.64,.09-.93,.25-.42,.25-.73,.65-.85,1.12s-.06,.97,.19,1.39c.51,.87,1.64,1.17,2.51,.66,.42-.25,.73-.65,.85-1.12,.12-.48,.06-.97-.19-1.39-.25-.42-.65-.73-1.12-.85-.16-.04-.31-.06-.47-.06"/>
              <path class="cls-3" d="M136.04,97.71c-9.8,0-17.77-7.97-17.77-17.77,0-4.25,1.52-8.36,4.28-11.57,2.73-3.18,6.51-5.3,10.62-5.97h.03l2.48,2.37-.06,.04c-.54,.34-.86,.92-.86,1.55,0,1.01,.82,1.84,1.84,1.84,.65,0,1.26-.35,1.59-.92l.04-.06,3.84,3.68c1.07,.71,2.01,1.61,2.78,2.67l2.57,2.47c.15,.24,.36,.43,.6,.57l5.68,5.45v.03c-1.07,8.91-8.66,15.63-17.64,15.63h-.02Zm-2.87-35.21c-4.08,.67-7.82,2.77-10.53,5.93-2.75,3.2-4.26,7.28-4.26,11.5,0,9.74,7.92,17.66,17.66,17.66,8.92,0,16.44-6.66,17.52-15.5l-5.63-5.4c-.25-.14-.46-.35-.62-.6l-2.56-2.46c-.77-1.05-1.69-1.94-2.76-2.65l-3.74-3.59c-.36,.57-.98,.92-1.65,.92-1.08,0-1.95-.88-1.95-1.95,0-.65,.32-1.24,.85-1.61l-2.33-2.23v-.02Zm5.77,32.96c-.89,0-1.69-.61-1.9-1.51-.12-.51-.04-1.03,.24-1.48,.27-.44,.71-.76,1.21-.87,.51-.12,1.03-.04,1.48,.24,.44,.27,.75,.7,.87,1.21,.25,1.05-.4,2.1-1.45,2.35-.15,.04-.3,.05-.45,.05h0Zm0-3.78c-.14,0-.28,.02-.43,.05-.48,.11-.88,.41-1.14,.82-.26,.42-.34,.91-.23,1.39,.23,.99,1.23,1.6,2.21,1.37,.99-.23,1.6-1.23,1.37-2.21-.11-.48-.41-.88-.82-1.14-.29-.18-.63-.27-.96-.27h0Zm-7.84,3.08c-.23,0-.45-.04-.67-.12-.49-.18-.88-.54-1.1-1.01-.22-.47-.24-1-.06-1.49,.37-1.01,1.49-1.54,2.51-1.17,1.01,.37,1.54,1.49,1.17,2.51-.18,.49-.54,.88-1.01,1.1-.26,.12-.54,.18-.82,.18h-.02Zm0-3.79c-.26,0-.53,.06-.77,.17-.45,.21-.78,.58-.95,1.04-.17,.46-.15,.96,.06,1.41,.21,.44,.57,.78,1.04,.95,.46,.17,.96,.15,1.41-.06s.78-.58,.95-1.04c.35-.95-.14-2.01-1.1-2.36-.21-.08-.42-.11-.63-.11h0Zm14.78,.77c-.48,0-.96-.18-1.34-.53-.38-.36-.6-.84-.61-1.37,0-.52,.17-1.02,.53-1.4s.84-.6,1.37-.61c.52-.02,1.02,.17,1.4,.53,.38,.36,.6,.84,.61,1.37,.02,.52-.17,1.02-.53,1.4-.38,.41-.9,.61-1.42,.61h0Zm0-3.79h-.05c-.49,.01-.95,.22-1.28,.58-.34,.36-.52,.82-.5,1.31,0,.49,.22,.95,.58,1.28,.74,.7,1.9,.66,2.6-.08,.34-.36,.51-.82,.5-1.31s-.22-.95-.58-1.28c-.34-.33-.79-.5-1.26-.5h-.01Zm-9.83,2c-3,0-5.82-1.33-7.73-3.65-1.47-1.79-2.29-4.05-2.29-6.37,0-.34,.02-.69,.05-1.02,.03-.33,.09-.67,.15-.99,.03-.16,.07-.33,.11-.48,.49-1.89,1.51-3.59,2.97-4.91,1.08-.98,2.38-1.72,3.76-2.15,.96-.3,1.96-.45,2.98-.45s2.02,.15,2.98,.45c.16,.05,.32,.1,.47,.16,.3,.11,.61,.24,.9,.38,.87,.42,1.68,.96,2.39,1.62,1.45,1.32,2.48,3.02,2.97,4.91,.04,.16,.08,.32,.11,.48,.07,.33,.12,.66,.15,.99,.03,.34,.05,.68,.05,1.02,0,2.32-.81,4.59-2.29,6.37-1.91,2.32-4.73,3.65-7.73,3.65h0Zm0-19.93c-1,0-2,.15-2.94,.45-1.37,.42-2.65,1.16-3.71,2.13-1.44,1.31-2.45,2.98-2.93,4.86-.04,.16-.08,.32-.11,.48-.07,.32-.12,.65-.15,.98-.03,.33-.05,.67-.05,1.01,0,2.29,.8,4.53,2.26,6.3,1.89,2.29,4.68,3.6,7.64,3.6s5.75-1.31,7.64-3.6c1.46-1.77,2.26-4,2.26-6.3,0-.34-.02-.68-.05-1.01s-.08-.66-.15-.98c-.03-.16-.07-.32-.11-.48-.48-1.87-1.49-3.55-2.93-4.86-.71-.64-1.5-1.18-2.36-1.6-.29-.14-.59-.27-.89-.38-.15-.05-.3-.11-.46-.16-.95-.3-1.94-.45-2.94-.45h-.02Zm-11.11,19.85c-.1,0-.19,0-.29-.02-.52-.08-.97-.35-1.28-.77-.64-.86-.46-2.09,.4-2.73,.86-.64,2.09-.46,2.73,.4,.31,.42,.44,.93,.37,1.45-.08,.52-.35,.97-.77,1.28-.34,.25-.75,.39-1.16,.39h0Zm0-3.79c-.38,0-.77,.12-1.09,.36-.81,.6-.98,1.76-.38,2.57,.29,.39,.72,.65,1.21,.72,.49,.07,.97-.05,1.36-.34,.39-.29,.65-.72,.72-1.21,.07-.49-.05-.97-.34-1.36-.36-.48-.92-.74-1.48-.74h0Zm24.7-1.26c-.11,0-.23-.01-.34-.03-.51-.09-.96-.38-1.26-.8-.3-.43-.41-.95-.32-1.46s.38-.96,.8-1.26c.43-.3,.95-.41,1.46-.32,1.06,.19,1.77,1.2,1.58,2.26-.09,.51-.38,.96-.8,1.26-.33,.23-.72,.35-1.12,.35h0Zm0-3.79c-.37,0-.74,.11-1.05,.33-.4,.28-.67,.7-.76,1.19-.09,.48,.02,.97,.3,1.37s.7,.67,1.19,.76c.48,.09,.97-.02,1.37-.3,.4-.28,.67-.7,.76-1.19,.09-.48-.02-.97-.3-1.37s-.7-.67-1.19-.76c-.11-.02-.22-.03-.32-.03h0Zm-27.15,1.37c-.48,0-.94-.17-1.3-.5-.39-.35-.62-.83-.65-1.35-.06-1.08,.76-2,1.84-2.06,1.08-.06,2,.76,2.06,1.84s-.76,2-1.84,2.06h-.11Zm0-3.78h-.11c-1.01,.06-1.79,.93-1.73,1.94s.92,1.78,1.94,1.73c1.01-.06,1.79-.93,1.73-1.94-.06-.98-.87-1.73-1.83-1.73Zm30.3,1.03l-16.68-16.68,2.53-2.53,7.05,1.14h0l8.48,8.49v.02l1.14,7.03-2.53,2.53h0Zm-16.52-16.68l16.52,16.52,2.41-2.41-1.12-6.95-8.44-8.44-6.95-1.12-2.41,2.41h-.01Zm-11.73,11.84c-.34,0-.67-.09-.98-.26-.45-.26-.78-.68-.91-1.19-.13-.5-.07-1.03,.2-1.48,.26-.45,.68-.77,1.19-.91,.5-.13,1.03-.06,1.48,.2,.45,.26,.77,.68,.91,1.19,.14,.5,.07,1.03-.2,1.48-.26,.45-.68,.78-1.19,.91-.17,.04-.34,.07-.51,.07h.01Zm0-3.8c-.16,0-.32,.02-.48,.06-.47,.13-.87,.43-1.12,.86s-.31,.92-.18,1.39c.13,.47,.43,.87,.86,1.12,.42,.25,.92,.31,1.39,.18s.87-.43,1.12-.86c.51-.88,.21-2-.67-2.51-.28-.16-.6-.25-.92-.25h0Zm5.09-1c-.67,0-1.33-.35-1.69-.97-.54-.93-.23-2.13,.7-2.67,.45-.26,.98-.34,1.48-.2,.51,.13,.93,.45,1.19,.9,.26,.45,.34,.98,.2,1.48-.13,.5-.45,.93-.9,1.19-.31,.18-.65,.27-.98,.27h0Zm0-3.79c-.32,0-.64,.09-.93,.25-.42,.25-.73,.65-.85,1.12-.12,.47-.06,.97,.19,1.39,.51,.87,1.64,1.17,2.51,.66,.42-.25,.73-.65,.85-1.12,.12-.48,.06-.97-.19-1.39-.25-.42-.65-.73-1.12-.85-.16-.04-.31-.06-.47-.06h0Z"/>
            </g>
          </g>
        </g>
        <g class="cls-6">
          <g class="cls-2">
            <g>
              <path class="cls-1" d="M76.51,97.7c-.28,0-.54-.15-.69-.4-.21-.38-.08-.86,.3-1.07l1.98-1.11c.22-.12,.49-.13,.72-.02,.06,.03,.13,.07,.18,.12l.02,.02c.07,.07,.11,.12,.15,.19,.03,.06,.06,.13,.08,.21v.04c.02,.08,.02,.15,.02,.22-.03,.25-.18,.48-.4,.6l-1.98,1.11c-.12,.07-.25,.1-.38,.1m1.98-2.57c-.11,0-.22,.03-.32,.08l-1.98,1.11c-.32,.18-.44,.59-.26,.91,.09,.16,.23,.27,.4,.32s.35,.03,.51-.06l1.98-1.11c.19-.1,.31-.3,.34-.51v-.21c-.02-.08-.04-.14-.07-.19s-.07-.1-.12-.15l-.02-.02c-.05-.04-.1-.08-.16-.1-.09-.04-.19-.06-.29-.06"/>
              <path class="cls-3" d="M76.51,97.7c-.28,0-.54-.15-.69-.4-.21-.38-.08-.86,.3-1.07l1.98-1.11c.22-.12,.49-.13,.72-.02,.06,.03,.13,.07,.18,.12l.02,.02c.07,.07,.11,.12,.15,.19,.03,.06,.06,.13,.08,.21v.04c.02,.08,.02,.15,.02,.22-.03,.25-.18,.48-.4,.6l-1.98,1.11c-.12,.07-.25,.1-.38,.1h0Zm1.98-2.58c-.11,0-.22,.03-.32,.08l-1.98,1.11c-.32,.18-.44,.59-.26,.91,.09,.16,.23,.27,.4,.32s.35,.03,.51-.06l1.98-1.11c.19-.1,.31-.3,.34-.51v-.21c-.02-.08-.04-.14-.07-.19s-.07-.1-.12-.15l-.02-.02c-.05-.04-.1-.08-.16-.1-.09-.04-.19-.06-.29-.06h0Z"/>
              <path class="cls-1" d="M78,98.83l-.58-1.04,1.69-.95c.22-.12,.4-.31,.52-.54,0-.02,.02-.03,.02-.05v-.03s.05-.09,.07-.14c0-.03,.02-.05,.02-.08,.02-.06,.03-.12,.03-.18v-.32c-.01-.06-.02-.11-.04-.17,0-.03-.01-.05-.02-.07-.03-.09-.06-.16-.1-.22l-.41-.73,2.24-1.26,.31,.54c.24,.44,.36,.93,.35,1.43-.03,.94-.57,1.82-1.39,2.28l-2.71,1.52h0Zm-.43-.99l.47,.84,2.61-1.46c.79-.44,1.3-1.28,1.33-2.18,.02-.48-.1-.95-.33-1.37l-.25-.44-2.04,1.14,.35,.63c.04,.07,.07,.15,.11,.24,0,.02,.01,.04,.02,.06,.02,.07,.03,.14,.04,.2v.02s0,.03,.01,.05v.29c0,.06-.02,.13-.04,.19,0,.03-.02,.06-.03,.09-.02,.05-.04,.1-.06,.15v.02s-.03,.04-.04,.05c-.13,.25-.33,.45-.57,.58l-1.59,.89h0Z"/>
              <path class="cls-3" d="M78,98.83l-.58-1.04,1.69-.95c.22-.12,.4-.31,.52-.54,0-.02,.02-.03,.02-.05v-.03s.05-.09,.07-.14c0-.03,.02-.05,.02-.08,.02-.06,.03-.12,.03-.18v-.32c-.01-.06-.02-.11-.04-.17,0-.03-.01-.05-.02-.07-.03-.09-.06-.16-.1-.22l-.41-.73,2.24-1.26,.31,.54c.24,.44,.36,.93,.35,1.43-.03,.94-.57,1.82-1.39,2.28l-2.71,1.52h0Zm-.43-.99l.47,.84,2.61-1.46c.79-.44,1.3-1.28,1.33-2.18,.02-.48-.1-.95-.33-1.37l-.25-.44-2.04,1.14,.35,.63c.04,.07,.07,.15,.11,.24,0,.02,.01,.04,.02,.06,.02,.07,.03,.14,.04,.2v.02s0,.03,.01,.05v.29c0,.06-.02,.13-.04,.19,0,.03-.02,.06-.03,.09-.02,.05-.04,.1-.06,.15v.02s-.03,.04-.04,.05c-.13,.25-.33,.45-.57,.58l-1.59,.89h0Z"/>
              <path class="cls-1" d="M74.61,96.65l-.17-.31,.07-.02c.05-.02,.1-.04,.14-.06,.16-.09,.28-.22,.35-.36,.06-.14,.06-.28,0-.39s-.18-.18-.33-.2c-.16-.02-.33,.02-.49,.11-.04,.02-.09,.05-.13,.09l-.05,.04-.29-.51,.07-.02c.05-.02,.1-.04,.14-.06,.16-.09,.28-.22,.35-.36,.06-.14,.06-.28,0-.39s-.18-.18-.33-.2c-.16-.02-.33,.02-.49,.11-.04,.02-.08,.05-.13,.09l-.05,.04-.28-.51,.07-.02c.05-.02,.1-.04,.14-.06,.32-.18,.48-.52,.35-.75-.06-.11-.18-.18-.33-.2-.16-.02-.33,.02-.49,.11-.04,.02-.09,.05-.13,.09l-.05,.04-.29-.51,.07-.02c.05-.02,.1-.04,.14-.06,.32-.18,.48-.52,.35-.75-.13-.23-.5-.27-.82-.09-.04,.02-.08,.05-.13,.09l-.05,.04-.3-.53,6.73-3.77,3.11,5.55-6.73,3.77-.02-.02Zm0-.24l.05,.09,6.53-3.66-3-5.35-6.53,3.66,.17,.31s.06-.04,.09-.06c.38-.21,.82-.15,.98,.14,.16,.29-.02,.7-.4,.91-.03,.02-.06,.03-.1,.05l.15,.27s.06-.04,.09-.06c.18-.1,.38-.14,.56-.12,.19,.02,.34,.12,.42,.26,.16,.29-.02,.7-.39,.91-.03,.02-.06,.03-.1,.05l.15,.27s.06-.04,.09-.06c.18-.1,.38-.14,.56-.12,.19,.02,.34,.12,.42,.26s.08,.32,0,.49-.22,.32-.4,.42c-.03,.02-.06,.03-.1,.05l.15,.27s.06-.04,.09-.06c.18-.1,.38-.14,.56-.12,.19,.02,.34,.12,.42,.26s.08,.32,0,.49-.22,.32-.4,.42c-.03,.02-.06,.03-.1,.05m1.02-.92s-.05,0-.08-.01c-.07-.02-.14-.07-.17-.14-.08-.14-.03-.32,.11-.39l4.73-2.65c.07-.04,.14-.05,.22-.03,.07,.02,.14,.07,.17,.14,.08,.14,.03,.32-.11,.39l-4.73,2.65s-.09,.04-.14,.04m4.73-3.11s-.06,0-.08,.02l-4.73,2.65c-.08,.05-.11,.15-.07,.23,.02,.04,.06,.07,.1,.08s.09,0,.13-.02l4.73-2.65c.08-.05,.11-.15,.07-.23-.02-.04-.06-.07-.1-.08h-.05m-5.47,1.79s-.05,0-.08-.01c-.07-.02-.14-.07-.17-.14-.08-.14-.03-.32,.11-.39l4.73-2.65c.14-.08,.32-.03,.39,.11,.04,.07,.05,.14,.03,.22-.02,.07-.07,.14-.14,.17l-4.73,2.65s-.09,.04-.14,.04m4.73-3.11s-.06,0-.08,.02l-4.73,2.65s-.07,.06-.08,.1,0,.09,.02,.13,.06,.07,.1,.08,.09,0,.13-.02l4.73-2.65s.07-.06,.08-.1,0-.09-.02-.13c-.03-.06-.09-.09-.15-.09m-5.47,1.79s-.05,0-.08-.01c-.07-.02-.14-.07-.17-.14-.08-.14-.03-.32,.11-.39l4.73-2.65c.14-.08,.32-.03,.39,.11,.04,.07,.05,.14,.03,.22s-.07,.14-.14,.17l-4.73,2.65s-.09,.04-.14,.04m4.73-3.11s-.06,0-.08,.02l-4.73,2.65c-.08,.05-.11,.15-.07,.23,.02,.04,.06,.07,.1,.08s.09,0,.13-.02l4.73-2.65s.07-.06,.08-.1,0-.09-.02-.13c-.03-.06-.09-.09-.15-.09m-5.47,1.79c-.1,0-.2-.05-.25-.15-.04-.07-.05-.14-.03-.22,.02-.07,.07-.14,.14-.17l4.73-2.65c.07-.04,.14-.05,.22-.03,.07,.02,.14,.07,.17,.14,.08,.14,.03,.32-.11,.39l-4.73,2.65s-.09,.04-.14,.04m-.15-.2c.05,.08,.15,.11,.23,.07l4.73-2.65c.08-.05,.11-.15,.07-.23-.02-.04-.06-.07-.1-.08s-.09,0-.13,.02l-4.73,2.65s-.07,.06-.08,.1,0,.09,.02,.13"/>
              <path class="cls-3" d="M74.61,96.65l-.17-.31,.07-.02c.05-.02,.1-.04,.14-.06,.16-.09,.28-.22,.35-.36,.06-.14,.06-.28,0-.39s-.18-.18-.33-.2c-.16-.02-.33,.02-.49,.11-.04,.02-.09,.05-.13,.09l-.05,.04-.29-.51,.07-.02c.05-.02,.1-.04,.14-.06,.16-.09,.28-.22,.35-.36,.06-.14,.06-.28,0-.39s-.18-.18-.33-.2c-.16-.02-.33,.02-.49,.11-.04,.02-.08,.05-.13,.09l-.05,.04-.28-.51,.07-.02c.05-.02,.1-.04,.14-.06,.32-.18,.48-.52,.35-.75-.06-.11-.18-.18-.33-.2-.16-.02-.33,.02-.49,.11-.04,.02-.09,.05-.13,.09l-.05,.04-.29-.51,.07-.02c.05-.02,.1-.04,.14-.06,.32-.18,.48-.52,.35-.75-.13-.23-.5-.27-.82-.09-.04,.02-.08,.05-.13,.09l-.05,.04-.3-.53,6.73-3.77,3.11,5.55-6.73,3.77-.02-.02Zm0-.24l.05,.09,6.53-3.66-3-5.35-6.53,3.66,.17,.31s.06-.04,.09-.06c.38-.21,.82-.15,.98,.14,.16,.29-.02,.7-.4,.91-.03,.02-.06,.03-.1,.05l.15,.27s.06-.04,.09-.06c.18-.1,.38-.14,.56-.12,.19,.02,.34,.12,.42,.26,.16,.29-.02,.7-.39,.91-.03,.02-.06,.03-.1,.05l.15,.27s.06-.04,.09-.06c.18-.1,.38-.14,.56-.12,.19,.02,.34,.12,.42,.26s.08,.32,0,.49-.22,.32-.4,.42c-.03,.02-.06,.03-.1,.05l.15,.27s.06-.04,.09-.06c.18-.1,.38-.14,.56-.12,.19,.02,.34,.12,.42,.26s.08,.32,0,.49-.22,.32-.4,.42c-.03,.02-.06,.03-.1,.05l.04-.02Zm1.02-.92s-.05,0-.08-.01c-.07-.02-.14-.07-.17-.14-.08-.14-.03-.32,.11-.39l4.73-2.65c.07-.04,.14-.05,.22-.03,.07,.02,.14,.07,.17,.14,.08,.14,.03,.32-.11,.39l-4.73,2.65s-.09,.04-.14,.04h0Zm4.73-3.11s-.06,0-.08,.02l-4.73,2.65c-.08,.05-.11,.15-.07,.23,.02,.04,.06,.07,.1,.08s.09,0,.13-.02l4.73-2.65c.08-.05,.11-.15,.07-.23-.02-.04-.06-.07-.1-.08h-.05Zm-5.47,1.79s-.05,0-.08-.01c-.07-.02-.14-.07-.17-.14-.08-.14-.03-.32,.11-.39l4.73-2.65c.14-.08,.32-.03,.39,.11,.04,.07,.05,.14,.03,.22-.02,.07-.07,.14-.14,.17l-4.73,2.65s-.09,.04-.14,.04h0Zm4.73-3.11s-.06,0-.08,.02l-4.73,2.65s-.07,.06-.08,.1,0,.09,.02,.13,.06,.07,.1,.08,.09,0,.13-.02l4.73-2.65s.07-.06,.08-.1,0-.09-.02-.13c-.03-.06-.09-.09-.15-.09h0Zm-5.47,1.8s-.05,0-.08-.01c-.07-.02-.14-.07-.17-.14-.08-.14-.03-.32,.11-.39l4.73-2.65c.14-.08,.32-.03,.39,.11,.04,.07,.05,.14,.03,.22s-.07,.14-.14,.17l-4.73,2.65s-.09,.04-.14,.04h0Zm4.73-3.11s-.06,0-.08,.02l-4.73,2.65c-.08,.05-.11,.15-.07,.23,.02,.04,.06,.07,.1,.08s.09,0,.13-.02l4.73-2.65s.07-.06,.08-.1,0-.09-.02-.13c-.03-.06-.09-.09-.15-.09h.01Zm-5.47,1.8c-.1,0-.2-.05-.25-.15-.04-.07-.05-.14-.03-.22,.02-.07,.07-.14,.14-.17l4.73-2.65c.07-.04,.14-.05,.22-.03,.07,.02,.14,.07,.17,.14,.08,.14,.03,.32-.11,.39l-4.73,2.65s-.09,.04-.14,.04Zm-.15-.2c.05,.08,.15,.11,.23,.07l4.73-2.65c.08-.05,.11-.15,.07-.23-.02-.04-.06-.07-.1-.08s-.09,0-.13,.02l-4.73,2.65s-.07,.06-.08,.1,0,.09,.02,.13h-.01Z"/>
              <path class="cls-1" d="M62.01,71.07l-1.88-3.36-1.07,.2-.46-.83,3.4-1.9,.03,.05-.03-.05,2.32-1.3,.49,.87-.77,.73,1.9,3.39-3.91,2.19h-.02Zm-1.82-3.48l1.87,3.33,3.71-2.08-1.89-3.37,.77-.73-.39-.69-5.51,3.09,.37,.65,1.07-.2h0Z"/>
              <path class="cls-3" d="M62.01,71.07l-1.88-3.36-1.07,.2-.46-.83,3.4-1.9,.03,.05-.03-.05,2.32-1.3,.49,.87-.77,.73,1.9,3.39-3.91,2.19h-.02Zm-1.82-3.48l1.87,3.33,3.71-2.08-1.89-3.37,.77-.73-.39-.69-5.51,3.09,.37,.65,1.07-.2h0Z"/>
              <path class="cls-1" d="M70.46,90.75l-1.01-1.79c-.4-.71-.51-1.57-.3-2.36l-1.93,1.09-.03-.05-2.15-3.83,1.23-.69-4.83-11.36,5.5-3.08,.03,.04,7.15,10.01,1.23-.69,2.18,3.88-1.93,1.08c.78,.24,1.45,.77,1.85,1.49l1.01,1.79-.05,.03-7.94,4.45h0Zm-1.12-4.4l-.04,.14c-.25,.8-.15,1.67,.26,2.4l.95,1.69,7.79-4.37-.95-1.69c-.41-.73-1.11-1.26-1.92-1.47l-.14-.04,2.08-1.17-2.06-3.68-1.22,.69-.03-.04-7.15-10.01-2.18,1.22-.03-.05,.03,.05-3.14,1.76,4.83,11.36-1.22,.69,2.06,3.68,2.08-1.17h0Zm-2.77-1.04l-.62-1.1,.05-.03,9.27-5.2,.62,1.1-.05,.03s-9.27,5.2-9.27,5.2Zm-.46-1.06l.5,.9,9.11-5.11-.5-.9-9.11,5.11Z"/>
              <path class="cls-3" d="M70.46,90.75l-1.01-1.79c-.4-.71-.51-1.57-.3-2.36l-1.93,1.09-.03-.05-2.15-3.83,1.23-.69-4.83-11.36,5.5-3.08,.03,.04,7.15,10.01,1.23-.69,2.18,3.88-1.93,1.08c.78,.24,1.45,.77,1.85,1.49l1.01,1.79-.05,.03-7.94,4.45h0Zm-1.12-4.4l-.04,.14c-.25,.8-.15,1.67,.26,2.4l.95,1.69,7.79-4.37-.95-1.69c-.41-.73-1.11-1.26-1.92-1.47l-.14-.04,2.08-1.17-2.06-3.68-1.22,.69-.03-.04-7.15-10.01-2.18,1.22-.03-.05,.03,.05-3.14,1.76,4.83,11.36-1.22,.69,2.06,3.68,2.08-1.17h0Zm-2.77-1.04l-.62-1.1,.05-.03,9.27-5.2,.62,1.1-.05,.03s-9.27,5.2-9.27,5.2Zm-.46-1.06l.5,.9,9.11-5.11-.5-.9-9.11,5.11Z"/>
            </g>
          </g>
        </g>
        <g class="cls-6">
          <g class="cls-13">
            <g>
              <path class="cls-1" d="M70.69,55.47l-2.18-.65,.02-.06,4.15-13.92,2.19,.65-.02,.06-4.15,13.92h-.01Zm-2.04-.72l1.96,.58,4.1-13.75-1.96-.58-4.1,13.75Zm1.62-.16l-.93-.27,.76-2.56,.93,.27-.76,2.55h0Zm-.78-.34l.7,.21,.69-2.33-.7-.21-.69,2.33Z"/>
              <path class="cls-3" d="M70.69,55.47l-2.18-.65,.02-.06,4.15-13.92,2.19,.65-.02,.06-4.15,13.92h-.01Zm-2.04-.72l1.96,.58,4.1-13.75-1.96-.58-4.1,13.75Zm1.62-.16l-.93-.27,.76-2.56,.93,.27-.76,2.55h0Zm-.78-.34l.7,.21,.69-2.33-.7-.21-.69,2.33Z"/>
              <path class="cls-1" d="M78.88,57.74l-.07-.03c-1.67-.62-7.35-1.98-7.4-2h-.06l4.1-13.67,.06,.02c1.05,.35,7.43,2.15,7.5,2.17l.09,.02-.06,.07c-3.1,3.81-4.13,13.25-4.14,13.34v.07h-.02Zm-7.39-2.11c.61,.15,5.63,1.36,7.29,1.96,.1-.89,1.17-9.57,4.11-13.26-.75-.21-6.23-1.76-7.36-2.13l-4.03,13.43h-.01Zm6.52,.88l-.07-.02-5.4-1.5,.02-.06s.65-1.75,.78-2.38v-.06l5.14,1.38v.05s-.46,2.03-.46,2.5v.08h0Zm-5.32-1.59l5.21,1.45c.04-.54,.37-2.08,.44-2.4l-4.9-1.32c-.15,.61-.64,1.97-.75,2.28m4.06-3.66c-.55,0-1.07-.29-1.35-.81-.4-.74-.11-1.67,.63-2.06,.74-.4,1.67-.11,2.06,.63,.4,.74,.11,1.67-.63,2.06-.23,.12-.47,.18-.71,.18m-.67-2.77c-.69,.37-.95,1.22-.58,1.91,.37,.69,1.22,.95,1.91,.58,.69-.37,.95-1.22,.58-1.91-.37-.69-1.22-.95-1.91-.58"/>
              <path class="cls-3" d="M78.88,57.74l-.07-.03c-1.67-.62-7.35-1.98-7.4-2h-.06l4.1-13.67,.06,.02c1.05,.35,7.43,2.15,7.5,2.17l.09,.02-.06,.07c-3.1,3.81-4.13,13.25-4.14,13.34v.07h-.02Zm-7.39-2.11c.61,.15,5.63,1.36,7.29,1.96,.1-.89,1.17-9.57,4.11-13.26-.75-.21-6.23-1.76-7.36-2.13l-4.03,13.43h-.01Zm6.52,.88l-.07-.02-5.4-1.5,.02-.06s.65-1.75,.78-2.38v-.06l5.14,1.38v.05s-.46,2.03-.46,2.5v.08h0Zm-5.32-1.59l5.21,1.45c.04-.54,.37-2.08,.44-2.4l-4.9-1.32c-.15,.61-.64,1.97-.75,2.28h0Zm4.06-3.67c-.55,0-1.07-.29-1.35-.81-.4-.74-.11-1.67,.63-2.06,.74-.4,1.67-.11,2.06,.63,.4,.74,.11,1.67-.63,2.06-.23,.12-.47,.18-.71,.18Zm-.67-2.77c-.69,.37-.95,1.22-.58,1.91,.37,.69,1.22,.95,1.91,.58,.69-.37,.95-1.22,.58-1.91-.37-.69-1.22-.95-1.91-.58Z"/>
              <path class="cls-1" d="M100.17,62.73l-3.51-1.22-1.79-3.68-14.2-5.1,.93-3.27h.06l14.62,3.59,4.02-2.32h.02l3.71,1.14-.56,1.65h-.04s-.86-.05-1.84,.25c-.89,.28-2.08,.91-2.63,2.39-.44,1.18-.27,2.34,.52,3.44,.59,.82,1.32,1.31,1.33,1.31l.04,.03-.67,1.79h-.01Zm-3.43-1.31l3.36,1.16,.59-1.6c-.16-.11-.79-.58-1.32-1.31-.56-.78-1.1-2.03-.54-3.55,.57-1.52,1.78-2.17,2.71-2.46,.87-.27,1.64-.26,1.83-.26l.5-1.45-3.57-1.09-4.01,2.31h-.02l-14.59-3.58-.86,3.06,14.15,5.08v.02l1.79,3.66h-.02Z"/>
              <path class="cls-3" d="M100.17,62.73l-3.51-1.22-1.79-3.68-14.2-5.1,.93-3.27h.06l14.62,3.59,4.02-2.32h.02l3.71,1.14-.56,1.65h-.04s-.86-.05-1.84,.25c-.89,.28-2.08,.91-2.63,2.39-.44,1.18-.27,2.34,.52,3.44,.59,.82,1.32,1.31,1.33,1.31l.04,.03-.67,1.79h-.01Zm-3.43-1.31l3.36,1.16,.59-1.6c-.16-.11-.79-.58-1.32-1.31-.56-.78-1.1-2.03-.54-3.55,.57-1.52,1.78-2.17,2.71-2.46,.87-.27,1.64-.26,1.83-.26l.5-1.45-3.57-1.09-4.01,2.31h-.02l-14.59-3.58-.86,3.06,14.15,5.08v.02l1.79,3.66h-.02Z"/>
              <path class="cls-1" d="M105.15,64.13h-.04l-3.63-.97,.51-1.58h.04s.9,.02,1.9-.33c.91-.33,2.1-1.04,2.58-2.61,.91-3-1.97-4.39-2-4.4l-.05-.02,.55-1.6,3.43,.87v.04s0,1.18-.34,2.15c.1,.31,1.22,3.98-2.21,6.41-.03,.19-.2,1.31-.73,2.01l-.02,.03h0Zm-3.51-1.05l3.47,.92c.53-.72,.69-1.93,.69-1.95v-.03l.02-.02c3.52-2.47,2.19-6.27,2.18-6.31v-.04c.31-.85,.34-1.86,.34-2.09l-3.24-.82-.48,1.4c.38,.2,2.89,1.64,2.02,4.52-.49,1.61-1.71,2.35-2.65,2.69-.89,.32-1.7,.34-1.89,.34l-.45,1.38h0Z"/>
              <path class="cls-3" d="M105.15,64.13h-.04l-3.63-.97,.51-1.58h.04s.9,.02,1.9-.33c.91-.33,2.1-1.04,2.58-2.61,.91-3-1.97-4.39-2-4.4l-.05-.02,.55-1.6,3.43,.87v.04s0,1.18-.34,2.15c.1,.31,1.22,3.98-2.21,6.41-.03,.19-.2,1.31-.73,2.01l-.02,.03h0Zm-3.51-1.05l3.47,.92c.53-.72,.69-1.93,.69-1.95v-.03l.02-.02c3.52-2.47,2.19-6.27,2.18-6.31v-.04c.31-.85,.34-1.86,.34-2.09l-3.24-.82-.48,1.4c.38,.2,2.89,1.64,2.02,4.52-.49,1.61-1.71,2.35-2.65,2.69-.89,.32-1.7,.34-1.89,.34l-.45,1.38h0Z"/>
              <path class="cls-1" d="M100.92,39.35l-13.93-4.33,.68-2.17,13.93,4.33-.68,2.17Zm-13.78-4.41l13.7,4.26,.61-1.95-13.7-4.26-.61,1.95Zm13.28,3.56l-2.54-.8,.29-.92,2.54,.8-.29,.92Zm-2.4-.87l2.32,.73,.22-.7-2.32-.73-.22,.7Z"/>
              <path class="cls-3" d="M100.92,39.35l-13.93-4.33,.68-2.17,13.93,4.33-.68,2.17Zm-13.78-4.41l13.7,4.26,.61-1.95-13.7-4.26-.61,1.95Zm13.28,3.56l-2.54-.8,.29-.92,2.54,.8-.29,.92Zm-2.4-.87l2.32,.73,.22-.7-2.32-.73-.22,.7Z"/>
              <path class="cls-1" d="M98.24,47.42l-.07-.04c-.08-.04-8.5-4.45-13.39-3.99h-.09l.03-.08c.02-.06,2.08-6.37,2.38-7.43l.02-.06,.06,.02,13.57,4.19-.02,.06c-.02,.06-2.05,5.53-2.47,7.26l-.02,.07h0Zm-12.72-4.18c4.74,0,11.88,3.61,12.64,4.01,.43-1.71,2.22-6.56,2.43-7.14l-13.4-4.14c-.33,1.14-2.09,6.56-2.34,7.3,.21-.02,.43-.03,.66-.03m12.17,2.76l-.06-.04c-.39-.26-2.31-1.01-2.33-1.02l-.05-.02,.02-.05,1.69-4.97,.06,.02c.6,.24,2.39,.67,2.41,.68h.06l-1.79,5.41h0Zm-2.3-1.16c.3,.12,1.77,.71,2.24,.97l1.7-5.13c-.32-.08-1.72-.42-2.31-.65l-1.63,4.8h0Zm-2.62-2.15c-.15,0-.3-.02-.45-.07-.39-.12-.71-.38-.9-.74s-.23-.77-.11-1.16,.38-.71,.74-.9c.74-.4,1.67-.11,2.06,.63,.4,.74,.11,1.67-.63,2.06-.22,.12-.47,.18-.72,.18m0-2.93c-.22,0-.45,.05-.66,.17-.33,.18-.58,.47-.69,.83s-.07,.74,.1,1.07c.18,.33,.47,.57,.83,.68s.74,.07,1.07-.1c.69-.37,.95-1.22,.58-1.91-.25-.48-.74-.75-1.25-.75"/>
              <path class="cls-3" d="M98.24,47.42l-.07-.04c-.08-.04-8.5-4.45-13.39-3.99h-.09l.03-.08c.02-.06,2.08-6.37,2.38-7.43l.02-.06,.06,.02,13.57,4.19-.02,.06c-.02,.06-2.05,5.53-2.47,7.26l-.02,.07h0Zm-12.72-4.18c4.74,0,11.88,3.61,12.64,4.01,.43-1.71,2.22-6.56,2.43-7.14l-13.4-4.14c-.33,1.14-2.09,6.56-2.34,7.3,.21-.02,.43-.03,.66-.03h0Zm12.17,2.76l-.06-.04c-.39-.26-2.31-1.01-2.33-1.02l-.05-.02,.02-.05,1.69-4.97,.06,.02c.6,.24,2.39,.67,2.41,.68h.06l-1.79,5.41h0Zm-2.3-1.16c.3,.12,1.77,.71,2.24,.97l1.7-5.13c-.32-.08-1.72-.42-2.31-.65l-1.63,4.8h0Zm-2.62-2.15c-.15,0-.3-.02-.45-.07-.39-.12-.71-.38-.9-.74s-.23-.77-.11-1.16,.38-.71,.74-.9c.74-.4,1.67-.11,2.06,.63,.4,.74,.11,1.67-.63,2.06-.22,.12-.47,.18-.72,.18h.01Zm0-2.93c-.22,0-.45,.05-.66,.17-.33,.18-.58,.47-.69,.83s-.07,.74,.1,1.07c.18,.33,.47,.57,.83,.68s.74,.07,1.07-.1c.69-.37,.95-1.22,.58-1.91-.25-.48-.74-.75-1.25-.75h.02Z"/>
              <path class="cls-1" d="M91.94,50.69l-3.8-.93,.02-.06,1.7-4.64,.05,.02,3.18,1.04v.05l-1.15,4.53h0Zm-3.65-1.02l3.56,.87,1.1-4.36-3.02-.99-1.64,4.47h0Z"/>
              <path class="cls-3" d="M91.94,50.69l-3.8-.93,.02-.06,1.7-4.64,.05,.02,3.18,1.04v.05l-1.15,4.53h0Zm-3.65-1.02l3.56,.87,1.1-4.36-3.02-.99-1.64,4.47h0Z"/>
              <path class="cls-1" d="M90.52,67.88l-1.86-.44v-.05s0-.88-.35-1.83c-.48-1.27-1.34-2.06-2.57-2.35-1.53-.36-2.72,.26-3.45,.85-.79,.64-1.23,1.38-1.23,1.39l-.02,.04-1.68-.45,1.14-3.74,4.16-2.04,1.2-3.29,4.35,1.56-.81,3.23,2.06,3.54-.95,3.59h0Zm-1.74-.55l1.66,.4,.91-3.43-2.06-3.54v-.02l.8-3.15-4.14-1.49-1.18,3.22-4.16,2.04-1.09,3.57,1.48,.4c.1-.16,.53-.81,1.23-1.38,.75-.61,1.97-1.25,3.55-.88,1.58,.38,2.31,1.53,2.65,2.43,.32,.84,.35,1.63,.36,1.83"/>
              <path class="cls-3" d="M90.52,67.88l-1.86-.44v-.05s0-.88-.35-1.83c-.48-1.27-1.34-2.06-2.57-2.35-1.53-.36-2.72,.26-3.45,.85-.79,.64-1.23,1.38-1.23,1.39l-.02,.04-1.68-.45,1.14-3.74,4.16-2.04,1.2-3.29,4.35,1.56-.81,3.23,2.06,3.54-.95,3.59h0Zm-1.74-.55l1.66,.4,.91-3.43-2.06-3.54v-.02l.8-3.15-4.14-1.49-1.18,3.22-4.16,2.04-1.09,3.57,1.48,.4c.1-.16,.53-.81,1.23-1.38,.75-.61,1.97-1.25,3.55-.88,1.58,.38,2.31,1.53,2.65,2.43,.32,.84,.35,1.63,.36,1.83h-.01Z"/>
              <path class="cls-1" d="M88.73,72.8c-.84,0-1.77-.44-1.93-.52-3.93,1.49-6.35-1.48-6.55-1.74-1-.25-1.97-.91-1.97-.92l-.04-.03,1.19-3.34,1.63,.44v.05s-.47,3.2,2.53,4.12c1.57,.48,2.82-.11,3.6-.69,.85-.63,1.33-1.38,1.34-1.39l.02-.04,1.6,.46-1.24,3.58h-.18m-1.93-.64h.02s1.11,.57,2,.52l1.17-3.39-1.4-.4c-.11,.16-.58,.82-1.34,1.38-.8,.59-2.09,1.2-3.71,.71-2.88-.88-2.67-3.77-2.63-4.19l-1.43-.38-1.13,3.15c.19,.12,1.04,.67,1.92,.88h.02v.02s2.45,3.25,6.46,1.71h.05Z"/>
              <path class="cls-3" d="M88.73,72.8c-.84,0-1.77-.44-1.93-.52-3.93,1.49-6.35-1.48-6.55-1.74-1-.25-1.97-.91-1.97-.92l-.04-.03,1.19-3.34,1.63,.44v.05s-.47,3.2,2.53,4.12c1.57,.48,2.82-.11,3.6-.69,.85-.63,1.33-1.38,1.34-1.39l.02-.04,1.6,.46-1.24,3.58h-.18v.02Zm-1.93-.64h.02s1.11,.57,2,.52l1.17-3.39-1.4-.4c-.11,.16-.58,.82-1.34,1.38-.8,.59-2.09,1.2-3.71,.71-2.88-.88-2.67-3.77-2.63-4.19l-1.43-.38-1.13,3.15c.19,.12,1.04,.67,1.92,.88h.02v.02s2.45,3.25,6.46,1.71h.05Z"/>
            </g>
          </g>
        </g>
        <g class="cls-6">
          <g class="cls-10">
            <g>
              <path class="cls-1" d="M53.36,120.02c-.16,0-.33-.03-.48-.09-.34-.13-.6-.38-.75-.71s-.16-.69-.03-1.03,.38-.6,.71-.75c.68-.3,1.48,0,1.78,.68s0,1.48-.68,1.78c-.17,.08-.36,.12-.55,.12m0-2.58c-.17,0-.34,.03-.5,.11-.3,.13-.53,.38-.65,.68-.12,.31-.11,.64,.03,.94,.28,.62,1.01,.9,1.62,.62,.3-.13,.53-.38,.65-.68,.12-.31,.11-.64-.02-.94-.2-.46-.66-.73-1.13-.73"/>
              <path class="cls-3" d="M53.36,120.02c-.16,0-.33-.03-.48-.09-.34-.13-.6-.38-.75-.71s-.16-.69-.03-1.03,.38-.6,.71-.75c.68-.3,1.48,0,1.78,.68s0,1.48-.68,1.78c-.17,.08-.36,.12-.55,.12h0Zm0-2.58c-.17,0-.34,.03-.5,.11-.3,.13-.53,.38-.65,.68-.12,.31-.11,.64,.03,.94,.28,.62,1.01,.9,1.62,.62,.3-.13,.53-.38,.65-.68,.12-.31,.11-.64-.02-.94-.2-.46-.66-.73-1.13-.73Z"/>
              <path class="cls-1" d="M53.37,126.97c-1.01,0-2.01-.19-2.98-.56-2.07-.79-3.7-2.35-4.6-4.37-1.86-4.18,.03-9.09,4.21-10.95,2.02-.9,4.28-.96,6.35-.16,2.07,.79,3.7,2.35,4.6,4.37,.9,2.02,.96,4.28,.16,6.35-.79,2.07-2.35,3.7-4.37,4.6-1.08,.48-2.22,.72-3.37,.72m-.02-16.48c-1.11,0-2.24,.23-3.31,.71-4.12,1.83-5.98,6.68-4.15,10.8,.89,2,2.5,3.53,4.54,4.31,2.04,.78,4.26,.73,6.26-.16,2-.89,3.53-2.5,4.31-4.54,.78-2.04,.73-4.26-.16-6.26-1.35-3.04-4.35-4.85-7.48-4.85m0,15.4c-.87,0-1.75-.16-2.59-.48-1.8-.69-3.22-2.04-4.01-3.81-.78-1.76-.83-3.72-.14-5.53s2.04-3.22,3.81-4.01c1.76-.78,3.72-.83,5.52-.14s3.22,2.04,4.01,3.81c.78,1.76,.83,3.72,.14,5.53-.69,1.8-2.04,3.22-3.81,4.01-.94,.42-1.93,.63-2.93,.63m0-14.33c-.98,0-1.96,.21-2.89,.62-1.73,.77-3.06,2.17-3.74,3.94s-.63,3.7,.14,5.44c.77,1.73,2.17,3.06,3.94,3.74s3.7,.63,5.44-.14c3.58-1.59,5.2-5.8,3.6-9.38-.77-1.73-2.17-3.06-3.94-3.74-.83-.32-1.69-.48-2.55-.48"/>
              <path class="cls-3" d="M53.37,126.97c-1.01,0-2.01-.19-2.98-.56-2.07-.79-3.7-2.35-4.6-4.37-1.86-4.18,.03-9.09,4.21-10.95,2.02-.9,4.28-.96,6.35-.16,2.07,.79,3.7,2.35,4.6,4.37,.9,2.02,.96,4.28,.16,6.35-.79,2.07-2.35,3.7-4.37,4.6-1.08,.48-2.22,.72-3.37,.72h0Zm-.02-16.48c-1.11,0-2.24,.23-3.31,.71-4.12,1.83-5.98,6.68-4.15,10.8,.89,2,2.5,3.53,4.54,4.31,2.04,.78,4.26,.73,6.26-.16,2-.89,3.53-2.5,4.31-4.54,.78-2.04,.73-4.26-.16-6.26-1.35-3.04-4.35-4.85-7.48-4.85h0Zm0,15.39c-.87,0-1.75-.16-2.59-.48-1.8-.69-3.22-2.04-4.01-3.81-.78-1.76-.83-3.72-.14-5.53s2.04-3.22,3.81-4.01c1.76-.78,3.72-.83,5.52-.14s3.22,2.04,4.01,3.81c.78,1.76,.83,3.72,.14,5.53-.69,1.8-2.04,3.22-3.81,4.01-.94,.42-1.93,.63-2.93,.63h0Zm0-14.34c-.98,0-1.96,.21-2.89,.62-1.73,.77-3.06,2.17-3.74,3.94s-.63,3.7,.14,5.44c.77,1.73,2.17,3.06,3.94,3.74s3.7,.63,5.44-.14c3.58-1.59,5.2-5.8,3.6-9.38-.77-1.73-2.17-3.06-3.94-3.74-.83-.32-1.69-.48-2.55-.48Z"/>
              <path class="cls-1" d="M53.37,124.6c-.72,0-1.44-.13-2.13-.4-1.48-.57-2.65-1.68-3.29-3.13-1.33-2.99,.02-6.5,3.01-7.83,2.99-1.33,6.5,.02,7.83,3.01,1.33,2.99-.02,6.5-3.01,7.83-.77,.34-1.59,.52-2.41,.52m0-11.75c-.79,0-1.59,.16-2.35,.5-2.93,1.3-4.25,4.75-2.95,7.68,.63,1.42,1.78,2.51,3.23,3.07s3.03,.52,4.45-.12c1.42-.63,2.51-1.78,3.06-3.23,.56-1.45,.52-3.03-.12-4.45-.96-2.16-3.09-3.45-5.32-3.45m-.6,10.66l-1.77-.51,.73-2.54c-.25-.23-.44-.5-.58-.8-.03-.06-.05-.11-.07-.17l-2.32,.76-.32-1.82,2.6-.46c.09-.31,.25-.6,.45-.85l-1.85-1.59,1.39-1.22,1.74,1.99c.26-.07,.53-.09,.8-.07l.25-2.43,1.79,.45-.64,2.57c.17,.15,.32,.31,.44,.5l2.07-1.3,.75,1.69-2.42,1.07c-.02,.44-.16,.87-.41,1.24l2,1.41-1.27,1.34-1.92-1.82c-.35,.13-.73,.17-1.1,.13l-.33,2.42h-.01Zm-1.63-.58l1.53,.44,.33-2.4h.06c.38,.06,.78,.02,1.14-.12h.03l1.89,1.77,1.09-1.16-1.98-1.4,.03-.05c.26-.37,.41-.81,.42-1.26v-.04l2.38-1.06-.65-1.46-2.05,1.29-.03-.05c-.13-.21-.29-.39-.48-.55l-.03-.02,.63-2.52-1.55-.39-.25,2.41h-.06c-.28-.04-.57-.01-.85,.06h-.04l-.02-.02-1.69-1.93-1.2,1.05,1.84,1.58-.04,.04c-.22,.26-.39,.56-.48,.88v.04l-2.57,.46,.28,1.57,2.3-.76,.02,.06c.02,.07,.05,.15,.08,.22,.13,.3,.33,.56,.58,.79l.03,.02-.71,2.5h.02Z"/>
              <path class="cls-3" d="M53.37,124.6c-.72,0-1.44-.13-2.13-.4-1.48-.57-2.65-1.68-3.29-3.13-1.33-2.99,.02-6.5,3.01-7.83,2.99-1.33,6.5,.02,7.83,3.01,1.33,2.99-.02,6.5-3.01,7.83-.77,.34-1.59,.52-2.41,.52Zm0-11.75c-.79,0-1.59,.16-2.35,.5-2.93,1.3-4.25,4.75-2.95,7.68,.63,1.42,1.78,2.51,3.23,3.07s3.03,.52,4.45-.12c1.42-.63,2.51-1.78,3.06-3.23,.56-1.45,.52-3.03-.12-4.45-.96-2.16-3.09-3.45-5.32-3.45Zm-.6,10.66l-1.77-.51,.73-2.54c-.25-.23-.44-.5-.58-.8-.03-.06-.05-.11-.07-.17l-2.32,.76-.32-1.82,2.6-.46c.09-.31,.25-.6,.45-.85l-1.85-1.59,1.39-1.22,1.74,1.99c.26-.07,.53-.09,.8-.07l.25-2.43,1.79,.45-.64,2.57c.17,.15,.32,.31,.44,.5l2.07-1.3,.75,1.69-2.42,1.07c-.02,.44-.16,.87-.41,1.24l2,1.41-1.27,1.34-1.92-1.82c-.35,.13-.73,.17-1.1,.13l-.33,2.42h-.01Zm-1.63-.58l1.53,.44,.33-2.4h.06c.38,.06,.78,.02,1.14-.12h.03l1.89,1.77,1.09-1.16-1.98-1.4,.03-.05c.26-.37,.41-.81,.42-1.26v-.04l2.38-1.06-.65-1.46-2.05,1.29-.03-.05c-.13-.21-.29-.39-.48-.55l-.03-.02,.63-2.52-1.55-.39-.25,2.41h-.06c-.28-.04-.57-.01-.85,.06h-.04l-.02-.02-1.69-1.93-1.2,1.05,1.84,1.58-.04,.04c-.22,.26-.39,.56-.48,.88v.04l-2.57,.46,.28,1.57,2.3-.76,.02,.06c.02,.07,.05,.15,.08,.22,.13,.3,.33,.56,.58,.79l.03,.02-.71,2.5h.02Z"/>
              <path class="cls-1" d="M62.07,108.41l-.02-.04-5.24-11.77,.06-.02,5.97-1.87,.02,.05,5.77,12.97h-.08l-6.49,.68h.01Zm-5.1-11.74l5.17,11.62,6.32-.66-5.68-12.77-5.81,1.82h0Zm3.62,3.65l-1.28-2.88,2.33-.7,1.51,3.39-2.55,.19h0Zm-1.12-2.81l1.19,2.68,2.31-.17-1.4-3.14-2.1,.63Z"/>
              <path class="cls-3" d="M62.07,108.41l-.02-.04-5.24-11.77,.06-.02,5.97-1.87,.02,.05,5.77,12.97h-.08l-6.49,.68h.01Zm-5.1-11.74l5.17,11.62,6.32-.66-5.68-12.77-5.81,1.82h0Zm3.62,3.65l-1.28-2.88,2.33-.7,1.51,3.39-2.55,.19h0Zm-1.12-2.81l1.19,2.68,2.31-.17-1.4-3.14-2.1,.63Z"/>
              <path class="cls-1" d="M51.49,133.37c-2.21,0-4.42-.47-6.4-1.4-3.54-1.67-6.15-4.69-7.55-8.72-1.5-4.33-1.64-8.33-.42-11.89,.97-2.82,2.79-5.38,5.43-7.62,4.46-3.77,13.24-6.38,13.33-6.4l.05-.02,.02,.05,4.61,10.35h-.09c-.08,0-7.74,.18-12.82,3.71-2.3,1.6-3.59,4.23-3.54,7.2,.05,3.13,1.62,6.08,4.1,7.7,2.32,1.51,5.19,1.88,7.88,1,2.72-.88,4.94-2.94,5.93-5.51,2.03-5.3-1.93-10.45-4.73-11.84l-.23-.11h.25s5.03,.14,7.44,6.24c1.1,2.79,.96,6.01-.4,9.06-1.51,3.38-4.28,6.03-7.61,7.27-1.67,.62-3.46,.93-5.26,.93m4.38-35.9c-.71,.21-8.97,2.76-13.24,6.36-2.62,2.22-4.44,4.76-5.4,7.56-1.21,3.53-1.07,7.51,.42,11.81,1.39,4.01,3.97,7,7.49,8.66,3.54,1.67,7.87,1.84,11.56,.47,3.3-1.23,6.05-3.86,7.55-7.21,1.35-3.02,1.49-6.2,.4-8.97-.68-1.74-2.03-4.08-4.57-5.37-1.09-.56-2.04-.72-2.49-.77,2.81,1.58,6.54,6.65,4.54,11.86-1,2.6-3.24,4.69-6,5.58-2.73,.88-5.64,.51-7.98-1.02-2.51-1.64-4.1-4.62-4.15-7.79-.05-3.02,1.26-5.68,3.59-7.3,4.81-3.35,11.93-3.7,12.79-3.73l-4.52-10.15h.01Zm-17.08,25.36l-.15-.28s-2.76-5.27-.42-11.2c2.15-5.45,7.75-9.74,16.64-12.76l.05-.02,1.3,2.93h-.07s-4.99,.88-9.57,3.89c-2.69,1.76-4.74,3.91-6.08,6.39-1.68,3.09-2.27,6.7-1.74,10.73l.04,.32h0Zm16.06-24.11c-8.83,3.01-14.38,7.27-16.52,12.68-1.99,5.04-.29,9.56,.26,10.78-.45-3.91,.15-7.43,1.8-10.45,1.36-2.49,3.42-4.65,6.12-6.43,4.3-2.82,8.91-3.76,9.54-3.88,0,0-1.2-2.7-1.2-2.7Z"/>
              <path class="cls-3" d="M51.49,133.37c-2.21,0-4.42-.47-6.4-1.4-3.54-1.67-6.15-4.69-7.55-8.72-1.5-4.33-1.64-8.33-.42-11.89,.97-2.82,2.79-5.38,5.43-7.62,4.46-3.77,13.24-6.38,13.33-6.4l.05-.02,.02,.05,4.61,10.35h-.09c-.08,0-7.74,.18-12.82,3.71-2.3,1.6-3.59,4.23-3.54,7.2,.05,3.13,1.62,6.08,4.1,7.7,2.32,1.51,5.19,1.88,7.88,1,2.72-.88,4.94-2.94,5.93-5.51,2.03-5.3-1.93-10.45-4.73-11.84l-.23-.11h.25s5.03,.14,7.44,6.24c1.1,2.79,.96,6.01-.4,9.06-1.51,3.38-4.28,6.03-7.61,7.27-1.67,.62-3.46,.93-5.26,.93h0Zm4.38-35.9c-.71,.21-8.97,2.76-13.24,6.36-2.62,2.22-4.44,4.76-5.4,7.56-1.21,3.53-1.07,7.51,.42,11.81,1.39,4.01,3.97,7,7.49,8.66,3.54,1.67,7.87,1.84,11.56,.47,3.3-1.23,6.05-3.86,7.55-7.21,1.35-3.02,1.49-6.2,.4-8.97-.68-1.74-2.03-4.08-4.57-5.37-1.09-.56-2.04-.72-2.49-.77,2.81,1.58,6.54,6.65,4.54,11.86-1,2.6-3.24,4.69-6,5.58-2.73,.88-5.64,.51-7.98-1.02-2.51-1.64-4.1-4.62-4.15-7.79-.05-3.02,1.26-5.68,3.59-7.3,4.81-3.35,11.93-3.7,12.79-3.73l-4.52-10.15h.01Zm-17.08,25.36l-.15-.28s-2.76-5.27-.42-11.2c2.15-5.45,7.75-9.74,16.64-12.76l.05-.02,1.3,2.93h-.07s-4.99,.88-9.57,3.89c-2.69,1.76-4.74,3.91-6.08,6.39-1.68,3.09-2.27,6.7-1.74,10.73l.04,.32h0Zm16.06-24.11c-8.83,3.01-14.38,7.27-16.52,12.68-1.99,5.04-.29,9.56,.26,10.78-.45-3.91,.15-7.43,1.8-10.45,1.36-2.49,3.42-4.65,6.12-6.43,4.3-2.82,8.91-3.76,9.54-3.88,0,0-1.2-2.7-1.2-2.7Z"/>
            </g>
          </g>
        </g>
        <g class="cls-6">
          <g class="cls-14">
            <g>
              <path class="cls-1" d="M134.9,58.67c-.17,0-.34,0-.51-.03-1.25-.13-2.37-.75-3.16-1.72-.79-.98-1.15-2.21-1.02-3.46,.13-1.25,.75-2.37,1.72-3.16,0,0,.02-.01,.03-.02h.02c.85-.68,1.91-1.04,2.99-1.02h.02c.14,0,.28,.01,.42,.03h.02c.15,.02,.29,.04,.42,.07h.05c.15,.04,.27,.07,.38,.1,.02,0,.03,.01,.05,.02,0,0,.03,.01,.04,.01,.11,.04,.22,.07,.33,.12,.03,.01,.05,.02,.07,.04,.02,0,.03,.02,.05,.02h.02c.09,.05,.18,.09,.26,.14,.03,.02,.06,.04,.1,.06,.02,.01,.04,.02,.06,.03l.05,.03c.06,.04,.13,.07,.19,.12,.04,.03,.09,.06,.13,.1l.12,.09s.08,.06,.12,.09c.06,.05,.11,.1,.17,.15l.04,.04s.03,.03,.05,.05c.03,.02,.06,.05,.08,.08,.11,.11,.22,.23,.32,.36,.1,.13,.2,.26,.28,.39,.02,.03,.04,.06,.06,.1l.03,.06,.03,.06c.04,.07,.08,.13,.11,.2,.02,.05,.04,.09,.06,.14l.06,.13s.05,.1,.07,.15c.03,.07,.05,.14,.07,.21l.04,.12s.03,.07,.04,.11c.03,.09,.05,.18,.07,.27v.03s.02,.04,.02,.06c0,.03,0,.05,.02,.08,.02,.12,.04,.23,.05,.35v.1c0,.12,.02,.24,.02,.4v.05c0,.13,0,.27-.02,.42v.03c-.13,1.26-.74,2.39-1.73,3.19-.85,.68-1.88,1.05-2.95,1.05m0-9.3c-1.03,0-2.03,.35-2.84,.99,0,0-.02,.01-.02,.02,0,0,0,0-.02,.01-.96,.77-1.55,1.87-1.68,3.09-.13,1.22,.22,2.42,.99,3.37,1.59,1.97,4.49,2.28,6.46,.69,.96-.78,1.56-1.88,1.68-3.11v-.03c.02-.15,.02-.28,.02-.41v-.05c0-.15,0-.27-.02-.39v-.09c0-.12-.03-.23-.05-.34,0-.03,0-.05-.02-.07,0-.02,0-.04,0-.06v-.03c-.03-.09-.05-.18-.07-.26,0-.03-.02-.07-.03-.1,0-.02,0-.04-.02-.06l-.02-.06c-.02-.07-.04-.13-.07-.2-.02-.05-.04-.1-.06-.14l-.06-.14s-.04-.09-.06-.13c-.03-.06-.07-.13-.11-.19l-.03-.06s-.02-.04-.04-.06c-.02-.03-.03-.06-.05-.09-.08-.13-.18-.26-.27-.38-.1-.12-.2-.24-.31-.35-.03-.03-.05-.05-.08-.07-.02-.02-.04-.03-.05-.05l-.05-.04c-.05-.05-.11-.1-.16-.15-.04-.03-.08-.06-.12-.09l-.12-.09s-.08-.06-.12-.09c-.06-.04-.12-.08-.18-.11l-.05-.03s-.04-.02-.06-.04c-.03-.02-.06-.04-.09-.05-.08-.04-.17-.08-.26-.12h-.02s-.04-.03-.05-.04c-.02-.01-.04-.02-.07-.03-.11-.05-.22-.08-.33-.12,0,0-.03-.01-.04-.02,0,0-.03-.01-.04-.02-.11-.03-.22-.06-.37-.1h-.03s-.02-.01-.03-.01c-.13-.03-.26-.05-.41-.07h-.02c-.15-.02-.29-.03-.44-.03h-.07m-.1,6.85c-.08,0-.16,0-.23-.01-.58-.06-1.1-.34-1.46-.8-.75-.93-.61-2.3,.33-3.06,.03-.03,.07-.05,.1-.07,.02-.01,.04-.02,.06-.03,.34-.23,.73-.35,1.13-.37h.02c.13,0,.25,0,.37,.02,.02,0,.03,0,.05,.01h.03c.12,.02,.21,.04,.3,.07,.03,.01,.06,.02,.09,.04l.08,.03c.07,.03,.13,.05,.2,.09,.06,.03,.11,.07,.15,.1l.04,.03s.03,.02,.05,.03c.03,.02,.07,.04,.1,.07,.11,.09,.21,.2,.3,.3s.17,.23,.23,.36c.02,.04,.03,.07,.05,.11,0,.02,0,.04,.02,.06l.02,.05s.05,.11,.07,.17c.02,.07,.03,.14,.05,.21v.08s.03,.07,.03,.1c0,.09,0,.18,0,.31v.08c0,.12-.03,.24-.06,.35v.03c-.1,.39-.31,.74-.6,1.02-.02,.02-.03,.03-.05,.05l-.09,.09c-.39,.31-.87,.48-1.36,.48m-.07-4.22c-.39,.02-.76,.14-1.08,.35-.02,.01-.04,.03-.06,.04-.03,.02-.06,.04-.09,.06-.88,.71-1.02,2.01-.31,2.89,.35,.43,.84,.7,1.38,.75,.55,.06,1.08-.1,1.51-.44,.03-.02,.05-.05,.08-.07,.02-.02,.03-.04,.05-.05,.28-.26,.47-.6,.57-.97v-.02c.03-.11,.05-.23,.06-.34v-.37s0-.06-.02-.09l-.02-.08c0-.07-.02-.13-.04-.2-.02-.05-.04-.1-.06-.16l-.02-.05s-.02-.04-.02-.06c0-.03-.02-.06-.04-.1-.06-.12-.14-.24-.22-.34s-.18-.2-.28-.29c-.03-.02-.06-.04-.09-.06-.02-.01-.04-.02-.05-.04l-.04-.03s-.09-.07-.14-.09c-.06-.03-.12-.06-.18-.08h-.03s-.03-.03-.05-.03c-.03-.01-.05-.02-.08-.03-.08-.03-.17-.05-.28-.07h-.08c-.11-.02-.22-.02-.34-.02h-.03Zm-9,1.83l-1.76-2.18,2.18-1.76-1.2-1.49c.03,.12,.04,.24,.03,.36-.02,.29-.15,.54-.37,.73l-.02,.02c-.34,.27-.77,.31-1.13,.14l.06,.09-.23-.19c-.07-.05-.13-.11-.19-.18l.03-.03c-.83-1.4-1-3.64,.93-5.88,2.26-2.62,3.19-3.93,3.11-5.26-.02-.28,.08-.56,.26-.78s.45-.34,.74-.36c.23-.02,.46,.05,.66,.18h0v.02l.09,.2-.03-.02s.02,.1,.02,.15c.04,.61-.05,1.22-.26,1.87l4.09,5.07,2.26-1.83,1.76,2.18-.05,.04-11.01,8.89,.02,.02Zm-1.6-2.16l1.61,2,10.88-8.78-1.61-2-2.26,1.83-.04-.05-4.17-5.17v-.03c.23-.65,.32-1.25,.28-1.86,0-.09-.03-.18-.07-.28-.18-.11-.38-.17-.58-.15-.25,.02-.49,.13-.66,.32-.17,.19-.25,.44-.24,.69,.09,1.37-.85,2.7-3.14,5.35-1.95,2.26-1.71,4.52-.84,5.87h0c.34,.28,.84,.29,1.2,0l.02-.02c.19-.17,.31-.4,.33-.65,.02-.25-.06-.5-.23-.69-.01-.02-.08-.1-.16-.24l.1-.07,1.74,2.16-2.18,1.76h.02Zm-3.06-5.43c-.16,0-.31-.03-.45-.1l.06,.09-.22-.19c-.07-.05-.14-.11-.19-.18h0l.03-.03c-.83-1.4-1-3.64,.93-5.88,2.26-2.62,3.19-3.93,3.11-5.26-.02-.29,.08-.56,.26-.78,.19-.21,.45-.34,.73-.36,.23-.02,.47,.05,.67,.18h.01v.03c.05,.12,.07,.22,.08,.33,.04,.61-.05,1.22-.26,1.87l1.07,1.33,.12-.12-.07,.22c-.04,.12-.05,.23-.04,.34,.09,1.37-.85,2.7-3.14,5.35-.61,.7-1.03,1.45-1.27,2.22h0l-.11-.03h0v-.02h0l-.3-.37c.03,.12,.04,.24,.03,.36-.02,.28-.15,.54-.37,.73l-.02,.02c-.2,.16-.44,.24-.67,.24m-.6-.33c.34,.28,.84,.29,1.2,0l.02-.02c.19-.17,.31-.4,.33-.65,.02-.25-.06-.5-.23-.69,0,0-.07-.08-.16-.24l.1-.07,.71,.88c.25-.73,.67-1.44,1.24-2.11,2.26-2.62,3.19-3.93,3.11-5.26,0-.12,0-.23,.04-.35l-1.14-1.41v-.03c.23-.65,.32-1.25,.28-1.86,0-.09-.03-.18-.07-.28-.18-.12-.38-.17-.58-.16-.25,.02-.49,.13-.65,.32-.17,.19-.25,.44-.24,.69,.09,1.37-.85,2.7-3.14,5.35-1.95,2.26-1.71,4.52-.84,5.87h0l.02,.02Zm-2.24-3.19c-.16,0-.31-.03-.45-.1l.06,.09-.23-.19c-.07-.05-.13-.11-.19-.18l.03-.03c-.83-1.41-1-3.64,.93-5.88,2.26-2.62,3.19-3.93,3.11-5.26-.02-.28,.08-.56,.26-.78,.19-.21,.45-.34,.74-.36,.24-.02,.47,.05,.67,.19h.02v.03c.05,.12,.07,.22,.08,.33,.04,.61-.05,1.22-.26,1.87l1.13,1.4v.03c-.05,.12-.06,.23-.05,.34,.09,1.37-.85,2.7-3.14,5.35-.61,.7-1.03,1.45-1.27,2.23l-.11-.03v-.02h0l-.3-.37c.03,.12,.04,.24,.03,.36-.02,.29-.15,.54-.37,.73,0,0-.02,.01-.02,.02-.2,.16-.44,.24-.67,.24m-.6-.33c.34,.28,.84,.29,1.2,0h0s.01-.01,.02-.02c.19-.17,.31-.4,.33-.65,.02-.25-.06-.5-.23-.69,0,0-.07-.08-.16-.24l.1-.07,.71,.88c.25-.73,.67-1.44,1.24-2.11,2.26-2.62,3.19-3.93,3.11-5.26,0-.12,0-.24,.04-.36l-1.13-1.41v-.03c.23-.65,.32-1.25,.28-1.86,0-.09-.03-.18-.07-.28-.18-.11-.38-.17-.58-.16-.25,.02-.49,.13-.66,.32-.17,.19-.25,.44-.24,.69,.09,1.37-.85,2.7-3.14,5.35-1.95,2.26-1.71,4.52-.84,5.87h0l.02,.03Zm-2.24-3.19c-.15,0-.31-.03-.45-.1l.06,.09-.23-.19c-.07-.05-.13-.11-.19-.17h0l.03-.03c-.83-1.41-1-3.64,.93-5.88,2.26-2.62,3.19-3.93,3.11-5.26-.04-.59,.41-1.1,1-1.14,.24-.02,.46,.05,.66,.18h.01v.02l.09,.19h-.02s.02,.09,.02,.14c.04,.61-.05,1.22-.26,1.87l1.13,1.4v.03c-.05,.12-.06,.23-.05,.34,.09,1.37-.85,2.7-3.14,5.35-.61,.7-1.03,1.45-1.27,2.22h0l-.11-.03v-.02h0l-.3-.37c.03,.12,.04,.24,.03,.36-.02,.29-.15,.54-.37,.73l-.02,.02c-.2,.16-.44,.24-.67,.24m-.6-.33c.34,.28,.84,.29,1.2,0l.02-.02c.19-.17,.31-.4,.33-.65,.02-.25-.06-.5-.23-.69-.01-.02-.08-.1-.16-.24l.1-.07,.71,.88c.25-.73,.67-1.44,1.24-2.11,2.26-2.62,3.19-3.93,3.11-5.26,0-.12,0-.24,.04-.35l-1.13-1.41v-.03c.23-.65,.32-1.25,.28-1.86,0-.09-.03-.18-.07-.28-.18-.11-.38-.17-.58-.15-.52,.03-.92,.49-.89,1.01,.09,1.37-.85,2.7-3.14,5.35-1.95,2.26-1.71,4.52-.84,5.87h.01Zm-2.24-3.18c-.15,0-.31-.03-.45-.1l.06,.1-.23-.2c-.07-.05-.13-.11-.19-.18l.03-.03c-.83-1.4-1-3.64,.93-5.88,2.26-2.62,3.19-3.93,3.11-5.26-.04-.59,.41-1.1,1-1.14,.17-.01,.34,.02,.49,.09-.07-.11-.16-.2-.28-.27l.06-.1c.17,.11,.3,.26,.38,.44,0,.01,.01,.02,.02,.03v.02c.05,.12,.08,.22,.09,.33,.04,.61-.05,1.22-.26,1.87l1.13,1.4v.03c-.05,.12-.06,.23-.05,.34,.09,1.37-.85,2.7-3.14,5.35-.61,.7-1.03,1.45-1.27,2.23h0l-.11-.03h0v-.02h0l-.3-.37c.03,.12,.04,.24,.03,.36-.02,.29-.15,.54-.37,.73,0,0-.01,.01-.02,.02-.2,.16-.44,.24-.68,.24m-.6-.33c.34,.28,.84,.29,1.2,0l.02-.02c.19-.17,.31-.4,.33-.65,.02-.25-.06-.5-.23-.69,0,0-.07-.08-.16-.24l.1-.07,.71,.88c.25-.73,.67-1.44,1.24-2.11,2.26-2.62,3.19-3.93,3.11-5.26,0-.12,0-.23,.04-.35l-1.14-1.41v-.03c.23-.65,.32-1.25,.28-1.86,0-.09-.03-.18-.07-.28-.18-.12-.38-.17-.58-.16-.52,.03-.92,.49-.89,1.01,.09,1.37-.85,2.7-3.14,5.35-1.95,2.26-1.71,4.52-.84,5.87h0l.02,.02Zm-.82-4.06l-3.69-4.57-2.18,1.76-1.76-2.18,.05-.04,11.02-8.89,1.76,2.18-2.26,1.83,1.55,1.92v.03c-.05,.12-.06,.23-.05,.34,.09,1.37-.85,2.7-3.14,5.35-.59,.69-1.02,1.42-1.26,2.17l-.03,.1h-.01Zm-3.67-4.73l3.63,4.49c.25-.73,.67-1.44,1.24-2.11,2.26-2.62,3.19-3.93,3.11-5.26,0-.12,0-.24,.04-.35l-1.58-1.96,2.26-1.83-1.61-2-10.88,8.78,1.61,2,2.18-1.76Zm-1.95-4.3c-1.38,0-2.74-.6-3.67-1.75-1.63-2.02-1.31-4.99,.71-6.62,0,0,.02-.01,.03-.02h.02c.98-.79,2.2-1.13,3.44-1h.02c.16,.02,.29,.04,.42,.07h.05c.15,.04,.27,.07,.38,.1,.02,0,.04,.01,.06,.02,.01,0,.03,0,.04,.01,.11,.04,.22,.08,.33,.12,.03,.01,.05,.02,.08,.04,.02,0,.03,.02,.05,.02h.03c.08,.05,.17,.09,.25,.13,.03,.02,.06,.04,.1,.06,.02,.01,.04,.02,.06,.03l.06,.03c.06,.04,.12,.07,.18,.11,.05,.03,.09,.07,.13,.1l.12,.09,.12,.09c.06,.05,.11,.1,.16,.15l.05,.05s.03,.03,.05,.05c.03,.03,.06,.05,.08,.08,.11,.11,.22,.23,.32,.36,.1,.13,.2,.26,.28,.39,.02,.03,.04,.06,.06,.1,.01,.02,.02,.04,.03,.06l.03,.05c.04,.07,.08,.13,.11,.2,.02,.04,.04,.09,.06,.14l.06,.14s.05,.1,.07,.15c.03,.07,.05,.14,.07,.21l.02,.06s.01,.04,.02,.06c.01,.03,.03,.07,.04,.1,.03,.09,.04,.18,.06,.27v.04s.02,.04,.02,.05c0,.03,.01,.06,.02,.08,.02,.12,.04,.24,.05,.35v.1c.01,.12,.02,.24,.02,.4v.05c0,.13,0,.27-.02,.42v.03c-.13,1.26-.74,2.39-1.73,3.19-.87,.7-1.91,1.04-2.95,1.04m-2.86-8.31h-.01s-.01,.01-.02,.02c-1.97,1.59-2.28,4.49-.69,6.46s4.49,2.28,6.46,.69c.96-.78,1.56-1.88,1.68-3.11v-.03c.02-.15,.02-.28,.02-.41v-.05c0-.15,0-.27-.02-.39v-.1c-.01-.1-.03-.22-.05-.34,0-.03-.01-.05-.02-.08,0-.02-.01-.04-.01-.06v-.04c-.03-.09-.05-.17-.07-.26,0-.03-.02-.06-.03-.1,0-.02-.02-.04-.02-.07l-.02-.06c-.02-.07-.04-.14-.07-.2-.02-.05-.04-.1-.06-.14l-.06-.14s-.04-.09-.06-.13c-.03-.07-.07-.13-.11-.19l-.03-.05s-.02-.04-.04-.06c-.02-.03-.03-.06-.05-.09-.08-.13-.18-.26-.27-.38-.1-.12-.2-.24-.31-.35-.02-.03-.05-.05-.08-.07-.02-.02-.04-.03-.05-.05l-.05-.05c-.05-.05-.1-.1-.16-.14-.04-.03-.08-.06-.11-.09l-.12-.09s-.08-.07-.13-.09c-.06-.04-.12-.07-.18-.11l-.06-.03s-.04-.02-.06-.04c-.03-.02-.06-.04-.09-.05-.08-.04-.16-.08-.24-.12h-.03s-.04-.03-.05-.04c-.02-.01-.05-.02-.07-.03-.1-.04-.21-.08-.32-.12-.01,0-.03-.01-.04-.02-.02,0-.03-.01-.05-.02-.11-.03-.22-.06-.37-.1h-.06c-.13-.03-.26-.05-.41-.07h-.02c-1.21-.14-2.4,.2-3.35,.95h0l-.02,.02h0l-.02,.02Zm2.75,5.85c-.63,0-1.26-.28-1.69-.81-.36-.45-.53-1.02-.47-1.6,.06-.58,.34-1.1,.8-1.46,.03-.03,.07-.05,.1-.07,.02-.01,.04-.02,.06-.03,.34-.23,.73-.35,1.13-.37h.02c.13,0,.25,0,.37,.02h.08c.12,.02,.21,.04,.3,.07,.03,.01,.06,.02,.09,.04l.07,.03c.07,.03,.13,.05,.2,.09,.05,.03,.1,.06,.15,.1l.04,.03s.03,.02,.05,.03c.03,.02,.07,.04,.1,.07,.11,.09,.21,.2,.3,.3,.09,.11,.17,.23,.23,.36,.02,.04,.03,.07,.05,.11,0,.02,.01,.04,.02,.06l.02,.05s.05,.11,.07,.17c.02,.07,.03,.14,.05,.21v.03s.01,.03,.02,.05c0,.03,.01,.06,.02,.1,.01,.09,.01,.18,0,.31v.08c0,.12-.03,.24-.06,.35v.03c-.11,.39-.31,.75-.61,1.03-.02,.01-.03,.03-.04,.05l-.09,.09c-.4,.32-.88,.48-1.36,.48m-.07-4.22c-.39,.02-.76,.14-1.08,.35-.02,.01-.04,.03-.06,.04-.03,.02-.06,.04-.09,.06-.43,.35-.7,.84-.75,1.38-.06,.55,.1,1.08,.44,1.51,.71,.88,2.01,1.02,2.89,.31,.03-.02,.05-.05,.08-.08,.02-.02,.03-.03,.05-.05,.28-.26,.47-.6,.57-.97v-.02c.03-.11,.05-.23,.06-.34v-.37s0-.06-.02-.08c0-.02,0-.04-.01-.05v-.03c-.02-.07-.03-.13-.05-.2-.02-.05-.04-.1-.06-.16l-.02-.05s-.02-.04-.02-.06c-.01-.03-.02-.07-.04-.1-.06-.12-.14-.24-.22-.34s-.18-.2-.28-.29c-.03-.02-.06-.04-.09-.06-.02-.01-.04-.02-.05-.04l-.04-.03s-.09-.07-.14-.09c-.06-.03-.12-.06-.19-.08l-.08-.03s-.05-.02-.08-.03c-.08-.03-.17-.05-.28-.07h-.08c-.11-.02-.22-.02-.34-.02h-.02Z"/>
              <path class="cls-3" d="M134.9,58.67c-.17,0-.34,0-.51-.03-1.25-.13-2.37-.75-3.16-1.72-.79-.98-1.15-2.21-1.02-3.46,.13-1.25,.75-2.37,1.72-3.16,0,0,.02-.01,.03-.02h.02c.85-.68,1.91-1.04,2.99-1.02h.02c.14,0,.28,.01,.42,.03h.02c.15,.02,.29,.04,.42,.07h.05c.15,.04,.27,.07,.38,.1,.02,0,.03,.01,.05,.02,0,0,.03,.01,.04,.01,.11,.04,.22,.07,.33,.12,.03,.01,.05,.02,.07,.04,.02,0,.03,.02,.05,.02h.02c.09,.05,.18,.09,.26,.14,.03,.02,.06,.04,.1,.06,.02,.01,.04,.02,.06,.03l.05,.03c.06,.04,.13,.07,.19,.12,.04,.03,.09,.06,.13,.1l.12,.09s.08,.06,.12,.09c.06,.05,.11,.1,.17,.15l.04,.04s.03,.03,.05,.05c.03,.02,.06,.05,.08,.08,.11,.11,.22,.23,.32,.36,.1,.13,.2,.26,.28,.39,.02,.03,.04,.06,.06,.1l.03,.06,.03,.06c.04,.07,.08,.13,.11,.2,.02,.05,.04,.09,.06,.14l.06,.13s.05,.1,.07,.15c.03,.07,.05,.14,.07,.21l.04,.12s.03,.07,.04,.11c.03,.09,.05,.18,.07,.27v.03s.02,.04,.02,.06c0,.03,0,.05,.02,.08,.02,.12,.04,.23,.05,.35v.1c0,.12,.02,.24,.02,.4v.05c0,.13,0,.27-.02,.42v.03c-.13,1.26-.74,2.39-1.73,3.19-.85,.68-1.88,1.05-2.95,1.05l.04-.04Zm0-9.3c-1.03,0-2.03,.35-2.84,.99,0,0-.02,.01-.02,.02,0,0,0,0-.02,.01-.96,.77-1.55,1.87-1.68,3.09-.13,1.22,.22,2.42,.99,3.37,1.59,1.97,4.49,2.28,6.46,.69,.96-.78,1.56-1.88,1.68-3.11v-.03c.02-.15,.02-.28,.02-.41v-.05c0-.15,0-.27-.02-.39v-.09c0-.12-.03-.23-.05-.34,0-.03,0-.05-.02-.07,0-.02,0-.04,0-.06v-.03c-.03-.09-.05-.18-.07-.26,0-.03-.02-.07-.03-.1,0-.02,0-.04-.02-.06l-.02-.06c-.02-.07-.04-.13-.07-.2-.02-.05-.04-.1-.06-.14l-.06-.14s-.04-.09-.06-.13c-.03-.06-.07-.13-.11-.19l-.03-.06s-.02-.04-.04-.06c-.02-.03-.03-.06-.05-.09-.08-.13-.18-.26-.27-.38-.1-.12-.2-.24-.31-.35-.03-.03-.05-.05-.08-.07-.02-.02-.04-.03-.05-.05l-.05-.04c-.05-.05-.11-.1-.16-.15-.04-.03-.08-.06-.12-.09l-.12-.09s-.08-.06-.12-.09c-.06-.04-.12-.08-.18-.11l-.05-.03s-.04-.02-.06-.04c-.03-.02-.06-.04-.09-.05-.08-.04-.17-.08-.26-.12h-.02s-.04-.03-.05-.04c-.02-.01-.04-.02-.07-.03-.11-.05-.22-.08-.33-.12,0,0-.03-.01-.04-.02,0,0-.03-.01-.04-.02-.11-.03-.22-.06-.37-.1h-.03s-.02-.01-.03-.01c-.13-.03-.26-.05-.41-.07h-.02c-.15-.02-.29-.03-.44-.03h-.1Zm-.1,6.85c-.08,0-.16,0-.23-.01-.58-.06-1.1-.34-1.46-.8-.75-.93-.61-2.3,.33-3.06,.03-.03,.07-.05,.1-.07,.02-.01,.04-.02,.06-.03,.34-.23,.73-.35,1.13-.37h.02c.13,0,.25,0,.37,.02,.02,0,.03,0,.05,.01h.03c.12,.02,.21,.04,.3,.07,.03,.01,.06,.02,.09,.04l.08,.03c.07,.03,.13,.05,.2,.09,.06,.03,.11,.07,.15,.1l.04,.03s.03,.02,.05,.03c.03,.02,.07,.04,.1,.07,.11,.09,.21,.2,.3,.3s.17,.23,.23,.36c.02,.04,.03,.07,.05,.11,0,.02,0,.04,.02,.06l.02,.05s.05,.11,.07,.17c.02,.07,.03,.14,.05,.21v.08s.03,.07,.03,.1c0,.09,0,.18,0,.31v.08c0,.12-.03,.24-.06,.35v.03c-.1,.39-.31,.74-.6,1.02-.02,.02-.03,.03-.05,.05l-.09,.09c-.39,.31-.87,.48-1.36,.48h-.02Zm-.07-4.22c-.39,.02-.76,.14-1.08,.35-.02,.01-.04,.03-.06,.04-.03,.02-.06,.04-.09,.06-.88,.71-1.02,2.01-.31,2.89,.35,.43,.84,.7,1.38,.75,.55,.06,1.08-.1,1.51-.44,.03-.02,.05-.05,.08-.07,.02-.02,.03-.04,.05-.05,.28-.26,.47-.6,.57-.97v-.02c.03-.11,.05-.23,.06-.34v-.37s0-.06-.02-.09l-.02-.08c0-.07-.02-.13-.04-.2-.02-.05-.04-.1-.06-.16l-.02-.05s-.02-.04-.02-.06c0-.03-.02-.06-.04-.1-.06-.12-.14-.24-.22-.34s-.18-.2-.28-.29c-.03-.02-.06-.04-.09-.06-.02-.01-.04-.02-.05-.04l-.04-.03s-.09-.07-.14-.09c-.06-.03-.12-.06-.18-.08h-.03s-.03-.03-.05-.03c-.03-.01-.05-.02-.08-.03-.08-.03-.17-.05-.28-.07h-.08c-.11-.02-.22-.02-.34-.02h-.03Zm-9,1.83l-1.76-2.18,2.18-1.76-1.2-1.49c.03,.12,.04,.24,.03,.36-.02,.29-.15,.54-.37,.73l-.02,.02c-.34,.27-.77,.31-1.13,.14l.06,.09-.23-.19c-.07-.05-.13-.11-.19-.18l.03-.03c-.83-1.4-1-3.64,.93-5.88,2.26-2.62,3.19-3.93,3.11-5.26-.02-.28,.08-.56,.26-.78s.45-.34,.74-.36c.23-.02,.46,.05,.66,.18h0v.02l.09,.2-.03-.02s.02,.1,.02,.15c.04,.61-.05,1.22-.26,1.87l4.09,5.07,2.26-1.83,1.76,2.18-.05,.04-11.01,8.89,.02,.02Zm-1.6-2.16l1.61,2,10.88-8.78-1.61-2-2.26,1.83-.04-.05-4.17-5.17v-.03c.23-.65,.32-1.25,.28-1.86,0-.09-.03-.18-.07-.28-.18-.11-.38-.17-.58-.15-.25,.02-.49,.13-.66,.32-.17,.19-.25,.44-.24,.69,.09,1.37-.85,2.7-3.14,5.35-1.95,2.26-1.71,4.52-.84,5.87h0c.34,.28,.84,.29,1.2,0l.02-.02c.19-.17,.31-.4,.33-.65,.02-.25-.06-.5-.23-.69-.01-.02-.08-.1-.16-.24l.1-.07,1.74,2.16-2.18,1.76h.02Zm-3.06-5.43c-.16,0-.31-.03-.45-.1l.06,.09-.22-.19c-.07-.05-.14-.11-.19-.18h0l.03-.03c-.83-1.4-1-3.64,.93-5.88,2.26-2.62,3.19-3.93,3.11-5.26-.02-.29,.08-.56,.26-.78,.19-.21,.45-.34,.73-.36,.23-.02,.47,.05,.67,.18h.01v.03c.05,.12,.07,.22,.08,.33,.04,.61-.05,1.22-.26,1.87l1.07,1.33,.12-.12-.07,.22c-.04,.12-.05,.23-.04,.34,.09,1.37-.85,2.7-3.14,5.35-.61,.7-1.03,1.45-1.27,2.22h0l-.11-.03h0v-.02h0l-.3-.37c.03,.12,.04,.24,.03,.36-.02,.28-.15,.54-.37,.73l-.02,.02c-.2,.16-.44,.24-.67,.24h0Zm-.6-.32c.34,.28,.84,.29,1.2,0l.02-.02c.19-.17,.31-.4,.33-.65,.02-.25-.06-.5-.23-.69,0,0-.07-.08-.16-.24l.1-.07,.71,.88c.25-.73,.67-1.44,1.24-2.11,2.26-2.62,3.19-3.93,3.11-5.26,0-.12,0-.23,.04-.35l-1.14-1.41v-.03c.23-.65,.32-1.25,.28-1.86,0-.09-.03-.18-.07-.28-.18-.12-.38-.17-.58-.16-.25,.02-.49,.13-.65,.32-.17,.19-.25,.44-.24,.69,.09,1.37-.85,2.7-3.14,5.35-1.95,2.26-1.71,4.52-.84,5.87h0l.02,.02Zm-2.24-3.19c-.16,0-.31-.03-.45-.1l.06,.09-.23-.19c-.07-.05-.13-.11-.19-.18l.03-.03c-.83-1.41-1-3.64,.93-5.88,2.26-2.62,3.19-3.93,3.11-5.26-.02-.28,.08-.56,.26-.78,.19-.21,.45-.34,.74-.36,.24-.02,.47,.05,.67,.19h.02v.03c.05,.12,.07,.22,.08,.33,.04,.61-.05,1.22-.26,1.87l1.13,1.4v.03c-.05,.12-.06,.23-.05,.34,.09,1.37-.85,2.7-3.14,5.35-.61,.7-1.03,1.45-1.27,2.23l-.11-.03v-.02h0l-.3-.37c.03,.12,.04,.24,.03,.36-.02,.29-.15,.54-.37,.73,0,0-.02,.01-.02,.02-.2,.16-.44,.24-.67,.24h0Zm-.6-.34c.34,.28,.84,.29,1.2,0h0s.01-.01,.02-.02c.19-.17,.31-.4,.33-.65,.02-.25-.06-.5-.23-.69,0,0-.07-.08-.16-.24l.1-.07,.71,.88c.25-.73,.67-1.44,1.24-2.11,2.26-2.62,3.19-3.93,3.11-5.26,0-.12,0-.24,.04-.36l-1.13-1.41v-.03c.23-.65,.32-1.25,.28-1.86,0-.09-.03-.18-.07-.28-.18-.11-.38-.17-.58-.16-.25,.02-.49,.13-.66,.32-.17,.19-.25,.44-.24,.69,.09,1.37-.85,2.7-3.14,5.35-1.95,2.26-1.71,4.52-.84,5.87h0l.02,.03Zm-2.24-3.19c-.15,0-.31-.03-.45-.1l.06,.09-.23-.19c-.07-.05-.13-.11-.19-.17h0l.03-.03c-.83-1.41-1-3.64,.93-5.88,2.26-2.62,3.19-3.93,3.11-5.26-.04-.59,.41-1.1,1-1.14,.24-.02,.46,.05,.66,.18h.01v.02l.09,.19h-.02s.02,.09,.02,.14c.04,.61-.05,1.22-.26,1.87l1.13,1.4v.03c-.05,.12-.06,.23-.05,.34,.09,1.37-.85,2.7-3.14,5.35-.61,.7-1.03,1.45-1.27,2.22h0l-.11-.03v-.02h0l-.3-.37c.03,.12,.04,.24,.03,.36-.02,.29-.15,.54-.37,.73l-.02,.02c-.2,.16-.44,.24-.67,.24h.01Zm-.6-.32c.34,.28,.84,.29,1.2,0l.02-.02c.19-.17,.31-.4,.33-.65,.02-.25-.06-.5-.23-.69-.01-.02-.08-.1-.16-.24l.1-.07,.71,.88c.25-.73,.67-1.44,1.24-2.11,2.26-2.62,3.19-3.93,3.11-5.26,0-.12,0-.24,.04-.35l-1.13-1.41v-.03c.23-.65,.32-1.25,.28-1.86,0-.09-.03-.18-.07-.28-.18-.11-.38-.17-.58-.15-.52,.03-.92,.49-.89,1.01,.09,1.37-.85,2.7-3.14,5.35-1.95,2.26-1.71,4.52-.84,5.87h.01Zm-2.24-3.18c-.15,0-.31-.03-.45-.1l.06,.1-.23-.2c-.07-.05-.13-.11-.19-.18l.03-.03c-.83-1.4-1-3.64,.93-5.88,2.26-2.62,3.19-3.93,3.11-5.26-.04-.59,.41-1.1,1-1.14,.17-.01,.34,.02,.49,.09-.07-.11-.16-.2-.28-.27l.06-.1c.17,.11,.3,.26,.38,.44,0,.01,.01,.02,.02,.03v.02c.05,.12,.08,.22,.09,.33,.04,.61-.05,1.22-.26,1.87l1.13,1.4v.03c-.05,.12-.06,.23-.05,.34,.09,1.37-.85,2.7-3.14,5.35-.61,.7-1.03,1.45-1.27,2.23h0l-.11-.03h0v-.02h0l-.3-.37c.03,.12,.04,.24,.03,.36-.02,.29-.15,.54-.37,.73,0,0-.01,.01-.02,.02-.2,.16-.44,.24-.68,.24h.02Zm-.6-.33c.34,.28,.84,.29,1.2,0l.02-.02c.19-.17,.31-.4,.33-.65,.02-.25-.06-.5-.23-.69,0,0-.07-.08-.16-.24l.1-.07,.71,.88c.25-.73,.67-1.44,1.24-2.11,2.26-2.62,3.19-3.93,3.11-5.26,0-.12,0-.23,.04-.35l-1.14-1.41v-.03c.23-.65,.32-1.25,.28-1.86,0-.09-.03-.18-.07-.28-.18-.12-.38-.17-.58-.16-.52,.03-.92,.49-.89,1.01,.09,1.37-.85,2.7-3.14,5.35-1.95,2.26-1.71,4.52-.84,5.87h0l.02,.02Zm-.82-4.06l-3.69-4.57-2.18,1.76-1.76-2.18,.05-.04,11.02-8.89,1.76,2.18-2.26,1.83,1.55,1.92v.03c-.05,.12-.06,.23-.05,.34,.09,1.37-.85,2.7-3.14,5.35-.59,.69-1.02,1.42-1.26,2.17l-.03,.1h0Zm-3.67-4.73l3.63,4.49c.25-.73,.67-1.44,1.24-2.11,2.26-2.62,3.19-3.93,3.11-5.26,0-.12,0-.24,.04-.35l-1.58-1.96,2.26-1.83-1.61-2-10.88,8.78,1.61,2,2.18-1.76Zm-1.95-4.3c-1.38,0-2.74-.6-3.67-1.75-1.63-2.02-1.31-4.99,.71-6.62,0,0,.02-.01,.03-.02h.02c.98-.79,2.2-1.13,3.44-1h.02c.16,.02,.29,.04,.42,.07h.05c.15,.04,.27,.07,.38,.1,.02,0,.04,.01,.06,.02,.01,0,.03,0,.04,.01,.11,.04,.22,.08,.33,.12,.03,.01,.05,.02,.08,.04,.02,0,.03,.02,.05,.02h.03c.08,.05,.17,.09,.25,.13,.03,.02,.06,.04,.1,.06,.02,.01,.04,.02,.06,.03l.06,.03c.06,.04,.12,.07,.18,.11,.05,.03,.09,.07,.13,.1l.12,.09,.12,.09c.06,.05,.11,.1,.16,.15l.05,.05s.03,.03,.05,.05c.03,.03,.06,.05,.08,.08,.11,.11,.22,.23,.32,.36,.1,.13,.2,.26,.28,.39,.02,.03,.04,.06,.06,.1,.01,.02,.02,.04,.03,.06l.03,.05c.04,.07,.08,.13,.11,.2,.02,.04,.04,.09,.06,.14l.06,.14s.05,.1,.07,.15c.03,.07,.05,.14,.07,.21l.02,.06s.01,.04,.02,.06c.01,.03,.03,.07,.04,.1,.03,.09,.04,.18,.06,.27v.04s.02,.04,.02,.05c0,.03,.01,.06,.02,.08,.02,.12,.04,.24,.05,.35v.1c.01,.12,.02,.24,.02,.4v.05c0,.13,0,.27-.02,.42v.03c-.13,1.26-.74,2.39-1.73,3.19-.87,.7-1.91,1.04-2.95,1.04h.01Zm-2.86-8.31h-.01s-.01,.01-.02,.02c-1.97,1.59-2.28,4.49-.69,6.46s4.49,2.28,6.46,.69c.96-.78,1.56-1.88,1.68-3.11v-.03c.02-.15,.02-.28,.02-.41v-.05c0-.15,0-.27-.02-.39v-.1c-.01-.1-.03-.22-.05-.34,0-.03-.01-.05-.02-.08,0-.02-.01-.04-.01-.06v-.04c-.03-.09-.05-.17-.07-.26,0-.03-.02-.06-.03-.1,0-.02-.02-.04-.02-.07l-.02-.06c-.02-.07-.04-.14-.07-.2-.02-.05-.04-.1-.06-.14l-.06-.14s-.04-.09-.06-.13c-.03-.07-.07-.13-.11-.19l-.03-.05s-.02-.04-.04-.06c-.02-.03-.03-.06-.05-.09-.08-.13-.18-.26-.27-.38-.1-.12-.2-.24-.31-.35-.02-.03-.05-.05-.08-.07-.02-.02-.04-.03-.05-.05l-.05-.05c-.05-.05-.1-.1-.16-.14-.04-.03-.08-.06-.11-.09l-.12-.09s-.08-.07-.13-.09c-.06-.04-.12-.07-.18-.11l-.06-.03s-.04-.02-.06-.04c-.03-.02-.06-.04-.09-.05-.08-.04-.16-.08-.24-.12h-.03s-.04-.03-.05-.04c-.02-.01-.05-.02-.07-.03-.1-.04-.21-.08-.32-.12-.01,0-.03-.01-.04-.02-.02,0-.03-.01-.05-.02-.11-.03-.22-.06-.37-.1h-.06c-.13-.03-.26-.05-.41-.07h-.02c-1.21-.14-2.4,.2-3.35,.95h0l-.02,.02h0l-.02,.02Zm2.75,5.85c-.63,0-1.26-.28-1.69-.81-.36-.45-.53-1.02-.47-1.6,.06-.58,.34-1.1,.8-1.46,.03-.03,.07-.05,.1-.07,.02-.01,.04-.02,.06-.03,.34-.23,.73-.35,1.13-.37h.02c.13,0,.25,0,.37,.02h.08c.12,.02,.21,.04,.3,.07,.03,.01,.06,.02,.09,.04l.07,.03c.07,.03,.13,.05,.2,.09,.05,.03,.1,.06,.15,.1l.04,.03s.03,.02,.05,.03c.03,.02,.07,.04,.1,.07,.11,.09,.21,.2,.3,.3,.09,.11,.17,.23,.23,.36,.02,.04,.03,.07,.05,.11,0,.02,.01,.04,.02,.06l.02,.05s.05,.11,.07,.17c.02,.07,.03,.14,.05,.21v.03s.01,.03,.02,.05c0,.03,.01,.06,.02,.1,.01,.09,.01,.18,0,.31v.08c0,.12-.03,.24-.06,.35v.03c-.11,.39-.31,.75-.61,1.03-.02,.01-.03,.03-.04,.05l-.09,.09c-.4,.32-.88,.48-1.36,.48h-.02Zm-.07-4.22c-.39,.02-.76,.14-1.08,.35-.02,.01-.04,.03-.06,.04-.03,.02-.06,.04-.09,.06-.43,.35-.7,.84-.75,1.38-.06,.55,.1,1.08,.44,1.51,.71,.88,2.01,1.02,2.89,.31,.03-.02,.05-.05,.08-.08,.02-.02,.03-.03,.05-.05,.28-.26,.47-.6,.57-.97v-.02c.03-.11,.05-.23,.06-.34v-.37s0-.06-.02-.08c0-.02,0-.04-.01-.05v-.03c-.02-.07-.03-.13-.05-.2-.02-.05-.04-.1-.06-.16l-.02-.05s-.02-.04-.02-.06c-.01-.03-.02-.07-.04-.1-.06-.12-.14-.24-.22-.34s-.18-.2-.28-.29c-.03-.02-.06-.04-.09-.06-.02-.01-.04-.02-.05-.04l-.04-.03s-.09-.07-.14-.09c-.06-.03-.12-.06-.19-.08l-.08-.03s-.05-.02-.08-.03c-.08-.03-.17-.05-.28-.07h-.08c-.11-.02-.22-.02-.34-.02h-.02Z"/>
            </g>
          </g>
        </g>
        <g class="cls-7">
          <g class="cls-5">
            <path class="cls-1" d="M38.58,95.54s-20.12,35.23,30.14,28.93l-7.55,14.36s-23.42,1.94-30.33-8.79c-6.3-9.79,7.73-34.5,7.73-34.5"/>
          </g>
        </g>
        <g class="cls-7">
          <g class="cls-8">
            <path class="cls-1" d="M152.82,65.1c7.35,18.75-11.42,28.18-32.83,23.62l11.31,22.21,35.65-18.99-14.13-26.83h0Z"/>
          </g>
        </g>
        <path class="cls-1" d="M0,167.71H149.76l-13.96-23.31c-4.84-7.91-14.41-12.6-23.75-12.6h-47.19c-29.06,0-38.05-14.25-26.28-36.26L0,167.71Z"/>
        <path class="cls-1" d="M123.58,95.54h-16.94c-5.72,0-10.95,3.23-13.5,8.35l-11,23.6h57.41l15.61,28.2c3.88,7.39,11.55,12.03,19.9,12.03h31.79l-54.04-102.6c4.6,10.95,5.37,30.95-29.24,30.44"/>
      </g>
    </g>
  </g>
</svg>